<svg width="63" height="60" viewBox="0 0 63 60" fill="none" xmlns="http://www.w3.org/2000/svg">
<g opacity="0.6">
<path d="M56.539 31.5569C56.539 45.0738 45.5814 56.0314 32.0644 56.0314C18.5475 56.0314 7.58984 45.0738 7.58984 31.5569C7.58984 18.0399 18.5475 7.08228 32.0644 7.08228C45.5814 7.08228 56.539 18.0399 56.539 31.5569Z" fill="#FFDAD4"/>
<path d="M35.2831 7.55385C42.0399 11.7257 42.3578 23.4643 35.9931 33.7729C29.6284 44.0814 18.9913 49.0561 12.2344 44.8843C5.47752 40.7124 5.15963 28.9737 11.5243 18.6652C17.8891 8.35673 28.5262 3.38199 35.2831 7.55385Z" fill="#EEF4FF"/>
<path d="M32.3435 8.15528C36.9132 5.08815 45.4124 9.74536 51.327 18.5575C57.2417 27.3696 58.332 36.9996 53.7624 40.0667C49.1927 43.1338 40.6935 38.4766 34.7789 29.6645C28.8642 20.8524 27.7739 11.2224 32.3435 8.15528Z" fill="#EEF4FF"/>
<path d="M33.4943 3.44703C33.6656 3.48546 33.8161 3.57593 33.9745 3.63911C34.2177 3.64419 34.4626 3.60526 34.7045 3.65832C34.821 3.68392 34.9349 3.72373 35.0502 3.75436C35.2833 3.71788 35.5122 3.62909 35.7609 3.63911C36.1753 3.65592 36.5565 3.74183 36.8942 3.88881C37.0055 3.89183 37.1234 3.87154 37.2399 3.88881C37.5441 3.93428 37.8204 4.01937 38.0659 4.13852C38.0911 4.14119 38.1175 4.13529 38.1427 4.13852L38.9494 4.34981L39.3144 4.48426L40.1403 4.88763C40.2214 4.91031 40.3053 4.92781 40.39 4.94526C40.6074 4.98964 40.8298 5.03878 41.0431 5.09892H41.0239C41.5798 5.13244 42.0791 5.34344 42.5413 5.63675C42.6927 5.64397 42.8481 5.60705 43.0023 5.63675L44.0396 6.04012L44.6542 6.53953C45.0832 6.62782 45.4748 6.80501 45.8451 7.07735C46.1607 7.19771 46.4661 7.34512 46.7479 7.53835C46.8668 7.62025 46.9924 7.70934 47.1129 7.78805C47.3892 7.96856 47.648 8.17287 47.8812 8.40271C48.0321 8.55166 48.1661 8.72171 48.3038 8.88291C48.3393 8.90885 48.3641 8.94084 48.3806 8.95975L48.7648 9.26707L49.6099 9.72807L50.1093 10.1314H50.0901C50.598 10.3949 50.9908 10.7668 51.281 11.2455L52.2222 12.033L52.4143 12.2635C52.5514 12.4051 52.6613 12.5684 52.7793 12.7245C53.215 13.027 53.5274 13.4197 53.7397 13.8578C53.9427 14.0493 54.0903 14.2815 54.2391 14.5301L54.3735 14.6645C54.5932 14.8337 54.7942 15.0241 54.969 15.2408L55.4108 15.9515L55.4876 16.2012C55.8143 16.5012 56.0807 16.8788 56.2559 17.3537C56.4748 17.6677 56.6187 17.9986 56.7169 18.3525C56.8211 18.4584 56.9318 18.559 57.0242 18.679L57.4276 19.3321L57.6965 20.1581C57.7013 20.1829 57.6923 20.21 57.6965 20.2349C57.8741 20.5353 57.9978 20.8546 58.0615 21.1953C58.2323 21.4825 58.3686 21.7902 58.4456 22.1365C58.5377 22.3147 58.6374 22.4889 58.7145 22.6743L59.0219 23.9036L59.0027 24.4991L59.1947 25.1137L59.2716 25.5939C59.2747 25.61 59.2831 25.6315 59.2908 25.6516L59.5597 26.6888L59.6173 27.2074C59.6453 27.4505 59.6408 27.6937 59.6365 27.9373C59.6824 28.1293 59.7367 28.3194 59.771 28.5136C59.8039 28.7009 59.7968 28.9005 59.8094 29.0898C60.0174 29.6097 60.0724 30.1345 59.9823 30.6457L60.0783 31.6445C60.0715 31.7148 60.0434 31.8045 60.0207 31.9134L59.9631 32.9122L59.9439 32.9314C60.0042 33.2353 60.0332 33.5549 60.0015 33.8918C59.9907 34.0031 59.986 34.1242 59.9823 34.2376C59.9735 34.5058 59.9479 34.7792 59.9054 35.0443C59.8896 35.1445 59.8755 35.2509 59.867 35.3516C59.8312 35.7712 59.7034 36.1572 59.5405 36.5233C59.51 36.7554 59.4863 36.9883 59.4252 37.2148C59.3606 37.4537 59.2837 37.6946 59.1947 37.9255C59.1833 37.9552 59.1651 37.993 59.1563 38.0216C59.1751 38.5858 59.0634 39.147 58.7722 39.6735C58.7652 39.696 58.7755 39.7252 58.7722 39.7311L58.5033 40.4418C58.4202 40.8724 58.2374 41.2353 58.0038 41.5751C57.9837 41.8432 57.9756 42.1149 57.9078 42.3818C57.7919 42.8367 57.5835 43.267 57.3124 43.6495C57.1722 43.8465 56.9779 43.985 56.8129 44.1489C56.6921 44.6404 56.4749 45.0485 56.1407 45.4167C56.0203 45.9873 55.8045 46.5679 55.3147 47.0301C55.2595 47.0821 55.196 47.1318 55.1418 47.1838C54.9421 47.6099 54.6698 47.964 54.2967 48.2595C54.175 48.5745 54.0298 48.8939 53.7973 49.1814C53.6435 49.3706 53.4206 49.4904 53.2402 49.6424C53.1434 49.8321 53.0791 50.0411 52.9521 50.2187C52.7599 50.4868 52.5415 50.7429 52.299 50.9678C52.2237 51.0376 52.138 51.1041 52.0686 51.1791C51.7674 51.5038 51.4107 51.7164 51.0505 51.8898C50.9897 51.9572 50.94 52.035 50.8777 52.1011C50.8379 52.1432 50.7831 52.1808 50.7432 52.2355C50.5012 52.5676 50.215 52.8695 49.8788 53.1191C49.7955 53.181 49.7075 53.2435 49.6291 53.3112C49.265 53.6248 48.8583 53.8033 48.4574 53.9258C48.4414 53.941 48.4351 53.9683 48.419 53.9835C48.1374 54.2477 47.8205 54.476 47.4778 54.6558C47.2357 54.8645 46.9745 55.0605 46.6903 55.2128C46.5881 55.2673 46.4687 55.2819 46.3638 55.328C46.0279 55.6986 45.6129 56.0169 45.0576 56.1924C45.0388 56.2025 45.0316 56.2268 45.0192 56.2308C45.0387 56.225 45.0576 56.2178 45.0768 56.2116C44.885 56.3208 44.6802 56.4232 44.4814 56.5189C44.4228 56.5474 44.3654 56.5793 44.3085 56.615C43.8025 56.9344 43.2417 57.0632 42.695 57.0952V57.1144H42.6566C42.5645 57.1622 42.4799 57.232 42.3877 57.2873C42.3386 57.3168 42.2905 57.3582 42.234 57.4025C41.7643 57.7717 41.2161 57.8997 40.6782 57.9595C40.5301 58.0433 40.3981 58.1816 40.2364 58.2477C39.7878 58.4291 39.3371 58.4571 38.911 58.4397C38.5326 58.6599 38.1169 58.8561 37.6241 58.9007C37.4567 58.9159 37.291 58.9442 37.1247 58.9584C37.0879 58.9615 37.0451 58.9498 37.0094 58.9584C36.7452 59.0228 36.4729 59.0361 36.2027 59.0544C35.8354 59.1802 35.4597 59.2418 35.0694 59.2465C34.7316 59.3415 34.3886 59.4132 34.0322 59.4193C33.7314 59.4244 33.4252 59.4052 33.1294 59.3617C32.9684 59.3381 32.8083 59.3077 32.6492 59.2849C32.5658 59.2729 32.4827 59.2596 32.3995 59.2465C32.2108 59.2963 32.0212 59.375 31.8232 59.4001C31.4134 59.4513 31.0231 59.3953 30.6516 59.3041C30.4919 59.3335 30.3391 59.4103 30.1714 59.4193C29.7844 59.4398 29.41 59.3858 29.0573 59.2849C28.7597 59.2994 28.4488 59.2975 28.1353 59.2081C27.9662 59.1595 27.8184 59.0671 27.6743 58.9968C27.4878 58.9811 27.3187 58.9132 27.1365 58.8623C26.7097 58.8957 26.2575 58.8842 25.8111 58.7279C25.5639 58.6407 25.3433 58.5073 25.1196 58.3821C24.9465 58.3502 24.7712 58.3318 24.601 58.2861C24.5146 58.2628 24.4218 58.2445 24.3321 58.2285C24.2168 58.208 24.088 58.1853 23.9671 58.1708C23.7969 58.1505 23.6193 58.1348 23.4485 58.1132C23.1084 58.0697 22.7757 57.9813 22.4497 57.8635C22.067 57.7249 21.744 57.5185 21.4701 57.2873C20.9607 57.198 20.5272 56.9892 20.1447 56.6918C20.0515 56.6657 19.9489 56.6443 19.8566 56.615C19.417 56.4744 19.043 56.2282 18.7041 55.9427C18.4079 55.8155 18.1381 55.6654 17.8974 55.4625C17.5065 55.3133 17.125 55.1121 16.8025 54.8094C16.7722 54.7811 16.737 54.759 16.7065 54.7326C16.3374 54.5927 15.9855 54.4011 15.6693 54.1371C15.2882 53.9499 14.9319 53.7196 14.632 53.4072C14.447 53.2139 14.2705 53.0076 14.1134 52.7926C13.9032 52.6887 13.6779 52.5831 13.4795 52.4084C13.182 52.1462 12.9763 51.8419 12.8265 51.544C12.7992 51.5197 12.7763 51.4924 12.7496 51.4672C12.2536 51.2152 11.7921 50.8706 11.4627 50.3723C11.4313 50.3247 11.3998 50.2758 11.3666 50.2379C11.2085 50.0572 11.1044 49.8428 10.9825 49.6424C10.8486 49.54 10.7043 49.4492 10.5791 49.3351C10.301 49.0818 10.0876 48.7916 9.92604 48.49C9.57941 48.212 9.27144 47.848 9.06168 47.3759L8.61989 46.6652L8.81197 46.8957L8.6391 46.646C8.36327 46.3259 8.16322 45.9951 8.04365 45.628C7.82613 45.3639 7.65257 45.0646 7.52503 44.7252C7.33016 44.4569 7.15887 44.2005 7.06404 43.8992C6.90207 43.7049 6.76473 43.4836 6.64146 43.2462C6.5051 42.9822 6.38773 42.7022 6.29572 42.4202C6.26434 42.3239 6.21845 42.2235 6.18047 42.1321C6.08432 41.8999 6.00086 41.6626 5.93076 41.4214C5.88444 41.2613 5.90065 41.0834 5.87314 40.922C5.82551 40.846 5.74221 40.791 5.70027 40.7107L5.39294 39.8463C5.26118 39.587 5.12241 39.3272 5.04719 39.0396C5.01695 38.9242 4.98754 38.808 4.95115 38.6938C4.82619 38.3024 4.77686 37.9201 4.79749 37.5606C4.77317 37.491 4.72097 37.4231 4.70145 37.3493C4.62701 37.0652 4.59651 36.7876 4.60541 36.5233C4.3771 36.0448 4.30602 35.5518 4.33649 35.0443C4.28534 34.8846 4.21743 34.7302 4.18283 34.5641C4.09132 34.1199 4.1075 33.6757 4.18283 33.258C4.14369 32.9846 4.13177 32.7226 4.16362 32.4512C4.04316 31.912 4.01209 31.3549 4.20204 30.7993L4.22124 30.7417C4.18426 30.4651 4.19963 30.1989 4.24045 29.9158C4.19145 29.6824 4.11419 29.4517 4.106 29.2051C4.0878 28.6432 4.25731 28.1545 4.47095 27.726C4.44561 27.4012 4.44986 27.0983 4.52857 26.7848C4.50454 26.5183 4.5059 26.2345 4.56699 25.9397C4.65009 25.5391 4.83446 25.2094 5.02798 24.9217C5.05998 24.7994 5.08267 24.6763 5.12402 24.5567C5.04016 23.9614 5.08143 23.3165 5.39294 22.6935L5.41214 22.6551C5.51351 22.2989 5.65038 21.9547 5.83472 21.6371L6.19968 21.0608C6.25017 20.9326 6.30379 20.8055 6.35334 20.6767L6.66067 20.1196C6.66789 20.0564 6.67361 19.9923 6.67988 19.9276L6.89117 19.0056C7.00525 18.7148 7.16956 18.4379 7.37137 18.1796L7.64028 17.9107C7.71809 17.6787 7.84823 17.4719 7.98603 17.2576C8.08825 16.8956 8.27285 16.5282 8.54306 16.2012C8.71367 15.9963 8.89089 15.8178 9.08089 15.6826C9.1 15.6494 9.1381 15.6194 9.15772 15.5865C9.26595 15.4055 9.3847 15.2228 9.50346 15.0487C9.54418 14.9886 9.58218 14.9248 9.61871 14.8566C9.70257 14.7001 9.80117 14.5513 9.88762 14.3956L10.3102 13.781C10.4463 13.6228 10.5907 13.4723 10.752 13.3392C10.9274 13.0985 11.1235 12.8861 11.3474 12.7053C11.5941 12.294 11.9228 11.938 12.3655 11.6681C12.4923 11.4287 12.6257 11.1768 12.8265 10.9574C13.186 10.5647 13.618 10.2815 14.075 10.093C14.396 9.70961 14.7819 9.41765 15.2467 9.22866C15.3909 9.03999 15.5252 8.83777 15.7077 8.67162C15.8931 8.5033 16.1013 8.33968 16.3031 8.19142C16.5241 8.02954 16.7539 7.88015 16.9946 7.74964C17.0643 7.71194 17.141 7.67887 17.2059 7.63439L17.9742 7.23102C18.0567 7.20118 18.1406 7.17745 18.2239 7.15419C18.2875 7.10877 18.3493 7.06074 18.416 7.01973L19.0499 6.73161C19.2431 6.60769 19.4426 6.49353 19.6453 6.38586C19.6658 6.37498 19.6969 6.3662 19.7222 6.34745L20.6249 5.80962L21.0667 5.59833C21.2064 5.53328 21.3499 5.45366 21.4893 5.38704L22.3152 5.11813C22.4747 5.08758 22.6369 5.10724 22.7955 5.09892C23.0069 5.02049 23.2127 4.95995 23.4293 4.92605C23.4487 4.91237 23.4675 4.8822 23.4869 4.86843L24.1784 4.50347C24.5365 4.37272 24.9024 4.34127 25.2541 4.34981C25.4614 4.27356 25.6821 4.26525 25.9072 4.23456C26.3175 4.04463 26.7587 3.90453 27.2325 3.88881L27.9816 3.90802C28.1791 3.88132 28.3782 3.87992 28.5771 3.86961C28.8096 3.79109 29.0451 3.70596 29.2878 3.65832C29.6039 3.59655 29.9263 3.56224 30.2482 3.56228C30.3794 3.56235 30.5041 3.62667 30.6323 3.63911C31.039 3.49843 31.474 3.40749 31.9577 3.46624C32.1111 3.44278 32.2649 3.40785 32.4187 3.3894L33.4943 3.44703ZM28.8268 58.9007C28.5842 58.9747 28.3265 58.9452 28.0777 58.9584C28.3494 58.9801 28.6079 58.9675 28.8268 58.9007ZM19.6069 56.2308C19.7116 56.3582 19.8586 56.4719 20.0295 56.5766C19.891 56.4566 19.7225 56.3724 19.6069 56.2308ZM33.8401 54.5021C33.7988 54.5082 33.7611 54.5293 33.7248 54.5405C33.7683 54.5265 33.812 54.5137 33.8559 54.5021H33.8401ZM32.6108 8.32588C32.387 8.36229 32.1621 8.31041 31.9385 8.30667C31.4056 8.51255 30.8277 8.63719 30.1906 8.47954C30.171 8.4846 30.1554 8.50995 30.1329 8.51796C29.739 8.66234 29.3142 8.75264 28.8844 8.76766C28.8043 8.77029 28.7127 8.77626 28.6347 8.78687C28.3029 8.83168 27.9642 8.82886 27.6359 8.80608H27.6167C27.3744 8.90253 27.127 8.96121 26.8676 8.99816C26.47 9.19412 26.0674 9.29813 25.6575 9.30549C25.2295 9.5554 24.7725 9.67255 24.2937 9.70886C23.9857 9.82816 23.685 9.91328 23.3717 9.93936C23.294 9.97601 23.219 10.0184 23.1412 10.0546C22.9903 10.1248 22.8313 10.1962 22.6802 10.2659C22.4513 10.4384 22.2055 10.5915 21.9503 10.7269C21.8662 10.7716 21.7811 10.8288 21.7006 10.8806C21.4554 11.0374 21.1812 11.1242 20.9131 11.2263C20.5635 11.5001 20.1923 11.6765 19.7798 11.7833C19.6316 11.8783 19.4929 11.9876 19.338 12.0715C19.2916 12.0966 19.2455 12.1367 19.2035 12.1675C19.142 12.213 19.0887 12.2685 19.0307 12.3212C18.7595 12.723 18.4116 13.0876 17.955 13.3584C17.8402 13.4265 17.7081 13.4562 17.5901 13.5121C17.3865 13.7532 17.1576 13.9799 16.8794 14.1651C16.7471 14.2531 16.5946 14.3045 16.4568 14.3764C16.1956 14.8713 15.8387 15.3228 15.2659 15.6249C15.0741 15.9153 14.8455 16.1583 14.5552 16.3741C14.4318 16.5415 14.2808 16.6718 14.1326 16.8158C14.0675 16.9336 14.0231 17.0626 13.9597 17.1808C13.8406 17.4032 13.7178 17.6253 13.5756 17.8339C13.5113 17.9282 13.4423 18.0236 13.3835 18.122C13.3405 18.1942 13.3051 18.2748 13.2682 18.3525C13.0614 18.7872 12.7568 19.1101 12.4423 19.3705C12.4094 19.4351 12.3455 19.4808 12.3078 19.5434C12.1887 20.0961 11.9105 20.5951 11.5011 21.0032L11.2898 21.8484C11.2037 22.0581 11.0535 22.2331 10.9249 22.4246L10.9441 22.4438C10.8831 22.6022 10.8143 22.7663 10.752 22.924C10.6219 23.2518 10.4486 23.5611 10.2526 23.846C10.2028 23.9185 10.1428 23.9837 10.0989 24.0573C10.0635 24.1767 10.0084 24.2871 9.96446 24.403C9.97899 24.6338 10.0328 24.8703 10.0029 25.1137C9.95897 25.4681 9.87963 25.8155 9.75317 26.151C9.70041 26.4717 9.59282 26.7683 9.46505 27.0345C9.45198 27.3019 9.39864 27.5617 9.31138 27.8221C9.32282 27.9725 9.39479 28.1274 9.38822 28.2831C9.36886 28.7205 9.23947 29.1071 9.08089 29.4548C9.11782 29.7386 9.10303 30.0131 9.06168 30.2999C9.15952 30.7974 9.20551 31.3158 9.04247 31.8366C9.03595 31.8574 9.01065 31.8734 9.00405 31.8942C9.05983 32.2407 9.07887 32.5963 9.0237 32.9513C9.05834 33.2228 9.06051 33.4861 9.02326 33.7574C9.15368 34.1168 9.2177 34.4699 9.21534 34.833C9.22559 34.8535 9.24364 34.8701 9.25376 34.8906C9.46023 35.3106 9.54961 35.7519 9.56109 36.1776C9.62631 36.3356 9.71559 36.4958 9.75317 36.677C9.82658 37.0334 9.79859 37.3693 9.75317 37.6758C9.76385 37.7148 9.78131 37.7519 9.79158 37.7911L10.0797 38.4826C10.3979 38.9433 10.6165 39.458 10.6559 40.0384C10.6764 40.109 10.7052 40.1834 10.7328 40.2497C10.8105 40.4367 10.8603 40.6338 10.9249 40.8259C11.3166 41.2197 11.5666 41.6933 11.6932 42.2089C11.7674 42.3182 11.8237 42.4362 11.8853 42.5547C12.2862 42.9542 12.5473 43.4359 12.6728 43.9569L12.9801 44.3602L13.057 44.4947C13.1053 44.5621 13.1278 44.6557 13.1722 44.7252C13.369 44.8558 13.5713 45.0052 13.7484 45.2054C13.952 45.4369 14.0971 45.7009 14.2094 45.9545C14.5694 46.2402 14.8573 46.588 15.0738 46.9917L15.3043 47.2991C15.532 47.4355 15.7386 47.6063 15.9382 47.7985L16.7833 48.5668L16.8025 48.586L17.7821 49.4696L18.0703 49.8921L18.0895 49.9114C18.3029 50.0253 18.5117 50.1428 18.7041 50.2955C19.0194 50.4231 19.3464 50.5382 19.6261 50.7565C19.7387 50.8447 19.8449 50.9505 19.9527 51.0446C20.3195 51.1893 20.6675 51.3722 20.9638 51.6288L21.2396 51.7361C21.3503 51.8013 21.4446 51.8894 21.5469 51.9666C21.5795 51.975 21.6099 51.9974 21.643 52.005C22.066 52.1023 22.433 52.294 22.757 52.5237C23.3885 52.6007 23.8798 52.9063 24.2937 53.2536C24.3813 53.2644 24.4752 53.2815 24.5626 53.292C24.7692 53.3168 24.9736 53.352 25.1772 53.388C25.4076 53.4289 25.6429 53.481 25.8687 53.5417C25.9329 53.559 26.0129 53.5703 26.08 53.5801C26.5103 53.644 26.9092 53.7861 27.2709 53.9835C27.5455 53.9801 27.809 54.0074 28.0777 54.0795C28.3881 54.0619 28.7108 54.0996 29.0381 54.1948C29.1681 54.2329 29.2878 54.2969 29.403 54.3484C29.6191 54.3577 29.8238 54.427 30.0369 54.4829C30.4855 54.3689 30.9279 54.3673 31.3815 54.4637C31.5815 54.4034 31.7851 54.3518 31.9961 54.3292L32.9373 54.3676L33.3407 54.4253C33.5071 54.4491 33.6888 54.477 33.8571 54.5018C34.1581 54.4222 34.4682 54.3966 34.7813 54.3868C35.1225 54.2774 35.4736 54.2072 35.8377 54.1948C36.1207 54.1257 36.4119 54.0658 36.7021 54.0411L36.7213 54.0219C36.9828 53.8557 37.278 53.7148 37.6049 53.6185C37.999 53.5032 38.3928 53.48 38.7574 53.5033C39.0465 53.3538 39.3299 53.2456 39.6409 53.1959C39.7106 53.1503 39.7806 53.1045 39.8522 53.0615C40.0379 52.9502 40.2369 52.8529 40.4285 52.7542C40.7117 52.6083 41.007 52.4792 41.312 52.3892C41.5344 52.3236 41.7625 52.3023 41.9843 52.2739C42.1042 52.2069 42.2254 52.1416 42.3493 52.0819C42.4462 52.0352 42.5441 51.9813 42.6374 51.9282C42.7598 51.8585 42.8944 51.813 43.0215 51.7553C43.3599 51.3861 43.7748 51.0613 44.3261 50.8914C44.3328 50.8846 44.3397 50.8781 44.3469 50.8718C44.3779 50.8625 44.4113 50.861 44.4429 50.8526C44.4316 50.8556 44.4064 50.8426 44.3853 50.8526L45.0576 50.3916C45.1634 50.2922 45.2615 50.1852 45.3649 50.0842C45.7686 49.6899 46.2468 49.4694 46.7095 49.3351C46.7556 49.2986 46.7971 49.2555 46.844 49.2199C46.9782 49.0436 47.1332 48.8824 47.2857 48.7205C47.3685 48.6327 47.457 48.5436 47.5354 48.4515L48.2846 47.7985C48.4129 47.7177 48.5542 47.6675 48.6879 47.6064C48.7729 47.521 48.8684 47.4386 48.9568 47.3567C49.1587 46.8819 49.4612 46.474 49.8596 46.1466C50.0321 45.6936 50.2959 45.2595 50.7048 44.898L50.8777 44.7444C51.0211 44.4482 51.2148 44.1703 51.4539 43.9184C51.5246 43.6357 51.6421 43.352 51.7996 43.0733L52.2798 42.4202C52.3183 42.2958 52.3239 42.1591 52.3759 42.036L52.8369 41.2677C52.9336 41.1443 53.0545 41.0475 53.1634 40.9412C53.1847 40.6766 53.2091 40.3997 53.2787 40.1344C53.3994 39.6789 53.6319 39.2977 53.8933 38.9628C53.9449 38.7796 53.9474 38.5826 54.0278 38.4057L54.0854 38.2328L54.3159 37.695C54.3243 37.4492 54.2942 37.197 54.3543 36.9459L54.604 36.1584C54.6326 36.0843 54.6608 36.0019 54.6809 35.9279V35.8703L54.969 34.9291C54.9879 34.7054 55.0103 34.4784 55.0458 34.2568C55.0549 34.1994 55.0628 34.1427 55.065 34.0839C55.0687 33.9707 55.0768 33.851 55.0842 33.7382C54.9286 33.1912 54.9112 32.6117 55.0842 32.0478V31.51C54.9535 31.0565 54.9495 30.61 55.0266 30.1847C54.9718 29.9469 54.9309 29.6963 54.9306 29.4356V29.3779C54.9117 29.2705 54.88 29.159 54.8537 29.0514C54.7596 28.6666 54.7219 28.2737 54.7385 27.8797V27.7644C54.7244 27.643 54.7151 27.5209 54.7001 27.3995L54.4504 26.5159C54.4241 26.3778 54.3995 26.2313 54.3735 26.0933L54.1238 25.2098C54.0853 24.9394 54.0801 24.6684 54.1046 24.403C54.0943 24.3826 54.0772 24.3658 54.0662 24.3454C53.9163 24.0692 53.8399 23.7635 53.7589 23.4618C53.5491 23.1391 53.3915 22.8148 53.3171 22.4438C53.1291 22.1291 53.0157 21.8026 52.9521 21.445C52.7754 21.2466 52.5715 21.0537 52.4335 20.8111C52.2858 20.5503 52.2433 20.2592 52.1646 19.9852C52.0926 19.8825 52.0139 19.7865 51.9533 19.6778C51.5179 19.3212 51.1866 18.8355 51.0121 18.2372C50.929 18.1629 50.8417 18.0857 50.7624 18.0067C50.5514 17.7959 50.3749 17.5634 50.2246 17.3153C49.907 17.053 49.6542 16.7447 49.4755 16.3933C49.2467 16.1887 49.0521 15.9366 48.88 15.6634V15.6826C48.7414 15.5393 48.6052 15.3932 48.4766 15.2408C48.2538 15.0916 48.0386 14.9323 47.8428 14.7414C47.6697 14.5724 47.5709 14.3544 47.4394 14.1651C47.2471 14.0494 47.0188 13.9737 46.844 13.8194C46.7917 13.7734 46.7394 13.7276 46.6861 13.683C46.2969 13.5267 45.9239 13.3048 45.5954 13.0126C45.5336 12.9579 45.4694 12.9073 45.4034 12.859C45.1006 12.6376 44.8293 12.3718 44.5966 12.0907C44.5418 12.0249 44.4812 11.9553 44.4237 11.8986C44.2702 11.7983 44.1139 11.6954 43.9627 11.5913H43.9435C43.7031 11.4934 43.4809 11.3711 43.2713 11.2263C42.9833 11.16 42.6875 11.0865 42.4069 10.9382C42.1796 10.8178 42.0035 10.6324 41.8114 10.4772C41.4913 10.4493 41.1626 10.3821 40.8318 10.2467C40.6214 10.1602 40.4439 10.0173 40.2556 9.90094C40.0774 9.87241 39.8943 9.87398 39.7178 9.82411C39.6196 9.79631 39.5119 9.7872 39.4104 9.76648C39.1865 9.72072 38.9574 9.65699 38.7382 9.59361C38.3539 9.48164 37.9898 9.31949 37.6625 9.11341L37.7393 9.13262L37.6625 9.0942C37.5287 9.04773 37.3919 9.01004 37.2591 8.95975C36.9745 8.93563 36.7066 8.92145 36.4524 8.82529C36.3106 8.82685 36.161 8.84684 36.0106 8.82529C35.7483 8.78739 35.519 8.68898 35.2999 8.59479C34.8608 8.65401 34.403 8.68115 33.9361 8.53717C33.8486 8.50993 33.7542 8.4799 33.6672 8.46034C33.2967 8.4712 32.9604 8.41262 32.63 8.30667L32.6108 8.32588ZM28.9804 54.3868C28.7542 54.3804 28.5397 54.4144 28.3519 54.4698C28.5566 54.4124 28.7699 54.4069 28.9804 54.3868ZM26.9828 54.0027C26.7879 53.9914 26.6111 54.019 26.4642 54.0603C26.6337 54.0124 26.8095 54.0215 26.9828 54.0027ZM44.324 50.8936C44.3027 50.909 44.288 50.9326 44.2701 50.9486C44.2889 50.9312 44.306 50.9119 44.324 50.8936ZM17.1099 49.1814C17.1627 49.2949 17.2281 49.3985 17.274 49.5091C17.2335 49.4052 17.1806 49.295 17.1099 49.1814ZM15.9068 48.2789C16.0199 48.3094 16.1298 48.3558 16.2455 48.3939C16.1283 48.3388 16.0131 48.3047 15.9068 48.2789ZM56.9666 43.7071C56.9582 43.8007 56.9063 43.8851 56.8898 43.9761L56.909 43.9569C56.9521 43.855 56.9611 43.7624 56.9666 43.7071ZM54.2967 37.7719C54.2626 37.9318 54.2613 38.0936 54.2734 38.2441C54.2639 38.089 54.2945 37.9315 54.2967 37.7719ZM4.99644 36.6175C4.95469 36.7451 4.92842 36.9019 4.91273 37.0804C4.94611 36.9219 4.95107 36.7623 4.99644 36.6175ZM4.41332 34.3336C4.3668 34.4902 4.32552 34.6896 4.33649 34.9099C4.33756 34.9296 4.354 34.948 4.3557 34.9675C4.37397 34.755 4.35156 34.5405 4.41332 34.3336ZM4.18283 33.354L4.29808 33.911L4.20204 33.2964L4.18283 33.354ZM58.484 33.719C58.203 33.8262 57.9226 33.9007 57.6555 33.91C57.9698 33.9007 58.2419 33.8147 58.484 33.719ZM59.1947 33.2387C59.1104 33.3128 59.0154 33.3521 58.9258 33.4116C58.8336 33.4729 58.7682 33.5618 58.676 33.613C58.7882 33.5564 58.8892 33.4982 58.9835 33.4308C59.0655 33.3722 59.1264 33.3006 59.1947 33.2387ZM55.2379 31.9518L55.2571 31.9902C55.2527 31.9788 55.2491 31.9587 55.2379 31.9326V31.9518ZM4.25966 31.0106L4.39412 31.5676L4.25966 30.953V31.0106ZM4.47095 28.0718L4.50936 28.3599L4.49016 28.0718C4.48396 28.0401 4.49534 28.0074 4.49016 27.9757L4.47095 28.0718ZM12.7628 18.3183C12.7331 18.5068 12.6536 18.6877 12.596 18.8711C12.6809 18.6832 12.7377 18.4935 12.7628 18.3183ZM35.8377 8.49875C35.9084 8.53767 35.9867 8.56235 36.0682 8.59479C36.0012 8.55741 35.9399 8.52141 35.8761 8.47954L35.8377 8.49875ZM35.492 8.26825C35.5818 8.34669 35.6912 8.42724 35.8185 8.49875C35.84 8.49485 35.8571 8.48417 35.8761 8.47954C35.7537 8.39906 35.601 8.36341 35.492 8.26825ZM32.2458 8.17221C32.1682 8.21251 32.0971 8.2534 32.0153 8.28746H32.0345L32.2458 8.17221ZM34.8965 3.77357C34.7433 3.77193 34.6046 3.79864 34.4781 3.83294C34.613 3.80066 34.7555 3.80165 34.8965 3.77357Z" fill="#017BFF"/>
<path d="M34.1862 48.1523C34.1862 49.0473 33.4607 49.7728 32.5658 49.7728C31.6708 49.7728 30.9453 49.0473 30.9453 48.1523C30.9453 47.2574 31.6708 46.5319 32.5658 46.5319C33.4607 46.5319 34.1862 47.2574 34.1862 48.1523Z" fill="#017BFF"/>
<path d="M44.4675 46.4757C44.4675 47.3706 43.742 48.0962 42.847 48.0962C41.9521 48.0962 41.2266 47.3706 41.2266 46.4757C41.2266 45.5807 41.9521 44.8552 42.847 44.8552C43.742 44.8552 44.4675 45.5807 44.4675 46.4757Z" fill="#017BFF"/>
<path d="M35.5463 18.691C35.9903 17.2807 37.4883 16.4913 38.899 16.9308C40.1161 17.314 40.8006 18.4765 40.701 19.6968L40.7639 19.7177L40.9106 20.2625C40.9492 20.6084 40.9374 20.9698 40.8687 21.3312C40.8288 21.5406 40.7902 21.7516 40.7429 21.9598C40.7189 22.0661 40.6782 22.1683 40.6591 22.2742C40.6904 22.6 40.686 22.9179 40.6382 23.2381C40.6929 23.5876 40.6922 23.9201 40.6382 24.2648C40.7223 24.6949 40.7148 25.1142 40.6172 25.564C40.7559 26.0186 40.7766 26.4823 40.701 26.9889C40.7629 27.5864 40.6062 28.1187 40.4077 28.6023C40.4891 29.1317 40.4313 29.6418 40.24 30.1739C40.2092 30.56 40.1143 30.9165 39.9676 31.2635C39.9488 31.7519 39.8687 32.2618 39.6114 32.7513C39.5026 32.958 39.3472 33.1303 39.2133 33.3171C39.0555 33.8742 38.8003 34.3761 38.3946 34.7872L38.1865 35.3077C38.1598 35.3763 38.1251 35.4526 38.1027 35.5382C37.8901 36.3503 37.3869 36.9892 36.7407 37.445C36.7299 37.4707 36.7302 37.5015 36.7197 37.5289C36.4972 38.1141 36.0905 38.5386 35.6511 38.8909C35.4785 39.1873 35.2827 39.478 35.0224 39.7291C34.8708 39.875 34.6851 39.9815 34.5195 40.1062C34.4269 40.2625 34.3554 40.4402 34.2471 40.5882C34.0739 40.8243 33.8841 41.0471 33.6814 41.2587C33.4552 41.4941 33.1881 41.6812 32.927 41.8454C32.856 41.9555 32.8194 42.0961 32.7384 42.2017C32.5154 42.4916 32.2646 42.7593 31.9841 42.9979C31.655 43.2772 31.278 43.4441 30.9154 43.5846C30.67 43.899 30.4163 44.225 30.0772 44.4647C29.9452 44.5581 29.8095 44.6628 29.6791 44.7581C29.5111 44.8807 29.3275 44.9977 29.1552 45.1143C28.8398 45.3268 28.4969 45.4699 28.1494 45.5962C28.0343 45.6822 27.916 45.7523 27.7932 45.8267C27.5831 46.0782 27.3697 46.3304 27.1017 46.5392C26.7459 46.8156 26.3487 47.0511 25.9283 47.2097C25.6623 47.3097 25.3836 47.3459 25.1111 47.3983C24.9929 47.4657 24.8741 47.5421 24.7548 47.6079C24.4817 47.758 24.1885 47.8983 23.8957 48.006C23.755 48.0573 23.5994 48.0525 23.4557 48.0898C23.1659 48.3027 22.8236 48.5063 22.408 48.6137C22.1776 48.6727 21.952 48.649 21.7374 48.6556C21.5995 48.7238 21.49 48.8535 21.3393 48.907C20.7421 49.119 20.169 49.1041 19.642 49.0118C19.4569 49.0845 19.2669 49.1635 19.0762 49.2213C18.6114 49.3611 18.162 49.3728 17.7352 49.3261C17.4273 49.4224 17.1001 49.5289 16.7503 49.5356C16.6166 49.538 16.4846 49.5013 16.3522 49.4937C15.9048 49.6598 15.421 49.7897 14.8854 49.7452C14.67 49.7269 14.4634 49.644 14.2568 49.5985C13.143 49.7234 12.0317 49.1827 11.5327 48.1108C11.4846 48.0072 11.5038 47.8815 11.4698 47.7755L11.4279 47.7964L11.407 47.7755L11.2812 47.3774V46.9373C11.2829 46.152 11.6417 45.6094 11.9518 45.24C11.9876 45.1986 12.0181 45.1537 12.0566 45.1143C12.1524 45.0128 12.212 44.9027 12.2871 44.8419C12.6225 44.5731 12.9498 44.4295 13.0833 44.3809C13.3744 44.2751 13.6486 44.2494 13.7539 44.2342H14.7387C14.8361 44.2496 14.926 44.2772 15.0111 44.2971C15.3984 44.1705 15.8079 44.1227 16.2474 44.1504C16.811 43.9025 17.4205 43.8106 18.0076 43.899C18.2175 43.8187 18.438 43.7677 18.6572 43.7104L19.8725 43.6056C20.1227 43.4819 20.4059 43.3882 20.7107 43.3332C20.7812 43.3206 20.8512 43.3198 20.9202 43.3122C21.2507 43.1313 21.6313 43.0148 22.0517 42.956C22.0943 42.9403 22.1369 42.9208 22.1775 42.9141L22.5756 42.6836L23.33 42.3274C23.5153 42.2662 23.7074 42.2352 23.8957 42.2017C24.2109 41.8411 24.5898 41.5272 25.0482 41.3006C25.4072 41.0047 25.7963 40.7619 26.2216 40.6091C26.3174 40.5433 26.4211 40.4891 26.515 40.4205C26.6105 40.3508 26.7122 40.2799 26.8084 40.211C26.9424 40.024 27.0954 39.8398 27.2484 39.6662L28.1913 38.9118C28.3239 38.8408 28.474 38.8174 28.6104 38.7652C28.9031 38.2257 29.3062 37.7948 29.8258 37.4869C29.8515 37.4576 29.9068 37.4355 29.9305 37.4031L29.9515 37.3612L30.5173 36.5021C30.7295 36.2668 30.9814 36.0689 31.2507 35.8944C31.4462 35.5632 31.6587 35.2716 31.9422 35.0353C31.9714 34.9739 32.016 34.9074 32.0469 34.8467L32.906 33.6942L33.1156 33.5056C33.1336 33.4562 33.1593 33.4081 33.1785 33.359C33.2526 33.1686 33.3297 32.9801 33.409 32.7932C33.5351 32.4963 33.6979 32.2071 33.8699 31.9341L34.2262 31.494C34.3307 31.1502 34.4802 30.8306 34.6872 30.5301C34.7163 30.1904 34.8199 29.8758 34.9596 29.5453C34.9879 29.287 35.0281 29.0334 35.1062 28.7909C35.0878 28.6315 35.022 28.4755 35.0224 28.309C35.0247 27.7649 35.1581 27.2712 35.3577 26.8422C35.3626 26.7799 35.3498 26.7154 35.3577 26.6536C35.2639 26.3066 35.2347 25.9203 35.2529 25.5221C35.2636 25.2969 35.3346 25.0865 35.3787 24.8725C35.3144 24.5237 35.3049 24.1843 35.3577 23.8248C35.285 23.4187 35.2855 23.0076 35.3577 22.5885C35.3206 22.2105 35.2947 21.8323 35.3577 21.4569L35.5044 20.7655C35.5138 20.724 35.5164 20.6812 35.5253 20.6397C35.4184 20.1083 35.3934 19.6186 35.4206 19.2777L35.4415 18.9843L35.5463 18.691ZM20.4592 43.6894C20.4271 43.7091 20.3843 43.7109 20.3544 43.7313H20.3964C20.4158 43.7151 20.4393 43.7053 20.4592 43.6894ZM38.391 34.7908C38.3699 34.8121 38.3484 34.8331 38.3264 34.8539C38.3457 34.8371 38.3713 34.8188 38.391 34.7908ZM40.2819 28.8538C40.2025 29.0099 40.1623 29.1846 40.0719 29.3264C40.1499 29.2088 40.2235 29.0471 40.2819 28.8538ZM35.5253 22.9866C35.4446 23.1753 35.3888 23.4133 35.3787 23.6781V23.741C35.422 23.4923 35.4211 23.2301 35.5253 22.9866Z" fill="#017BFF"/>
<path d="M35.671 31.1857C36.3063 29.8483 37.9165 29.2732 39.2542 29.9075V29.9285L39.9457 30.2428L40.3648 30.8714C40.5625 31.1753 40.7612 31.5928 40.9305 32.0239C41.0408 32.1173 41.1878 32.1679 41.2867 32.2753L41.9154 33.2392L42.0411 33.5326C42.105 33.5957 42.1696 33.6543 42.2297 33.7212C42.588 33.9346 42.8968 34.2158 43.1726 34.5384C43.2696 34.6069 43.3651 34.685 43.466 34.7479C43.5416 34.7949 43.6189 34.8356 43.6965 34.8737C44.0654 35.0547 44.3738 35.3121 44.6604 35.5861C44.8296 35.6674 45.0134 35.7122 45.1633 35.8166L45.8757 36.0262L46.5044 36.3614C46.7623 36.4113 47.021 36.4611 47.271 36.5519C47.5904 36.6003 47.8958 36.7008 48.1807 36.8224L48.9979 37.2834L49.0608 37.3253C49.1191 37.3549 49.1723 37.3888 49.2284 37.4091C49.4009 37.4709 49.5791 37.5344 49.7523 37.5977C49.9046 37.6534 50.0628 37.7045 50.2133 37.7654C50.4299 37.7789 50.6468 37.7909 50.8628 37.8282C51.0926 37.8683 51.3278 37.9207 51.5543 37.9749C51.6389 37.9952 51.7236 38.0338 51.8058 38.0587C52.083 38.0099 52.3805 37.9987 52.6859 38.0168C53.0061 38.0359 53.3206 38.0905 53.6288 38.1635C53.928 38.1561 54.2147 38.1413 54.4879 38.2054C54.845 38.1077 55.2214 38.0574 55.5985 38.0378L56.6462 38.1425C57.0311 38.245 57.5455 38.5024 58.0082 39.0017C58.0764 39.0672 58.1575 39.1186 58.2178 39.1902L58.2387 39.2322L58.2807 39.2741L58.3435 39.3788H58.3226C58.8667 40.1429 59.0222 41.1527 58.595 42.061C58.0513 43.2056 56.8069 43.7393 55.6195 43.4859L55.5566 43.5068C54.8428 43.7598 54.1479 43.6662 53.5031 43.4649C53.1849 43.4753 52.8725 43.4679 52.5601 43.4021C51.8424 43.5931 51.0643 43.5585 50.318 43.1925L49.9409 43.1087C49.9129 43.1043 49.8785 43.1092 49.8361 43.1087C49.3167 43.1026 48.8019 42.981 48.3064 42.7734C48.1784 42.7198 48.0382 42.6743 47.9083 42.6267C47.748 42.5681 47.5859 42.5163 47.4263 42.4591C47.1491 42.3598 46.8708 42.2364 46.6091 42.1029C46.4143 42.0031 46.2442 41.8663 46.0643 41.7467C45.8353 41.6927 45.5939 41.6652 45.3728 41.579C44.8716 41.5013 44.402 41.3208 43.9689 41.0552C43.2417 40.9875 42.5733 40.7079 42.0411 40.196C41.7238 40.0386 41.438 39.8534 41.182 39.6093C40.9928 39.5114 40.7971 39.4078 40.6162 39.295C40.4195 39.1722 40.2184 39.0522 40.0295 38.9178C39.7439 38.7146 39.5217 38.4468 39.2961 38.1844C38.9483 37.9639 38.6403 37.6952 38.3741 37.3672C37.8729 36.9785 37.493 36.4828 37.2426 35.9214C37.2299 35.8927 37.2343 35.8452 37.2216 35.8166C36.9035 35.5471 36.6041 35.2428 36.3835 34.8527L35.9853 34.0145C35.9677 33.9817 35.9266 33.908 35.8596 33.805L35.9015 33.784C35.4055 33.0277 35.2552 32.0626 35.671 31.1857ZM52.9373 43.2973C53.0717 43.3577 53.2234 43.4153 53.3983 43.444C53.2408 43.3892 53.0841 43.3528 52.9373 43.2763V43.2973Z" fill="#017BFF"/>
</g>
</svg>
