<svg width="25" height="24" viewBox="0 0 25 24" fill="none" xmlns="http://www.w3.org/2000/svg">
<path d="M17.25 20H22.25V18C22.25 16.3431 20.9069 15 19.25 15C18.2944 15 17.4431 15.4468 16.8938 16.1429M17.25 20H7.25M17.25 20V18C17.25 17.3438 17.1236 16.717 16.8938 16.1429M7.25 20H2.25V18C2.25 16.3431 3.59315 15 5.25 15C6.20561 15 7.05686 15.4468 7.60625 16.1429M7.25 20V18C7.25 17.3438 7.37642 16.717 7.60625 16.1429M7.60625 16.1429C8.3435 14.301 10.1448 13 12.25 13C14.3552 13 16.1565 14.301 16.8938 16.1429M15.25 7C15.25 8.65685 13.9069 10 12.25 10C10.5931 10 9.25 8.65685 9.25 7C9.25 5.34315 10.5931 4 12.25 4C13.9069 4 15.25 5.34315 15.25 7ZM21.25 10C21.25 11.1046 20.3546 12 19.25 12C18.1454 12 17.25 11.1046 17.25 10C17.25 8.89543 18.1454 8 19.25 8C20.3546 8 21.25 8.89543 21.25 10ZM7.25 10C7.25 11.1046 6.35457 12 5.25 12C4.14543 12 3.25 11.1046 3.25 10C3.25 8.89543 4.14543 8 5.25 8C6.35457 8 7.25 8.89543 7.25 10Z" stroke="#9BA5B7" stroke-width="2" stroke-linecap="round" stroke-linejoin="round"/>
</svg>
