<svg width="186" height="234" viewBox="0 0 186 234" fill="none" xmlns="http://www.w3.org/2000/svg">
<path opacity="0.4" d="M224.553 82.251C224.553 71.5147 223.375 61.0611 221.151 51.0078C220.213 51.0246 219.272 51.0371 218.329 51.0371C180.454 51.0371 145.729 37.4535 118.749 14.8887C91.7689 37.4524 57.0451 51.0347 19.1711 51.0347C18.2279 51.0347 17.2866 51.0234 16.3473 51.0066C14.1236 61.0601 12.9474 71.5144 12.9474 82.251C12.9474 148.585 57.7983 204.426 118.75 220.9C179.702 204.426 224.553 148.585 224.553 82.251ZM151.692 90.3227C154.122 87.8848 158.062 87.8848 160.492 90.3227C162.923 92.7607 162.923 96.7136 160.492 99.1516L110.703 149.094C108.273 151.531 104.333 151.531 101.902 149.094L77.0076 124.123C74.577 121.685 74.577 117.732 77.0076 115.294C79.438 112.856 83.3777 112.856 85.8082 115.294L106.303 135.851L151.692 90.3227ZM237 82.251C237 154.982 187.408 216.078 120.301 233.403C119.284 233.666 118.216 233.666 117.199 233.403C50.0924 216.078 0.5 154.982 0.5 82.251C0.500012 68.714 2.21924 55.5702 5.45464 43.0324L5.53 42.7666C6.36125 40.0441 8.93668 38.2173 11.795 38.3626C14.2374 38.4868 16.6968 38.5491 19.1711 38.5491C55.8366 38.5491 89.2698 24.7304 114.599 1.99106L114.824 1.79841C117.184 -0.128215 120.611 -0.0640711 122.9 1.99106C148.229 24.7312 181.663 38.5515 218.329 38.5515C220.803 38.5515 223.262 38.488 225.705 38.3638L225.981 38.3565C228.82 38.3373 231.328 40.2556 232.045 43.0349C235.28 55.5721 237 68.7147 237 82.251Z" fill="#6A88B6"/>
</svg>
