<svg width="184" height="195" viewBox="0 0 184 195" fill="none" xmlns="http://www.w3.org/2000/svg">
<path d="M90.1303 48.1079C90.1303 71.1941 71.3092 89.9091 48.0921 89.9091C24.875 89.9091 6.05388 71.1941 6.05388 48.1079C6.05388 25.0218 24.875 6.30675 48.0921 6.30675C71.3092 6.30675 90.1303 25.0218 90.1303 48.1079Z" fill="#FFDAD4"/>
<path d="M177.662 48.1079C177.662 71.1941 158.841 89.9091 135.624 89.9091C112.407 89.9091 93.5859 71.1941 93.5859 48.1079C93.5859 25.0218 112.407 6.30675 135.624 6.30675C158.841 6.30675 177.662 25.0218 177.662 48.1079Z" fill="#FFDAD4"/>
<path d="M53.6233 7.11215C65.2291 14.2374 65.7751 34.2864 54.8429 51.8927C43.9107 69.499 25.64 77.9956 14.0342 70.8703C2.42845 63.7451 1.88242 43.6961 12.8147 26.0898C23.7469 8.48344 42.0175 -0.0131287 53.6233 7.11215Z" fill="#EEF4FF"/>
<path d="M48.5729 8.13938C56.4219 2.9009 71.0204 10.8551 81.1796 25.9057C91.3387 40.9562 93.2115 57.4038 85.3626 62.6423C77.5136 67.8807 62.9151 59.9265 52.756 44.8759C42.5968 29.8254 40.724 13.3779 48.5729 8.13938Z" fill="#EEF4FF"/>
<path d="M129.99 6.10699C118.505 13.1577 117.818 32.7594 128.454 49.8885C139.089 67.0176 157.021 75.1877 168.506 68.137C179.99 61.0862 180.678 41.4846 170.042 24.3555C159.406 7.22635 141.474 -0.943771 129.99 6.10699Z" fill="#B7E1AD"/>
<path d="M134.297 5.34903C126.511 0.152758 111.964 8.14123 101.805 23.1918C91.6455 38.2423 89.7214 54.6556 97.5071 59.8519C105.293 65.0482 119.84 57.0597 129.999 42.0091C140.158 26.9586 142.082 10.5453 134.297 5.34903Z" fill="#B7E1AD"/>
<path d="M50.5463 0.0984188C50.8405 0.164051 51.099 0.31857 51.3711 0.426482C51.7887 0.435167 52.2094 0.368665 52.6248 0.459288C52.8249 0.50301 53.0207 0.571009 53.2187 0.623319C53.619 0.561023 54.0122 0.409371 54.4394 0.426482C55.1512 0.455197 55.806 0.601918 56.3859 0.852963C56.5771 0.858114 56.7796 0.823463 56.9798 0.852963C57.5022 0.930616 57.9769 1.07594 58.3984 1.27944C58.4418 1.284 58.4871 1.27394 58.5304 1.27944L59.9161 1.64031L60.543 1.86996L61.9616 2.55889C62.1009 2.59762 62.245 2.62752 62.3905 2.65731C62.7639 2.73311 63.1459 2.81703 63.5123 2.91976H63.4793C64.434 2.977 65.2917 3.33738 66.0857 3.83833C66.3456 3.85067 66.6125 3.78761 66.8775 3.83833L68.6591 4.52727L69.7148 5.38023C70.4516 5.53102 71.1243 5.83365 71.7603 6.29881C72.3023 6.50437 72.827 6.75614 73.311 7.08616C73.5151 7.22604 73.7309 7.37821 73.9378 7.51264C74.4126 7.82093 74.8569 8.16988 75.2575 8.56244C75.5167 8.81684 75.747 9.10728 75.9834 9.3826C76.0443 9.4269 76.087 9.48153 76.1153 9.51382L76.7752 10.0387L78.2268 10.8261L79.0846 11.515H79.0517C79.924 11.965 80.5987 12.6002 81.0972 13.4178L82.7138 14.7628L83.0437 15.1565C83.2793 15.3983 83.4679 15.6773 83.6706 15.9439C84.419 16.4604 84.9557 17.1311 85.3202 17.8794C85.669 18.2065 85.9225 18.6031 86.178 19.0276L86.409 19.2573C86.7863 19.5462 87.1314 19.8715 87.4317 20.2415L88.1905 21.4553L88.3225 21.8818C88.8837 22.3943 89.3412 23.0391 89.6422 23.8502C90.0182 24.3865 90.2653 24.9516 90.434 25.5561C90.613 25.7369 90.8031 25.9088 90.9619 26.1138L91.6547 27.2292L92.1166 28.6399C92.1248 28.6824 92.1094 28.7287 92.1166 28.7711C92.4216 29.2843 92.6341 29.8295 92.7435 30.4114C93.0369 30.902 93.271 31.4274 93.4033 32.0189C93.5615 32.3234 93.7328 32.6209 93.8652 32.9375L94.3931 35.0371L94.3601 36.0541L94.69 37.1039L94.822 37.9241C94.8274 37.9515 94.8418 37.9881 94.855 38.0225L95.3169 39.794L95.4158 40.6798C95.464 41.095 95.4561 41.5103 95.4488 41.9264C95.5276 42.2543 95.6209 42.5791 95.6798 42.9106C95.7363 43.2306 95.7242 43.5715 95.7458 43.8948C96.103 44.7827 96.1975 45.6791 96.0427 46.5521L96.2077 48.258C96.196 48.3781 96.1476 48.5314 96.1087 48.7173L96.0097 50.4232L95.9767 50.4561C96.0803 50.9751 96.1301 51.5209 96.0757 52.0964C96.0573 52.2864 96.0491 52.4932 96.0427 52.6869C96.0276 53.1451 95.9836 53.6119 95.9107 54.0648C95.8835 54.2358 95.8593 54.4176 95.8447 54.5896C95.7831 55.3062 95.5638 55.9655 95.2839 56.5908C95.2314 56.9872 95.1907 57.385 95.0859 57.7719C94.975 58.1799 94.8428 58.5914 94.69 58.9857C94.6703 59.0363 94.6391 59.1009 94.624 59.1497C94.6563 60.1135 94.4645 61.072 93.9642 61.9711C93.9522 62.0096 93.9699 62.0595 93.9642 62.0695L93.5023 63.2833C93.3596 64.0188 93.0456 64.6387 92.6445 65.2189C92.6099 65.6769 92.5961 66.1408 92.4795 66.5967C92.2805 67.3737 91.9226 68.1086 91.4568 68.762C91.216 69.0984 90.8823 69.3349 90.599 69.6149C90.3914 70.4543 90.0184 71.1513 89.4442 71.7801C89.2375 72.7547 88.8668 73.7463 88.0256 74.5359C87.9307 74.6246 87.8217 74.7094 87.7286 74.7983C87.3855 75.5261 86.9179 76.1308 86.277 76.6355C86.0679 77.1735 85.8185 77.7191 85.4192 78.2102C85.1551 78.5332 84.7723 78.7378 84.4624 78.9975C84.2961 79.3215 84.1855 79.6784 83.9675 79.9817C83.6374 80.4396 83.2622 80.8771 82.8458 81.2612C82.7164 81.3804 82.5692 81.4939 82.4499 81.622C81.9326 82.1767 81.3199 82.5397 80.7013 82.8359C80.5968 82.9511 80.5114 83.0839 80.4043 83.1967C80.336 83.2688 80.2419 83.3328 80.1734 83.4264C79.7577 83.9934 79.2661 84.5091 78.6887 84.9355C78.5456 85.0413 78.3944 85.148 78.2598 85.2635C77.6345 85.7992 76.9359 86.104 76.2473 86.3133C76.2197 86.3392 76.209 86.3859 76.1813 86.4117C75.6976 86.8631 75.1532 87.2529 74.5647 87.56C74.1488 87.9165 73.7002 88.2513 73.212 88.5113C73.0366 88.6045 72.8314 88.6294 72.6511 88.7082C72.0742 89.3411 71.3614 89.8847 70.4077 90.1845C70.3754 90.2018 70.3629 90.2432 70.3417 90.2501C70.3751 90.2401 70.4077 90.2278 70.4407 90.2173C70.1113 90.4037 69.7595 90.5787 69.4179 90.7422C69.3174 90.7908 69.2187 90.8453 69.121 90.9062C68.2519 91.4517 67.2885 91.6717 66.3496 91.7264V91.7592H66.2836C66.1255 91.8409 65.9801 91.9601 65.8217 92.0544C65.7374 92.1048 65.6548 92.1755 65.5578 92.2513C64.7511 92.8819 63.8093 93.1004 62.8854 93.2026C62.6311 93.3457 62.4043 93.582 62.1266 93.6947C61.356 94.0046 60.582 94.0525 59.8501 94.0228C59.2002 94.3988 58.4861 94.7339 57.6396 94.8101C57.3521 94.836 57.0675 94.8844 56.7818 94.9086C56.7187 94.9139 56.6451 94.894 56.5839 94.9086C56.13 95.0187 55.6624 95.0414 55.1982 95.0726C54.5673 95.2874 53.9221 95.3927 53.2516 95.4007C52.6715 95.563 52.0822 95.6855 51.4701 95.6959C50.9535 95.7046 50.4276 95.6718 49.9194 95.5975C49.6429 95.5571 49.3679 95.5052 49.0946 95.4663C48.9514 95.4459 48.8087 95.4231 48.6657 95.4007C48.3416 95.4857 48.016 95.6202 47.6759 95.6631C46.972 95.7505 46.3016 95.6549 45.6634 95.4991C45.3893 95.5493 45.1267 95.6805 44.8386 95.6959C44.174 95.7308 43.5308 95.6386 42.925 95.4663C42.414 95.491 41.8799 95.4878 41.3414 95.3351C41.051 95.2521 40.7972 95.0944 40.5496 94.9742C40.2292 94.9475 39.9387 94.8315 39.6258 94.7445C38.8927 94.8016 38.1161 94.7819 37.3493 94.5149C36.9247 94.3661 36.5458 94.1381 36.1616 93.9244C35.8643 93.8698 35.5632 93.8384 35.2708 93.7603C35.1223 93.7206 34.963 93.6894 34.8089 93.6619C34.6109 93.627 34.3897 93.5882 34.1821 93.5635C33.8896 93.5287 33.5847 93.5021 33.2913 93.4651C32.707 93.3907 32.1357 93.2397 31.5757 93.0386C30.9184 92.8019 30.3636 92.4494 29.8931 92.0544C29.0181 91.902 28.2735 91.5454 27.6166 91.0374C27.4565 90.9928 27.2803 90.9562 27.1217 90.9062C26.3667 90.6662 25.7242 90.2457 25.1422 89.758C24.6333 89.5407 24.1699 89.2844 23.7565 88.9378C23.0851 88.683 22.4299 88.3393 21.8759 87.8224C21.8238 87.774 21.7634 87.7363 21.711 87.6912C21.077 87.4523 20.4726 87.1251 19.9294 86.6742C19.2749 86.3544 18.6629 85.9611 18.1478 85.4276C17.83 85.0974 17.5268 84.7451 17.257 84.3778C16.8959 84.2004 16.5089 84.02 16.1683 83.7216C15.6572 83.2738 15.3039 82.754 15.0465 82.2453C14.9997 82.2037 14.9603 82.1571 14.9146 82.1141C14.0625 81.6837 13.2698 81.0952 12.7041 80.2442C12.6501 80.1628 12.5961 80.0792 12.5391 80.0145C12.2675 79.7059 12.0887 79.3398 11.8793 78.9975C11.6493 78.8226 11.4015 78.6674 11.1864 78.4726C10.7088 78.0399 10.3422 77.5443 10.0647 77.0291C9.46929 76.5544 8.94032 75.9327 8.58002 75.1264L7.8212 73.9125L8.15112 74.3062L7.85419 73.8797C7.38041 73.333 7.03681 72.7681 6.83143 72.141C6.45781 71.69 6.1597 71.1788 5.94064 70.5991C5.60592 70.1408 5.3117 69.703 5.14882 69.1884C4.87061 68.8566 4.63471 68.4785 4.42299 68.073C4.18877 67.6221 3.98717 67.1441 3.82913 66.6624C3.77524 66.4979 3.69641 66.3264 3.63117 66.1703C3.46602 65.7737 3.32268 65.3685 3.20227 64.9564C3.12271 64.6831 3.15055 64.3792 3.10329 64.1035C3.02148 63.9737 2.87841 63.8798 2.80636 63.7426L2.27849 62.2663C2.05218 61.8234 1.81382 61.3796 1.68462 60.8885C1.63269 60.6914 1.58217 60.4929 1.51966 60.2979C1.30502 59.6293 1.22029 58.9765 1.25572 58.3624C1.21396 58.2436 1.1243 58.1276 1.09076 58.0015C0.962907 57.5163 0.910527 57.0422 0.9258 56.5908C0.53366 55.7735 0.411568 54.9315 0.463907 54.0648C0.376049 53.792 0.259399 53.5283 0.199968 53.2446C0.0427933 52.4859 0.0705812 51.7272 0.199968 51.0138C0.13275 50.547 0.112269 50.0993 0.166976 49.6359C-0.0399355 48.7149 -0.0933021 47.7635 0.232961 46.8146L0.265953 46.7161C0.202426 46.2438 0.22883 45.7891 0.298945 45.3055C0.214778 44.9069 0.082068 44.5129 0.0679991 44.0916C0.0367444 43.132 0.327906 42.2974 0.694854 41.5656C0.651332 41.0108 0.658631 40.4934 0.793831 39.958C0.752551 39.5028 0.754879 39.0181 0.859815 38.5146C1.00256 37.8303 1.31923 37.2672 1.65163 36.7758C1.70659 36.567 1.74556 36.3568 1.81659 36.1525C1.67254 35.1359 1.74343 34.0343 2.27849 32.9703L2.31148 32.9047C2.48559 32.2963 2.72068 31.7085 3.03731 31.166L3.66416 30.1818C3.7509 29.9628 3.84299 29.7456 3.9281 29.5257L4.45598 28.5743C4.46838 28.4662 4.47821 28.3568 4.48897 28.2462L4.85189 26.6715C5.04784 26.1749 5.33007 25.702 5.6767 25.2608L6.13859 24.8015C6.27223 24.4053 6.49577 24.0521 6.73245 23.6861C6.90804 23.0677 7.22511 22.4403 7.68923 21.8818C7.98227 21.5318 8.28667 21.227 8.61302 20.996C8.64584 20.9394 8.71129 20.8881 8.74498 20.832C8.93089 20.5229 9.13486 20.2108 9.33885 19.9134C9.40878 19.8107 9.47405 19.7018 9.5368 19.5854C9.68083 19.3179 9.8502 19.0639 9.99869 18.798L10.7245 17.7482C10.9583 17.4781 11.2063 17.2209 11.4833 16.9937C11.7847 16.5826 12.1214 16.2198 12.5061 15.911C12.9298 15.2085 13.4944 14.6006 14.2547 14.1395C14.4725 13.7306 14.7016 13.3005 15.0465 12.9257C15.6641 12.255 16.4061 11.7713 17.191 11.4494C17.7425 10.7945 18.4053 10.2959 19.2036 9.97311C19.4513 9.65088 19.682 9.3055 19.9954 9.02173C20.3139 8.73423 20.6714 8.45478 21.0181 8.20157C21.3977 7.92508 21.7923 7.66993 22.2059 7.44703C22.3255 7.38265 22.4573 7.32617 22.5688 7.25019L23.8885 6.56126C24.0302 6.5103 24.1742 6.46976 24.3174 6.43003C24.4266 6.35246 24.5328 6.27043 24.6473 6.20039L25.736 5.70829C26.0679 5.49665 26.4107 5.30168 26.7588 5.11778C26.794 5.09919 26.8474 5.0842 26.8908 5.05217L28.4414 4.13359L29.2002 3.77272C29.4402 3.66162 29.6867 3.52562 29.9261 3.41185L31.3447 2.95256C31.6185 2.90039 31.8972 2.93396 32.1695 2.91976C32.5327 2.78581 32.8863 2.68241 33.2583 2.6245C33.2916 2.60115 33.3239 2.54961 33.3573 2.52608L34.545 1.90276C35.16 1.67945 35.7885 1.62573 36.3926 1.64031C36.7487 1.51009 37.1278 1.49589 37.5143 1.44348C38.2191 1.11909 38.977 0.879809 39.7908 0.852963L41.0775 0.88577C41.4167 0.840167 41.7586 0.837766 42.1002 0.820157C42.4996 0.686062 42.9041 0.540667 43.3209 0.459288C43.8639 0.353793 44.4176 0.295198 44.9706 0.295257C45.196 0.295388 45.4102 0.405241 45.6304 0.426482C46.3288 0.18621 47.0761 0.0308816 47.9069 0.131225C48.1704 0.0911701 48.4345 0.0315053 48.6987 0L50.5463 0.0984188ZM42.5291 94.8101C42.1125 94.9365 41.6698 94.8861 41.2424 94.9086C41.7092 94.9458 42.1532 94.9241 42.5291 94.8101ZM26.6928 90.2501C26.8727 90.4677 27.1251 90.6618 27.4186 90.8406C27.1808 90.6357 26.8914 90.492 26.6928 90.2501ZM51.1401 87.2975C51.0691 87.308 51.0044 87.3439 50.9422 87.3631C51.0169 87.3391 51.0919 87.3174 51.1673 87.2975H51.1401ZM49.0286 8.43121C48.6442 8.4934 48.258 8.4048 47.8739 8.39841C46.9586 8.75004 45.966 8.96292 44.8716 8.69366C44.838 8.70229 44.8112 8.7456 44.7726 8.75928C44.096 9.00587 43.3663 9.1601 42.6281 9.18576C42.4905 9.19024 42.3332 9.20044 42.1992 9.21856C41.6293 9.2951 41.0476 9.29028 40.4836 9.25137H40.4506C40.0345 9.4161 39.6096 9.51632 39.1639 9.57943C38.4811 9.91412 37.7896 10.0918 37.0854 10.1043C36.3504 10.5312 35.5654 10.7312 34.7429 10.7933C34.2139 10.997 33.6975 11.1424 33.1593 11.1869C33.0259 11.2496 32.8971 11.3219 32.7634 11.3838C32.5042 11.5037 32.2311 11.6256 31.9716 11.7446C31.5784 12.0392 31.1563 12.3007 30.7179 12.532C30.5734 12.6084 30.4273 12.7061 30.289 12.7944C29.8679 13.0623 29.3969 13.2106 28.9363 13.385C28.3358 13.8526 27.6982 14.1539 26.9897 14.3363C26.7352 14.4985 26.497 14.6852 26.2309 14.8284C26.1512 14.8714 26.0721 14.9398 26 14.9925C25.8943 15.0702 25.8027 15.165 25.703 15.2549C25.2373 15.9413 24.6397 16.564 23.8555 17.0265C23.6583 17.1427 23.4314 17.1935 23.2286 17.2889C22.879 17.7007 22.4857 18.088 22.0079 18.4043C21.7807 18.5546 21.5188 18.6423 21.2821 18.7652C20.8335 19.6105 20.2204 20.3815 19.2365 20.8976C18.9072 21.3934 18.5145 21.8085 18.0158 22.177C17.8039 22.463 17.5446 22.6856 17.29 22.9316C17.1781 23.1328 17.1018 23.353 16.9931 23.5549C16.7885 23.9347 16.5775 24.3142 16.3332 24.6703C16.2227 24.8314 16.1042 24.9943 16.0033 25.1624C15.9295 25.2857 15.8686 25.4235 15.8053 25.5561C15.45 26.2985 14.9268 26.85 14.3867 27.2948C14.3302 27.4051 14.2204 27.4831 14.1557 27.5901C13.9511 28.534 13.4732 29.3863 12.7701 30.0834L12.4071 31.5268C12.2593 31.885 12.0013 32.1839 11.7803 32.511L11.8133 32.5438C11.7086 32.8144 11.5903 33.0946 11.4833 33.364C11.2598 33.9238 10.9622 34.4522 10.6255 34.9387C10.5401 35.0625 10.437 35.1739 10.3616 35.2996C10.3007 35.5034 10.2061 35.692 10.1307 35.8901C10.1556 36.2842 10.2481 36.6882 10.1966 37.1039C10.1212 37.7091 9.98496 38.3024 9.76775 38.8754C9.67712 39.4233 9.49233 39.9299 9.27286 40.3845C9.25042 40.8412 9.1588 41.2849 9.00892 41.7296C9.02857 41.9865 9.15218 42.2511 9.14089 42.5169C9.10764 43.264 8.88541 43.9243 8.61302 44.5181C8.67646 45.0028 8.65106 45.4717 8.58002 45.9616C8.74807 46.8112 8.82707 47.6967 8.54703 48.5861C8.53583 48.6216 8.49238 48.649 8.48105 48.6845C8.57685 49.2764 8.60955 49.8836 8.51479 50.49C8.57429 50.9538 8.57802 51.4035 8.51404 51.8667C8.73804 52.4806 8.84801 53.0836 8.84396 53.7039C8.86157 53.7389 8.89257 53.7672 8.90995 53.8023C9.26458 54.5196 9.41811 55.2732 9.43782 56.0003C9.54985 56.2701 9.70319 56.5438 9.76775 56.8533C9.89383 57.462 9.84576 58.0357 9.76775 58.5592C9.78608 58.6259 9.81608 58.6892 9.83373 58.7561L10.3286 59.9371C10.8751 60.7241 11.2506 61.6031 11.3184 62.5944C11.3535 62.7149 11.403 62.8419 11.4504 62.9553C11.5838 63.2747 11.6695 63.6113 11.7803 63.9394C12.4531 64.6119 12.8826 65.4208 13.1 66.3015C13.2275 66.4882 13.3241 66.6897 13.4299 66.892C14.1185 67.5744 14.5671 68.397 14.7826 69.2869L15.3105 69.9758L15.4424 70.2054C15.5254 70.3206 15.5641 70.4805 15.6404 70.5991C15.9783 70.8223 16.3259 71.0775 16.6302 71.4193C16.9798 71.8147 17.229 72.2655 17.422 72.6987C18.0403 73.1866 18.5348 73.7807 18.9066 74.4703L19.3025 74.9952C19.6937 75.2282 20.0485 75.5198 20.3913 75.8481L21.8429 77.1604L21.8759 77.1932L23.5585 78.7023L24.0534 79.424L24.0864 79.4568C24.4529 79.6514 24.8116 79.8521 25.1422 80.1129C25.6837 80.3308 26.2454 80.5275 26.7258 80.9003C26.9192 81.0509 27.1017 81.2316 27.2867 81.3924C27.9168 81.6395 28.5146 81.9518 29.0235 82.3902L29.4972 82.5734C29.6873 82.6848 29.8493 82.8352 30.025 82.9671C30.081 82.9815 30.1332 83.0197 30.19 83.0327C30.9166 83.1988 31.547 83.5263 32.1036 83.9185C33.1882 84.0501 34.0321 84.5719 34.7429 85.1651C34.8934 85.1836 35.0547 85.2129 35.2048 85.2307C35.5597 85.2731 35.9107 85.3333 36.2606 85.3947C36.6563 85.4646 37.0604 85.5536 37.4483 85.6572C37.5586 85.6867 37.6959 85.7061 37.8112 85.7228C38.5503 85.832 39.2354 86.0747 39.8568 86.4117C40.3284 86.4059 40.781 86.4526 41.2424 86.5758C41.7756 86.5457 42.3298 86.61 42.8921 86.7726C43.1154 86.8377 43.3209 86.947 43.5189 87.0351C43.8901 87.051 44.2416 87.1693 44.6077 87.2647C45.3781 87.07 46.1381 87.0674 46.9171 87.2319C47.2607 87.129 47.6104 87.0409 47.9729 87.0023L49.5895 87.0679L50.2823 87.1663C50.5682 87.207 50.8803 87.2547 51.1694 87.297C51.6864 87.1611 52.2189 87.1174 52.7568 87.1007C53.3429 86.9138 53.9458 86.7938 54.5713 86.7726C55.0574 86.6547 55.5575 86.5524 56.056 86.5102L56.089 86.4774C56.5382 86.1935 57.0451 85.9528 57.6066 85.7884C58.2836 85.5915 58.96 85.5518 59.5862 85.5916C60.0828 85.3364 60.5696 85.1516 61.1038 85.0667C61.2235 84.9887 61.3437 84.9105 61.4667 84.837C61.7856 84.647 62.1275 84.4808 62.4565 84.3121C62.9431 84.063 63.4503 83.8425 63.9742 83.6888C64.3561 83.5769 64.7479 83.5405 65.1289 83.492C65.3347 83.3774 65.5429 83.266 65.7557 83.1639C65.9223 83.0842 66.0904 82.9922 66.2506 82.9015C66.461 82.7824 66.6921 82.7047 66.9105 82.6062C67.4917 81.9756 68.2042 81.4209 69.1511 81.1307C69.1627 81.1191 69.1746 81.1079 69.1869 81.0971C69.2402 81.0813 69.2975 81.0787 69.3519 81.0643C69.3324 81.0695 69.2892 81.0473 69.2529 81.0643L70.4077 80.277C70.5894 80.1072 70.7579 79.9246 70.9355 79.7521C71.6288 79.0786 72.4503 78.702 73.245 78.4726C73.3242 78.4102 73.3955 78.3367 73.476 78.2758C73.7066 77.9747 73.9728 77.6995 74.2348 77.4228C74.3769 77.273 74.5289 77.1207 74.6637 76.9635L75.9504 75.8481C76.1709 75.7102 76.4134 75.6244 76.6432 75.5201C76.7892 75.3742 76.9532 75.2335 77.1051 75.0936C77.4518 74.2826 77.9715 73.586 78.6557 73.0268C78.952 72.2531 79.405 71.5117 80.1074 70.8944L80.4043 70.6319C80.6507 70.1261 80.9834 69.6515 81.3941 69.2213C81.5155 68.7384 81.7174 68.2537 81.988 67.7778L82.8128 66.6624C82.8788 66.4498 82.8885 66.2164 82.9777 66.0062L83.7696 64.694C83.9357 64.4832 84.1433 64.3179 84.3304 64.1363C84.367 63.6843 84.4089 63.2114 84.5284 62.7584C84.7358 61.9803 85.1351 61.3294 85.5841 60.7572C85.6728 60.4444 85.6771 60.1079 85.8151 59.8058L85.9141 59.5106L86.31 58.592C86.3244 58.1722 86.2728 57.7414 86.376 57.3126L86.8049 55.9675C86.8539 55.841 86.9024 55.7003 86.9368 55.5738V55.4754L87.4317 53.8679C87.4642 53.486 87.5027 53.0982 87.5637 52.7197C87.5792 52.6217 87.5929 52.5248 87.5967 52.4244C87.603 52.2312 87.6169 52.0266 87.6297 51.8339C87.3624 50.8997 87.3325 49.9101 87.6297 48.947V48.0284C87.4051 47.2539 87.3982 46.4911 87.5307 45.7648C87.4366 45.3586 87.3663 44.9306 87.3657 44.4853V44.3869C87.3333 44.2033 87.279 44.0129 87.2338 43.8292C87.072 43.172 87.0074 42.5009 87.0358 41.828V41.6312C87.0116 41.4238 86.9956 41.2152 86.9698 41.0079L86.5409 39.4988C86.4959 39.2629 86.4536 39.0127 86.409 38.777L85.98 37.2679C85.9139 36.8062 85.9049 36.3433 85.9471 35.8901C85.9293 35.8551 85.9 35.8264 85.8811 35.7916C85.6236 35.3198 85.4925 34.7978 85.3532 34.2826C84.993 33.7313 84.7221 33.1775 84.5944 32.5438C84.2715 32.0063 84.0767 31.4486 83.9675 30.8379C83.664 30.499 83.3138 30.1695 83.0767 29.7553C82.8231 29.3098 82.7501 28.8127 82.6148 28.3446C82.4911 28.1693 82.3559 28.0053 82.2519 27.8197C81.5041 27.2106 80.9349 26.381 80.6353 25.3593C80.4926 25.2323 80.3425 25.1005 80.2064 24.9656C79.844 24.6055 79.5407 24.2083 79.2826 23.7846C78.7371 23.3366 78.3029 22.8101 77.9959 22.2099C77.6029 21.8605 77.2687 21.4299 76.9731 20.9632V20.996C76.735 20.7513 76.5011 20.5019 76.2803 20.2415C75.8976 19.9866 75.5278 19.7145 75.1916 19.3885C74.8942 19.0999 74.7245 18.7276 74.4987 18.4043C74.1684 18.2066 73.7762 18.0774 73.476 17.8138C73.3862 17.7352 73.2963 17.6571 73.2049 17.5808C72.5363 17.314 71.8956 16.9349 71.3314 16.4359C71.2252 16.3424 71.1149 16.256 71.0015 16.1735C70.4814 15.7954 70.0154 15.3413 69.6158 14.8612C69.5217 14.7489 69.4176 14.6301 69.3189 14.5332C69.0553 14.3619 68.7868 14.1862 68.5271 14.0083H68.4941C68.081 13.8412 67.6994 13.6323 67.3394 13.385C66.8447 13.2717 66.3367 13.1463 65.8547 12.8929C65.4643 12.6873 65.1619 12.3705 64.832 12.1055C64.282 12.0578 63.7176 11.9431 63.1494 11.7118C62.7879 11.5642 62.4829 11.32 62.1596 11.1213C61.8536 11.0726 61.5391 11.0753 61.2358 10.9901C61.0671 10.9426 60.8821 10.9271 60.7079 10.8917C60.3233 10.8135 59.9298 10.7047 59.5532 10.5964C58.8932 10.4052 58.2678 10.1282 57.7056 9.77627L57.8376 9.80908L57.7056 9.74347C57.4757 9.66409 57.2408 9.59971 57.0128 9.51382C56.5239 9.47264 56.0637 9.44841 55.6271 9.28418C55.3835 9.28685 55.1267 9.32099 54.8683 9.28418C54.4178 9.21945 54.0239 9.05136 53.6476 8.8905C52.8933 8.99164 52.1071 9.03799 51.3051 8.79208C51.1548 8.74556 50.9926 8.69427 50.8432 8.66086C50.2067 8.67941 49.6291 8.57937 49.0616 8.39841L49.0286 8.43121ZM42.7931 87.1007C42.4045 87.0896 42.0361 87.1478 41.7135 87.2423C42.0651 87.1444 42.4315 87.1349 42.7931 87.1007ZM39.3619 86.4445C39.027 86.4252 38.7235 86.4725 38.4711 86.543C38.7622 86.4611 39.0642 86.4767 39.3619 86.4445ZM69.1476 81.1344C69.111 81.1608 69.0858 81.201 69.055 81.2283C69.0873 81.1986 69.1166 81.1656 69.1476 81.1344ZM22.4038 78.2102C22.4947 78.4039 22.6069 78.5809 22.6857 78.7697C22.6162 78.5923 22.5253 78.4041 22.4038 78.2102ZM20.3375 76.6687C20.5316 76.7208 20.7205 76.8 20.9192 76.8651C20.7178 76.771 20.52 76.7128 20.3375 76.6687ZM90.8629 68.8604C90.8484 69.0202 90.7593 69.1644 90.7309 69.3197L90.7639 69.2869C90.8379 69.1128 90.8535 68.9548 90.8629 68.8604ZM86.277 58.7232C86.2184 58.9964 86.2162 59.2728 86.237 59.5298C86.2206 59.265 86.2732 58.9959 86.277 58.7232ZM1.59746 56.7517C1.52574 56.9695 1.48062 57.2374 1.45368 57.5422C1.51101 57.2716 1.51953 56.999 1.59746 56.7517ZM0.595877 52.8509C0.515963 53.1184 0.44506 53.459 0.463907 53.8351C0.465743 53.8688 0.493972 53.9002 0.4969 53.9335C0.528283 53.5707 0.489782 53.2042 0.595877 52.8509ZM0.199968 51.1778L0.397922 52.1292L0.232961 51.0794L0.199968 51.1778ZM93.4693 51.8011C92.9865 51.9843 92.5049 52.1116 92.0461 52.1275C92.5861 52.1116 93.0534 51.9647 93.4693 51.8011ZM94.69 50.981C94.5452 51.1074 94.382 51.1746 94.2281 51.2762C94.0696 51.3808 93.9574 51.5327 93.799 51.6201C93.9918 51.5234 94.1653 51.424 94.3271 51.309C94.468 51.2089 94.5726 51.0866 94.69 50.981ZM87.8936 48.7829L87.9266 48.8485C87.919 48.8291 87.9128 48.7947 87.8936 48.7501V48.7829ZM0.331938 47.1754L0.562884 48.1268L0.331938 47.077V47.1754ZM0.694854 42.1561L0.760838 42.6482L0.727846 42.1561C0.717206 42.102 0.736742 42.0462 0.727846 41.992L0.694854 42.1561ZM14.9372 25.4977C14.8862 25.8197 14.7496 26.1286 14.6506 26.4419C14.7965 26.1209 14.8941 25.797 14.9372 25.4977ZM54.5713 8.72647C54.6927 8.79294 54.8272 8.8351 54.9673 8.8905C54.8521 8.82665 54.7467 8.76517 54.6373 8.69366L54.5713 8.72647ZM53.9775 8.3328C54.1318 8.46675 54.3197 8.60433 54.5383 8.72647C54.5753 8.71981 54.6045 8.70157 54.6373 8.69366C54.427 8.5562 54.1647 8.49531 53.9775 8.3328ZM48.4018 8.16876C48.2685 8.23759 48.1463 8.30742 48.0059 8.3656H48.0389L48.4018 8.16876ZM52.9547 0.656126C52.6914 0.653339 52.4532 0.698958 52.236 0.757527C52.4678 0.702402 52.7125 0.704093 52.9547 0.656126Z" fill="#017BFF"/>
<path d="M134.312 0.164436C135.191 -0.0270134 136.058 0.0597184 136.885 0.262855C137.477 0.236185 138.04 0.317296 138.601 0.459693C139.178 0.327266 139.77 0.220223 140.382 0.230049L142.395 0.558111C142.553 0.607169 142.702 0.699024 142.857 0.754949C143.044 0.735458 143.23 0.700282 143.418 0.689337C144.645 0.619353 145.634 1.07029 146.453 1.60791C146.616 1.63375 146.786 1.63948 146.948 1.67353C146.982 1.68059 147.025 1.70415 147.08 1.70633C147.487 1.72256 147.897 1.75385 148.301 1.80475L150.643 2.55929L151.237 2.88736V2.92016C152.18 2.92381 153.122 3.20758 154.008 3.80593C154.823 3.92748 155.526 4.23517 156.153 4.6589C156.863 4.83602 157.528 5.14893 158.099 5.61028C158.831 5.86663 159.499 6.26706 160.079 6.85692C160.351 6.94707 160.637 7.04791 160.904 7.15217C161.713 7.47149 162.438 7.94806 163.048 8.56285C163.188 8.70407 163.314 8.87348 163.444 9.02213L164.203 9.3502L165.688 10.4328L166.677 11.5482C166.93 11.6672 167.201 11.7503 167.436 11.9091L168.789 13.1885L169.053 13.5166C169.307 13.7982 169.545 14.1031 169.779 14.4024C169.857 14.5033 169.961 14.6023 170.043 14.6976C170.447 14.9487 170.838 15.2246 171.197 15.5506C171.677 15.9886 172.044 16.5214 172.352 17.0597C172.516 17.1986 172.688 17.3419 172.847 17.4862C173.059 17.6784 173.261 17.8825 173.474 18.0767L174.694 19.5201L175.156 20.4059C175.386 20.6379 175.601 20.8825 175.816 21.1277C176.451 21.8537 176.759 22.6851 176.938 23.4897L177.4 24.1458L177.829 24.9332C178.074 25.3835 178.19 25.8667 178.324 26.3439C178.808 26.8583 179.138 27.4832 179.412 28.1482C180.039 28.8864 180.552 29.7486 180.699 30.8055C180.741 31.1058 180.793 31.4248 180.831 31.7241C180.838 31.7786 180.822 31.8356 180.831 31.8881C181.217 32.5127 181.467 33.1541 181.557 33.8893C181.695 34.1777 181.82 34.4687 181.92 34.7751C182.489 35.6555 182.688 36.5804 182.679 37.4652C182.747 37.6382 182.86 37.799 182.91 37.9901C183.103 38.734 183.025 39.4304 182.91 40.0569C183.002 40.3042 183.132 40.5576 183.206 40.8114C183.283 41.0721 183.359 41.3356 183.437 41.5988C183.632 42.2526 183.659 42.9255 183.635 43.6C183.815 44.3308 183.896 45.0778 183.8 45.8308C183.844 46.1281 183.864 46.4145 183.866 46.7166C183.978 47.1618 184.085 47.9013 183.899 48.7505C183.909 48.9476 184.006 49.1414 183.998 49.3411C183.976 49.9397 183.887 50.5403 183.734 51.1126C183.64 51.4632 183.555 51.818 183.437 52.1624C183.47 52.5429 183.499 52.9293 183.503 53.3106C183.505 53.4393 183.519 53.5936 183.536 53.7371C183.655 54.7422 183.373 55.6253 183.008 56.4272C183.064 57.2253 182.996 58.0352 182.745 58.8221C182.665 59.0711 182.589 59.3285 182.514 59.5766C182.426 60.6108 181.991 61.4449 181.458 62.1683C181.362 62.5367 181.356 62.932 181.194 63.2837C181.046 63.6041 180.846 63.9 180.666 64.2023C180.619 64.9382 180.404 65.6313 180.072 66.3019C179.966 67.0159 179.764 67.7337 179.379 68.4015C179.183 68.7427 178.923 69.0406 178.687 69.3529C178.519 69.8445 178.379 70.3471 178.093 70.7964C178.074 70.8258 178.042 70.8592 178.027 70.8948C177.719 71.6333 177.242 72.2376 176.707 72.7647C176.553 73.0884 176.448 73.4469 176.245 73.7489C176.078 73.9984 175.921 74.2569 175.75 74.5035C175.549 74.7931 175.339 75.0774 175.123 75.3564L175.09 75.3236C174.799 75.9297 174.393 76.4192 173.936 76.8655C173.622 77.5431 173.228 78.2123 172.616 78.7452C172.349 79.1258 172.057 79.4892 171.725 79.8181C171.397 80.1429 171.005 80.3961 170.636 80.6711C170.273 81.1318 169.923 81.5959 169.449 81.9505C169.295 82.0658 169.114 82.1397 168.954 82.2458C168.872 82.3835 168.809 82.537 168.723 82.6722C168.267 83.3901 167.67 84.0175 166.941 84.5094C166.589 84.8671 166.192 85.1951 165.786 85.4936C165.486 85.7144 165.177 85.9487 164.863 86.1497C164.451 86.4128 164.007 86.5885 163.576 86.7402C163.262 87.0241 162.902 87.2466 162.52 87.462C162.035 87.9286 161.52 88.3708 160.904 88.6758C160.786 88.7338 160.648 88.7714 160.541 88.8398C160.125 89.1042 159.697 89.312 159.254 89.4631C159.079 89.6344 158.959 89.8653 158.759 90.0209C158.275 90.3955 157.738 90.7182 157.175 90.9722C156.938 91.0789 156.685 91.1901 156.45 91.3003C155.875 91.5696 155.299 91.7245 154.734 91.7924C154.17 92.1124 153.541 92.3453 152.854 92.4485C152.612 92.4848 152.363 92.5368 152.128 92.5797C151.477 93.0715 150.72 93.4765 149.831 93.6327C149.352 93.8465 148.85 94.0116 148.334 94.1216L148.301 94.1544C147.947 94.3042 147.575 94.4239 147.212 94.5481C146.354 94.841 145.47 94.9564 144.605 94.8762L144.572 94.8434C143.945 95.0801 143.292 95.2527 142.593 95.2699H142.692C141.773 95.5038 140.885 95.4249 140.052 95.237C139.211 95.6448 138.255 95.912 137.215 95.8604C136.721 95.8355 136.262 95.7286 135.829 95.5979C135.099 95.6833 134.341 95.6398 133.587 95.3931L132.332 95.237C132.304 95.2305 132.272 95.2374 132.241 95.2393C132.279 95.2477 132.315 95.2697 132.332 95.2699H132.233C131.549 95.3839 130.826 95.3932 130.122 95.3027C129.651 95.2416 129.21 95.0897 128.769 94.9418C128.549 94.9423 128.329 94.9451 128.109 94.9418C127.546 94.9332 126.98 94.8665 126.427 94.7449C126.114 94.6757 125.781 94.5932 125.47 94.5153C124.94 94.3823 124.412 94.2168 123.919 93.9904L123.853 93.9576C123.644 93.9638 123.435 93.9885 123.226 93.9904C122.445 93.9976 121.645 93.8726 120.884 93.5967C120.367 93.409 119.913 93.1348 119.498 92.8422C119.039 92.7379 118.613 92.545 118.179 92.3173C117.579 92.1919 116.984 92.0515 116.43 91.7596C116.296 91.6889 116.139 91.6197 116.001 91.5627C115.436 91.3273 114.948 91.0063 114.516 90.6442C113.98 90.4687 113.452 90.2346 112.966 89.8896C112.748 89.7337 112.525 89.5504 112.306 89.3975C112.229 89.3439 112.15 89.2889 112.075 89.2335C111.175 89.0625 110.234 88.7265 109.436 87.9541C109.105 87.6342 108.8 87.2934 108.512 86.937C108.482 86.9004 108.44 86.8681 108.413 86.8386C107.845 86.5476 107.358 86.1799 106.928 85.7232C105.928 85.4224 104.922 84.8925 104.19 83.8861C104.143 83.8221 104.103 83.754 104.058 83.6892C103.678 83.4617 103.3 83.1931 102.969 82.8363C102.714 82.5611 102.546 82.2416 102.375 81.9505C102.191 81.8168 101.955 81.7449 101.781 81.5896C101.299 81.1575 100.937 80.6415 100.627 80.1133C100.184 79.7382 99.829 79.3308 99.5379 78.8339C99.2125 78.552 98.9367 78.2339 98.6801 77.8825C97.8659 77.2737 97.2309 76.4989 96.8985 75.5861C96.7479 75.4162 96.5728 75.2457 96.4366 75.0612C96.1589 74.6837 95.901 74.2916 95.6778 73.8802H95.6448C95.4412 73.6513 95.25 73.4142 95.0839 73.1584L94.3581 71.7149C93.9072 71.2584 93.4919 70.7192 93.2034 70.0746C93.0812 69.8017 92.9575 69.5295 92.8404 69.2545C92.6837 68.8861 92.5793 68.4886 92.4775 68.1063C92.0102 67.6155 91.5657 67.025 91.3228 66.2691C91.2383 66.0059 91.261 65.7334 91.2238 65.4817C90.4534 64.458 90.2132 63.3091 90.267 62.1683C90.2259 62.0897 90.1519 62.0207 90.1021 61.9387C89.699 61.2743 89.425 60.5262 89.2773 59.7407C89.1856 59.2506 89.1516 58.758 89.1453 58.2644C88.7753 57.6044 88.4515 56.8786 88.3865 56.0335C88.3674 55.783 88.3441 55.5282 88.3205 55.279C88.2908 54.9666 88.3169 54.6394 88.3205 54.3276C88.0567 53.5647 87.8968 52.7479 87.9906 51.8999L88.0236 51.4735C88.0272 51.1207 88.0842 50.7732 88.1225 50.4237C88.0442 50.0254 87.9457 49.618 87.9246 49.2098C87.9068 48.8632 87.8918 48.5076 87.8916 48.16C87.8915 47.856 87.886 47.545 87.8916 47.2415L87.9246 47.4383V47.2415C87.8305 46.77 87.7669 46.3025 87.7926 45.8308L88.0236 44.5841C88.0403 44.2918 88.069 43.9897 88.0895 43.6984L88.4525 41.8284C88.4652 41.6061 88.483 41.3922 88.5184 41.1723C88.3876 40.4447 88.3413 39.6715 88.5184 38.8759L88.8814 37.5964L89.2443 36.9403C89.2479 36.4454 89.2718 35.9399 89.4092 35.4312L89.9041 34.3486C89.9177 34.1301 89.9167 33.9104 89.9371 33.6925L90.267 32.249C90.355 32.0045 90.5098 31.7916 90.63 31.56C90.7489 30.8912 90.942 30.2373 91.2898 29.6245L91.9167 28.6075C92.0226 28.451 92.1331 28.2988 92.2466 28.1482C92.2758 28.0052 92.3126 27.8639 92.3456 27.7217L93.1704 25.8846C93.3466 25.6321 93.5855 25.443 93.7972 25.2284C93.8698 24.8574 93.8818 24.4519 94.0282 24.0802L95.2159 22.1446L96.0737 21.2261C96.2644 20.9259 96.4996 20.6711 96.7335 20.4059C97.0829 19.7038 97.5919 19.1461 98.1522 18.6672C98.4521 18.1485 98.8059 17.6884 99.2739 17.2893C99.434 16.8925 99.6134 16.4987 99.8678 16.1411L101.286 14.7304C101.71 14.0481 102.246 13.5078 102.87 13.1229C103.258 12.5908 103.791 12.1306 104.421 11.7451L105.213 11.2858C105.636 10.8556 106.126 10.5117 106.664 10.236C106.808 10.0965 106.948 9.94906 107.093 9.80948C107.624 9.29778 108.25 8.92163 108.908 8.62846C109.194 8.38962 109.475 8.151 109.799 7.97233C110.44 7.25565 111.281 6.72406 112.24 6.46324C112.882 5.84604 113.705 5.42539 114.615 5.2166C115.304 4.58334 116.156 4.0594 117.222 3.87155C117.661 3.55771 118.158 3.28117 118.739 3.117C118.869 3.08048 119.009 3.10937 119.135 3.0842C119.74 2.68131 120.444 2.34834 121.28 2.23123L121.379 2.19843L123.094 1.93598C123.161 1.93548 123.226 1.96701 123.292 1.96878C123.639 1.83995 124.008 1.80037 124.381 1.73914C125.099 1.39049 125.843 1.21991 126.658 1.21424C127.457 0.774961 128.368 0.572361 129.33 0.623724C129.94 0.449255 130.577 0.323011 131.244 0.361274L132.332 0.590918C132.52 0.559795 132.705 0.521101 132.893 0.492499C133.027 0.472099 133.179 0.430598 133.322 0.39408C133.649 0.310322 133.982 0.236458 134.312 0.164436ZM112.504 89.2991C112.773 89.3759 113.027 89.3682 113.234 89.3655C112.973 89.361 112.714 89.2996 112.438 89.2663L112.504 89.2991ZM135.566 8.46443C135.52 8.47576 135.479 8.51839 135.434 8.53004C135.021 8.63568 134.601 8.72853 134.18 8.79249C133.938 8.82921 133.694 8.84899 133.454 8.89091C132.593 9.04151 131.74 8.98579 130.947 8.79249C130.588 8.88359 130.253 9.00748 129.891 9.02213C129.274 9.30523 128.591 9.52784 127.812 9.54703C127.659 9.55068 127.503 9.5174 127.35 9.51423C126.983 9.66876 126.6 9.76562 126.196 9.84229C125.35 10.2672 124.483 10.3451 123.622 10.3016C123.237 10.6099 122.774 10.8931 122.237 11.0889C121.939 11.1968 121.633 11.2061 121.346 11.253C120.891 11.5251 120.382 11.7058 119.828 11.8435C119.441 12.2063 119.002 12.5646 118.475 12.8277C118.187 12.9709 117.878 13.0304 117.585 13.1229C117.155 13.517 116.666 13.8825 116.067 14.1399C115.872 14.223 115.636 14.2082 115.44 14.2711C115.078 14.6099 114.658 14.8571 114.186 15.0913C113.756 15.4805 113.285 15.7912 112.768 16.0427C112.636 16.1699 112.503 16.3092 112.372 16.4364C111.989 16.8065 111.5 16.9997 111.052 17.2565C110.608 17.7555 110.116 18.1575 109.535 18.4703C109.289 18.8495 108.996 19.2256 108.611 19.5529C108.382 19.7474 108.124 19.8725 107.885 20.0122C107.64 20.3329 107.381 20.6543 107.06 20.9308C106.919 21.0524 106.745 21.1437 106.598 21.2589C106.436 21.5758 106.359 21.944 106.136 22.2431C105.877 22.5909 105.493 22.8151 105.18 23.096L105.213 23.0632C104.927 23.3229 104.708 23.6465 104.388 23.8506C104.673 23.669 104.974 23.4169 105.213 23.096C104.882 23.7346 104.421 24.2439 103.86 24.7035C103.573 25.1501 103.323 25.6164 102.936 25.983C102.631 26.4654 102.324 26.9395 101.913 27.328C101.807 28.0804 101.591 28.8607 101.122 29.5917C100.934 29.8817 100.616 30.0696 100.396 30.3134C100.207 31.312 99.8056 32.2371 99.142 33.0035C99.0603 33.0973 98.9731 33.2069 98.911 33.2988C98.8529 33.385 98.7997 33.4736 98.7461 33.5612C98.6521 34.0069 98.5143 34.4264 98.3172 34.8407C98.3112 34.9335 98.3211 35.0428 98.3172 35.1359C98.2781 36.0041 97.9945 36.8103 97.5913 37.5636C97.5978 38.552 97.3812 39.4892 96.8325 40.3521C96.9342 41.1185 96.9882 41.9302 96.7335 42.747C96.7056 43.3123 96.6628 43.8707 96.4941 44.4089C96.4843 44.6193 96.4815 44.8361 96.4696 45.0434C96.4457 45.4609 96.2984 45.8591 96.2057 46.2573C96.2572 46.6369 96.3447 47.016 96.3376 47.4055C96.3331 47.6566 96.3375 47.9083 96.3376 48.16C96.3377 48.3675 96.3601 48.5778 96.3706 48.7834V48.849C96.5638 49.6369 96.6131 50.4451 96.5026 51.2438C96.4876 51.3503 96.4705 51.4755 96.4696 51.5719C96.4675 51.7692 96.448 51.9656 96.4366 52.1624C96.6654 52.864 96.8003 53.6173 96.7335 54.3932V54.6885C96.8235 54.8446 96.954 54.98 97.0305 55.1478L97.4924 56.7553L97.5254 58.0019C97.6623 58.246 97.834 58.4708 97.9543 58.7237L98.5481 60.4952V61.2169C99.0944 61.9198 99.3815 62.6813 99.5049 63.4478L99.9008 64.0383L100.627 65.941V65.9738C100.659 66.0506 100.692 66.127 100.726 66.2035C101.342 66.791 101.884 67.4972 102.177 68.4015C102.219 68.5309 102.265 68.6665 102.309 68.7952L103.134 69.8778L103.233 70.0746V70.1074C103.805 70.6105 104.223 71.1861 104.52 71.8134C104.82 72.0948 105.041 72.4439 105.279 72.7975C105.753 73.194 106.131 73.6331 106.433 74.1426C106.844 74.4772 107.159 74.8751 107.456 75.3236C108.227 75.7461 108.81 76.3079 109.238 76.964C109.625 77.2345 109.916 77.6005 110.227 77.9809L111.547 78.6371L112.438 79.5228C112.647 79.6197 112.867 79.6986 113.065 79.8181L114.088 80.6054L114.615 81.196C115.031 81.2945 115.46 81.4047 115.869 81.6224L116.859 82.3114L117.156 82.541C117.31 82.6491 117.463 82.7597 117.618 82.8691C118.34 83.0851 118.946 83.4394 119.498 83.9189C119.719 84.0151 119.943 84.106 120.158 84.2141C120.618 84.3051 121.05 84.4812 121.478 84.6734C122.308 84.7672 123.021 85.1192 123.688 85.5592C123.754 85.557 123.82 85.562 123.886 85.5592L126.196 85.8544L127.482 86.3465L127.548 86.3793L128.241 86.5434C128.483 86.547 128.725 86.5457 128.967 86.5434C129.72 86.5357 130.455 86.6897 131.145 86.937C131.563 86.8822 132.003 86.8669 132.431 86.8714C133.027 86.879 133.615 86.9476 134.187 87.0865C134.396 87.117 134.6 87.1764 134.807 87.1995C135.717 86.9542 136.649 86.9826 137.512 87.2323C137.6 87.2006 137.686 87.1631 137.776 87.1339L140.02 86.8058L141.306 87.0355C141.461 87.0105 141.612 86.9857 141.768 86.9699C142.453 86.675 143.2 86.4744 143.979 86.445L144.803 86.4778C144.863 86.4541 144.942 86.4374 145.001 86.4122C145.428 86.2319 145.87 86.096 146.321 85.9857C146.725 85.7798 147.144 85.6064 147.575 85.4936C148.085 85.1135 148.697 84.8064 149.389 84.6078L150.61 84.3126C150.664 84.3027 150.721 84.2893 150.775 84.2797C151.582 83.7386 152.499 83.4969 153.414 83.4596L153.546 83.394L153.48 83.4596H153.513L153.546 83.394L153.612 83.3612C154.309 82.5047 155.21 81.8326 156.351 81.5568C156.606 81.4065 156.877 81.2616 157.143 81.1303C157.443 80.8708 157.754 80.6446 158.099 80.4414C158.433 80.0834 158.72 79.6997 159.122 79.4572L160.277 79.0635C160.439 78.9601 160.618 78.8814 160.772 78.7683C160.818 78.7342 160.861 78.6802 160.904 78.6371C161.15 78.387 161.42 78.1649 161.695 77.9481C161.748 77.8596 161.811 77.7774 161.86 77.6857L162.85 76.3734C163.227 75.9938 163.653 75.6558 164.137 75.3892C164.217 75.3453 164.305 75.3043 164.368 75.258C164.736 74.8002 165.113 74.359 165.589 74.0114L165.754 73.8474C165.972 73.5206 166.273 73.2694 166.545 72.9948L166.578 72.9616C166.848 72.3411 167.224 71.807 167.733 71.3213C167.937 70.945 168.161 70.5811 168.426 70.2387L168.789 69.7138C168.933 69.5067 169.077 69.3 169.218 69.0904C169.505 68.3523 169.941 67.7237 170.471 67.1877C170.586 66.9548 170.7 66.7215 170.834 66.4987C171.051 65.7484 171.365 65.0186 171.857 64.3991C171.951 63.9458 172.111 63.5126 172.319 63.0869C172.357 62.7498 172.404 62.4058 172.484 62.0699C172.661 61.3281 172.967 60.6337 173.375 60.0031L173.475 59.8275C173.616 59.0678 173.902 58.4103 174.299 57.8379C174.345 57.6098 174.362 57.3741 174.43 57.149L174.595 56.5584C174.585 56.3958 174.571 56.2281 174.562 56.0663C174.512 55.1532 174.723 54.3311 175.057 53.6059C175.056 53.5435 175.058 53.4715 175.057 53.409C175.055 53.2348 175.039 53.0605 175.024 52.8841C174.984 52.4018 174.994 51.8938 175.024 51.4079L175.42 49.4723L175.552 49.013C175.49 48.6936 175.38 48.2289 175.42 47.7007C175.43 47.5842 175.481 47.4081 175.519 47.2086C175.52 47.0433 175.512 46.8854 175.511 46.7441C175.468 46.3987 175.493 46.0514 175.486 45.6996C175.289 45.0598 175.24 44.3969 175.255 43.7312C175.2 43.5447 175.145 43.3588 175.09 43.1735C175.059 43.0655 175.007 42.9267 174.958 42.8126C174.682 42.1657 174.499 41.4635 174.43 40.7458C174.4 40.4183 174.441 40.1022 174.463 39.7944C174.388 39.5895 174.249 39.3997 174.2 39.1711C174.095 38.6853 174.099 38.2233 174.134 37.7932L174.002 37.5308C173.654 36.9308 173.446 36.3002 173.342 35.6608C173.045 35.1679 172.788 34.6268 172.649 34.0205C172.559 33.6248 172.504 33.2094 172.451 32.8067C172.206 32.4692 172.026 32.0947 171.857 31.6913C171.581 31.3668 171.29 31.0482 171.065 30.6743C170.73 30.1154 170.556 29.5076 170.405 28.9027V28.9355L170.043 28.2466L170.174 28.4106L170.043 28.2138C169.433 27.5219 169.073 26.761 168.888 25.983L167.634 24.113H167.601C167.448 23.9734 167.292 23.825 167.139 23.6865C166.99 23.5513 166.835 23.4207 166.677 23.2929C166.074 22.8052 165.618 22.2023 165.259 21.5541C164.754 21.2305 164.255 20.8692 163.84 20.4059L162.751 19.1265C162.657 19.0221 162.578 18.9058 162.487 18.7984C161.927 18.5212 161.379 18.1683 160.904 17.683C160.589 17.3615 160.286 17.0211 160.013 16.666C159.994 16.6417 159.973 16.6216 159.953 16.6034L160.013 16.6332C160.08 16.6711 160.147 16.69 160.178 16.6988C160.098 16.6769 160.029 16.628 159.951 16.6019C159.938 16.5899 159.925 16.5788 159.914 16.5676C158.877 16.2227 157.977 15.6308 157.307 14.7632H157.274C156.559 14.541 155.878 14.1999 155.262 13.7462C155.123 13.6437 154.997 13.528 154.866 13.4182C154.311 13.25 153.812 12.971 153.348 12.6308C152.735 12.4497 152.141 12.2095 151.633 11.8107C151.484 11.7704 151.319 11.7612 151.171 11.7122C150.857 11.6078 150.565 11.4654 150.28 11.3186C149.54 11.2763 148.76 11.1193 148.004 10.6953C147.816 10.5894 147.603 10.4639 147.41 10.3672C147.243 10.2834 147.08 10.1929 146.915 10.1047C146.86 10.1009 146.805 10.107 146.75 10.1047C146.234 10.0842 145.71 10.0148 145.199 9.9079C145.133 9.89392 145.045 9.87968 144.968 9.8751C144.05 9.81863 143.276 9.51184 142.626 9.12055C141.805 9.13176 140.987 9.04074 140.217 8.69407C140.186 8.67993 140.149 8.6411 140.118 8.62846C139.676 8.72122 139.228 8.83888 138.766 8.8581C138.193 8.88145 137.656 8.71836 137.116 8.59565C136.581 8.63446 136.071 8.5629 135.566 8.46443ZM100.891 80.343L101.015 80.4314C100.952 80.3786 100.889 80.3266 100.825 80.2774L100.891 80.343ZM112.537 79.6213C112.76 79.8533 113.026 80.0346 113.218 80.283C113.032 80.032 112.808 79.8035 112.537 79.6213ZM99.208 78.2762C99.2695 78.3873 99.3228 78.5247 99.4059 78.6371L99.4719 78.7027C99.4 78.5713 99.3346 78.447 99.2739 78.309L99.208 78.2762ZM98.9585 77.7302C99.0131 77.8929 99.1082 78.0592 99.208 78.2434L99.2739 78.309C99.1863 78.1097 99.032 77.9373 98.9585 77.7302ZM107.725 76.2001C107.998 76.3057 108.246 76.4722 108.512 76.6031C108.253 76.4345 108.002 76.2942 107.753 76.2094L107.725 76.2001ZM166.478 73.1519C166.326 73.4239 166.252 73.6972 166.201 73.9271C166.264 73.6582 166.369 73.4061 166.478 73.1519ZM173.469 59.8603C173.446 59.9185 173.425 59.9773 173.408 60.0359H173.441C173.449 59.9768 173.459 59.9183 173.469 59.8603ZM182.811 56.7881C182.63 57.1144 182.516 57.4661 182.283 57.7395C182.451 57.5413 182.666 57.2469 182.811 56.8537V56.7881ZM181.59 51.6047C181.498 51.6495 181.416 51.6994 181.326 51.7359C181.426 51.6936 181.525 51.6553 181.623 51.6047H181.59ZM175.651 48.3241C175.656 48.3595 175.647 48.3939 175.651 48.4225C175.668 48.5309 175.682 48.6303 175.696 48.7176C175.68 48.5833 175.676 48.4496 175.651 48.3241ZM183.767 47.3727C183.812 47.5549 183.803 47.7445 183.833 47.9304C183.828 47.7651 183.843 47.6393 183.833 47.5695C183.821 47.4868 183.777 47.418 183.767 47.3727ZM183.866 46.7494C183.866 46.9534 183.943 47.1578 183.935 47.3628C183.938 47.3095 183.939 47.2234 183.932 47.1102C183.927 47.0229 183.894 46.8948 183.866 46.7494ZM175.552 47.0118V46.979C175.547 46.9563 175.542 46.9335 175.538 46.9108C175.543 46.945 175.548 46.9788 175.552 47.0118ZM177.532 44.3545C177.446 44.4082 177.353 44.4557 177.268 44.5185C177.132 44.6195 177.021 44.7703 176.905 44.8794C177.115 44.691 177.298 44.4936 177.532 44.3545ZM179.334 43.7524C179.013 43.7867 178.633 43.8669 178.225 44.0264C178.591 43.8902 178.961 43.7931 179.334 43.7524ZM174.43 38.4494C174.47 38.5781 174.543 38.6908 174.595 38.8102V38.7774C174.534 38.67 174.486 38.5611 174.43 38.4494ZM181.557 34.0205C181.588 34.3468 181.721 34.6681 181.689 35.0047C181.717 34.6992 181.653 34.3661 181.557 34.0205ZM165.49 21.751L165.589 21.8166L165.457 21.6854L165.49 21.751ZM159.951 16.6019L159.953 16.6034L159.947 16.6004L159.951 16.6019ZM102.507 13.8775C102.315 14.1605 102.184 14.4454 102.098 14.7045C102.197 14.4193 102.363 14.1576 102.507 13.8775ZM118.541 3.6419C118.358 3.76966 118.203 3.90353 118.07 4.03744C118.215 3.89973 118.386 3.78385 118.541 3.6419ZM146.816 1.90317C146.947 2.00664 147.092 2.0774 147.215 2.17662C147.119 2.08759 147.02 1.98025 146.882 1.90317H146.816Z" fill="#017BFF"/>
<path d="M51.7336 76.4508C51.7336 77.9793 50.4875 79.2184 48.9503 79.2184C47.4131 79.2184 46.1669 77.9793 46.1669 76.4508C46.1669 74.9222 47.4131 73.6831 48.9503 73.6831C50.4875 73.6831 51.7336 74.9222 51.7336 76.4508Z" fill="#017BFF"/>
<path d="M69.4005 73.5881C69.4005 75.1167 68.1543 76.3558 66.6171 76.3558C65.0799 76.3558 63.8338 75.1167 63.8338 73.5881C63.8338 72.0596 65.0799 70.8205 66.6171 70.8205C68.1543 70.8205 69.4005 72.0596 69.4005 73.5881Z" fill="#017BFF"/>
<path d="M130.246 76.4508C130.246 77.9793 131.493 79.2184 133.03 79.2184C134.567 79.2184 135.813 77.9793 135.813 76.4508C135.813 74.9222 134.567 73.6831 133.03 73.6831C131.493 73.6831 130.246 74.9222 130.246 76.4508Z" fill="#017BFF"/>
<path d="M112.591 73.5881C112.591 75.1167 113.837 76.3558 115.374 76.3558C116.911 76.3558 118.158 75.1167 118.158 73.5881C118.158 72.0596 116.911 70.8205 115.374 70.8205C113.837 70.8205 112.591 72.0596 112.591 73.5881Z" fill="#017BFF"/>
<path d="M54.071 26.1337C54.8336 23.7249 57.4066 22.3768 59.8296 23.1275C61.9202 23.7819 63.0959 25.7674 62.9249 27.8516L63.0329 27.8874L63.2848 28.8179C63.3511 29.4085 63.3308 30.0259 63.2128 30.6431C63.1444 31.0007 63.078 31.3611 62.9969 31.7167C62.9555 31.8983 62.8857 32.0728 62.8529 32.2536C62.9066 32.8102 62.8991 33.3531 62.8169 33.8998C62.9109 34.4968 62.9098 35.0648 62.8169 35.6535C62.9615 36.3881 62.9486 37.1041 62.7809 37.8724C63.0191 38.6488 63.0547 39.4408 62.9249 40.306C63.0312 41.3266 62.762 42.2357 62.421 43.0617C62.5609 43.9659 62.4616 44.8372 62.1331 45.7459C62.0802 46.4053 61.9171 47.0141 61.6652 47.6069C61.6329 48.4411 61.4953 49.312 61.0533 50.1479C60.8664 50.5009 60.5995 50.7952 60.3695 51.1142C60.0985 52.0658 59.6601 52.9229 58.9634 53.6252L58.6059 54.5141C58.56 54.6312 58.5005 54.7616 58.4619 54.9078C58.0967 56.2949 57.2324 57.3861 56.1225 58.1646C56.104 58.2084 56.1044 58.261 56.0865 58.3077C55.7043 59.3073 55.0058 60.0324 54.2509 60.634C53.9546 61.1403 53.6182 61.6368 53.1712 62.0655C52.9107 62.3149 52.5918 62.4966 52.3074 62.7097C52.1483 62.9766 52.0255 63.2802 51.8395 63.5329C51.542 63.9361 51.2159 64.3166 50.8677 64.6781C50.4792 65.0802 50.0205 65.3997 49.572 65.6802C49.4501 65.8682 49.3871 66.1084 49.2481 66.2886C48.8651 66.7838 48.4343 67.2409 47.9524 67.6486C47.3872 68.1255 46.7397 68.4106 46.1168 68.6506C45.6953 69.1876 45.2596 69.7444 44.6772 70.1538C44.4504 70.3132 44.2173 70.4921 43.9933 70.6548C43.7048 70.8642 43.3893 71.0641 43.0935 71.2632C42.5518 71.6262 41.9627 71.8706 41.3659 72.0864C41.1682 72.2331 40.965 72.3529 40.7541 72.48C40.3932 72.9095 40.0266 73.3403 39.5663 73.6969C38.9551 74.169 38.273 74.5712 37.5508 74.8421C37.094 75.0128 36.6153 75.0747 36.1471 75.1642C35.9442 75.2794 35.7402 75.4098 35.5353 75.5221C35.0661 75.7785 34.5625 76.0181 34.0596 76.2021C33.818 76.2897 33.5507 76.2815 33.3038 76.3452C32.806 76.7087 32.2181 77.0565 31.5042 77.2399C31.1085 77.3408 30.7211 77.3003 30.3525 77.3115C30.1156 77.4281 29.9274 77.6496 29.6686 77.741C28.6429 78.1031 27.6584 78.0776 26.7533 77.9199C26.4354 78.0442 26.1091 78.1791 25.7815 78.2778C24.9831 78.5166 24.2112 78.5364 23.4781 78.4567C22.9493 78.6212 22.3872 78.803 21.7865 78.8146C21.5567 78.8187 21.3301 78.7559 21.1026 78.743C20.3342 79.0267 19.5031 79.2486 18.5832 79.1725C18.2133 79.1413 17.8584 78.9996 17.5035 78.922C15.5904 79.1353 13.6817 78.2119 12.8245 76.381C12.7419 76.2041 12.775 75.9894 12.7166 75.8084L12.6446 75.8442L12.6086 75.8084L12.3926 75.1284V74.3768C12.3954 73.0355 13.0119 72.1089 13.5444 71.478C13.6059 71.4072 13.6582 71.3305 13.7243 71.2632C13.8889 71.0899 13.9914 70.9018 14.1202 70.798C14.6964 70.3388 15.2586 70.0936 15.4879 70.0106C15.9879 69.83 16.4588 69.786 16.6397 69.7601H18.3313C18.4985 69.7863 18.653 69.8335 18.7992 69.8675C19.4643 69.6513 20.1678 69.5696 20.9227 69.6169C21.8906 69.1935 22.9377 69.0365 23.946 69.1875C24.3066 69.0504 24.6853 68.9633 25.0617 68.8654L27.1492 68.6864C27.5789 68.4751 28.0653 68.3152 28.5889 68.2212C28.71 68.1997 28.8303 68.1983 28.9488 68.1854C29.5164 67.8764 30.1701 67.6774 30.8924 67.577C30.9655 67.5502 31.0387 67.5169 31.1083 67.5054L31.7921 67.1117L33.0878 66.5033C33.4062 66.3989 33.7361 66.346 34.0596 66.2886C34.6009 65.6727 35.2518 65.1366 36.0392 64.7497C36.6558 64.2443 37.3242 63.8295 38.0547 63.5687C38.2192 63.4562 38.3973 63.3636 38.5586 63.2466C38.7226 63.1274 38.8973 63.0063 39.0625 62.8887C39.2927 62.5692 39.5555 62.2547 39.8183 61.9582L41.4379 60.6698C41.6657 60.5484 41.9234 60.5085 42.1577 60.4193C42.6605 59.4979 43.3529 58.7619 44.2453 58.2361C44.2894 58.186 44.3845 58.1483 44.4252 58.093L44.4612 58.0214L45.433 56.5541C45.7975 56.1522 46.2302 55.8142 46.6927 55.5162C47.0286 54.9505 47.3935 54.4524 47.8804 54.0489C47.9306 53.944 48.0073 53.8304 48.0604 53.7268L49.536 51.7584L49.8959 51.4363C49.9269 51.3518 49.971 51.2697 50.0039 51.1858C50.1313 50.8607 50.2636 50.5387 50.3998 50.2195C50.6165 49.7124 50.8961 49.2184 51.1916 48.7521L51.8035 48.0006C51.9831 47.4133 52.2399 46.8675 52.5953 46.3543C52.6453 45.774 52.8233 45.2367 53.0632 44.6722C53.1119 44.2312 53.1809 43.798 53.3151 43.3838C53.2834 43.1115 53.1704 42.8452 53.1712 42.5607C53.1751 41.6315 53.4041 40.7882 53.747 40.0555C53.7555 39.9491 53.7334 39.8389 53.747 39.7334C53.5859 39.1407 53.5359 38.481 53.5671 37.8008C53.5854 37.4163 53.7073 37.0568 53.783 36.6914C53.6728 36.0956 53.6563 35.5161 53.747 34.9019C53.6222 34.2083 53.623 33.5062 53.747 32.7904C53.6833 32.1449 53.6388 31.4989 53.747 30.8578L53.999 29.6768C54.0151 29.606 54.0196 29.5329 54.035 29.4621C53.8513 28.5545 53.8084 27.718 53.855 27.1358L53.891 26.6347L54.071 26.1337ZM28.157 68.8296C28.1018 68.8632 28.0283 68.8663 27.977 68.9012H28.049C28.0824 68.8734 28.1227 68.8568 28.157 68.8296ZM58.9572 53.6313C58.921 53.6677 58.8839 53.7035 58.8462 53.7391C58.8794 53.7104 58.9233 53.6791 58.9572 53.6313ZM62.2051 43.4912C62.0687 43.7578 61.9996 44.0562 61.8442 44.2983C61.9782 44.0975 62.1048 43.8213 62.2051 43.4912ZM54.035 33.4704C53.8963 33.7926 53.8004 34.1992 53.783 34.6514V34.7588C53.8576 34.3342 53.8559 33.8863 54.035 33.4704Z" fill="#017BFF"/>
<path d="M54.2847 47.474C55.3759 45.1897 58.1416 44.2076 60.4392 45.2909V45.3267L61.627 45.8635L62.3468 46.9372C62.6864 47.4563 63.0278 48.1692 63.3186 48.9055C63.5079 49.065 63.7604 49.1516 63.9304 49.335L65.0102 50.9813L65.2261 51.4823C65.3359 51.5901 65.4468 51.6902 65.55 51.8044C66.1656 52.169 66.696 52.6492 67.1697 53.2002C67.3362 53.3171 67.5002 53.4506 67.6736 53.5581C67.8034 53.6382 67.9362 53.7078 68.0695 53.7728C68.7031 54.0819 69.2329 54.5216 69.7251 54.9896C70.0157 55.1285 70.3313 55.205 70.5889 55.3833L71.8126 55.7412L72.8923 56.3138C73.3355 56.3989 73.7798 56.484 74.2092 56.6391C74.7577 56.7218 75.2824 56.8934 75.7717 57.1011L77.1753 57.8885L77.2833 57.9601C77.3834 58.0106 77.4748 58.0685 77.5713 58.1032C77.8675 58.2088 78.1737 58.3172 78.471 58.4253C78.7327 58.5205 79.0045 58.6076 79.2629 58.7116C79.635 58.7348 80.0076 58.7552 80.3786 58.819C80.7733 58.8874 81.1772 58.9769 81.5663 59.0695C81.7115 59.1042 81.8571 59.1702 81.9982 59.2127C82.4743 59.1294 82.9853 59.1102 83.5099 59.1411C84.06 59.1737 84.6001 59.267 85.1295 59.3916C85.6434 59.379 86.1359 59.3537 86.6051 59.4632C87.2185 59.2963 87.8651 59.2104 88.5127 59.1769L90.3123 59.3558C90.9733 59.5309 91.8568 59.9705 92.6517 60.8232C92.7688 60.9351 92.9081 61.0228 93.0117 61.1453L93.0477 61.2168L93.1196 61.2884L93.2276 61.4674H93.1916C94.1263 62.7723 94.3933 64.4971 93.6595 66.0483C92.7257 68.0032 90.5883 68.9148 88.5487 68.4819L88.4407 68.5177C87.2148 68.9499 86.021 68.79 84.9135 68.4462C84.3671 68.4638 83.8305 68.4512 83.2939 68.3388C82.0611 68.6651 80.7247 68.6061 79.4428 67.9809L78.795 67.8377C78.747 67.8303 78.6879 67.8386 78.615 67.8377C77.7229 67.8273 76.8387 67.6197 75.9876 67.2651C75.7678 67.1735 75.5269 67.0957 75.3038 67.0146C75.0284 66.9145 74.75 66.8259 74.476 66.7283C73.9997 66.5586 73.5218 66.348 73.0723 66.1199C72.7376 65.9494 72.4455 65.7159 72.1365 65.5115C71.7432 65.4194 71.3284 65.3723 70.9488 65.2252C70.0878 65.0924 69.2813 64.7841 68.5374 64.3305C67.2884 64.2149 66.1403 63.7374 65.2261 62.8631C64.6811 62.5942 64.1901 62.278 63.7505 61.861C63.4255 61.6938 63.0894 61.5168 62.7787 61.3242C62.4408 61.1145 62.0955 60.9095 61.7709 60.68C61.2804 60.3329 60.8987 59.8754 60.5112 59.4274C59.9139 59.0508 59.3849 58.5918 58.9276 58.0316C58.0667 57.3678 57.4141 56.521 56.984 55.5622C56.9622 55.5132 56.9698 55.4322 56.948 55.3833C56.4017 54.923 55.8874 54.4033 55.5084 53.737L54.8245 52.3055C54.7943 52.2493 54.7237 52.1236 54.6086 51.9476L54.6806 51.9118C53.8287 50.62 53.5705 48.9716 54.2847 47.474ZM83.9418 68.1598C84.1726 68.263 84.4332 68.3615 84.7336 68.4104C84.463 68.3168 84.1938 68.2546 83.9418 68.1241V68.1598Z" fill="#017BFF"/>
<path d="M118.091 25.7734C119.056 23.4325 121.783 22.3087 124.137 23.2682C125.713 23.9188 126.631 25.3467 126.836 26.9187L126.944 26.8829C126.961 27.0021 126.893 27.1403 126.908 27.2765C126.915 27.4092 126.914 27.5365 126.908 27.6702C126.956 28.2979 127.064 29.0324 126.908 29.7818L126.765 31.2849C127.137 32.312 127.38 33.4685 127.016 34.7206C126.981 34.8436 126.911 34.9563 126.872 35.0785C126.912 35.3169 126.995 35.5512 127.016 35.7943C127.108 36.8316 126.847 37.7951 126.477 38.6931C126.464 38.8085 126.48 38.9343 126.477 39.051C126.466 39.3927 126.459 39.7477 126.441 40.0889C126.407 40.6731 126.3 41.2432 126.153 41.8067C126.286 42.4241 126.358 43.1057 126.225 43.8467C126.1 44.5341 125.846 45.1297 125.541 45.6361C125.511 45.823 125.509 46.0232 125.469 46.2088C125.413 46.4682 125.339 46.7331 125.289 46.9961C125.227 47.3173 125.176 47.6413 125.109 47.9624C124.972 48.617 124.749 49.2556 124.461 49.8592L124.425 49.9666C124.286 50.4765 124.098 50.9853 123.885 51.4697C123.821 51.6159 123.758 51.7774 123.705 51.9349C123.568 52.3472 123.409 52.752 123.237 53.1518C122.887 53.9676 122.343 54.6503 121.726 55.2633L121.762 55.2991C121.254 56.091 120.553 56.6562 119.818 57.1243C119.298 58.0102 118.605 58.8129 117.659 59.379C117.548 59.4446 117.433 59.5193 117.335 59.5937C117.081 59.7875 116.799 59.9746 116.543 60.1663C115.964 60.6006 115.332 60.8643 114.707 61.0611C114.573 61.1883 114.492 61.3711 114.347 61.4905C113.788 61.9502 113.176 62.3406 112.512 62.6358C112.281 62.7381 112.053 62.8487 111.828 62.9579C111.493 63.1205 111.131 63.2506 110.784 63.3873C110.752 63.4145 110.715 63.4562 110.676 63.4947C110.011 64.1593 109.222 64.7169 108.301 65.0694C107.877 65.231 107.442 65.3773 107.005 65.4988C106.921 65.5221 106.827 65.5377 106.753 65.5704C106.174 65.8267 105.571 66.014 104.954 66.143C104.808 66.1733 104.658 66.208 104.522 66.2504C103.651 66.7633 102.693 67.0816 101.678 67.1451C101.546 67.1537 101.429 67.1966 101.318 67.2167L101.282 67.1809C100.593 67.4726 99.8843 67.7189 99.1229 67.7893C98.8169 67.8171 98.4928 67.8327 98.1871 67.8609C97.7569 67.9002 97.3433 67.7851 96.9274 67.7535C96.1733 68.1031 95.3758 68.2604 94.552 68.2904C94.3601 68.3728 94.1709 68.4652 93.9761 68.5409C93.0049 68.9181 91.3476 69.2147 89.6211 68.3619C89.694 68.3906 89.8256 68.3875 89.981 68.4335C89.4298 68.2693 88.8936 68.0791 88.4334 67.7177L86.6698 66.4651V64.1031C86.6718 63.4734 86.8247 62.6506 87.3177 61.8126C87.3569 61.746 87.4201 61.6969 87.4616 61.6337C87.556 61.4914 87.6746 61.3721 87.7856 61.24C88.1066 60.8545 88.4215 60.5116 88.7933 60.2737L88.9013 60.2021H88.9373C89.0368 60.1432 89.1259 60.0725 89.2252 60.0232C89.8206 59.7293 90.3919 59.6011 90.8448 59.5579H91.8166C92.4094 59.3469 93.0201 59.2599 93.6522 59.2358C93.9503 59.1153 94.2412 58.9712 94.552 58.8779C95.4975 58.5948 96.4575 58.5659 97.3593 58.699C97.622 58.6748 97.8882 58.6871 98.1511 58.6632C98.6307 58.4776 99.1125 58.2929 99.6268 58.198C99.9253 58.1429 100.226 58.0875 100.527 58.0548C100.909 57.8608 101.298 57.6499 101.714 57.518L103.01 57.1959C103.498 56.9796 104.008 56.8018 104.522 56.659C104.562 56.6479 104.59 56.5995 104.63 56.5875C104.87 56.3736 105.123 56.172 105.385 55.9791L107.329 54.9412L108.481 54.3686C109.283 53.3559 110.372 52.7249 111.54 52.436C111.591 52.3974 111.669 52.3672 111.72 52.3286C111.924 52.1733 112.119 52.0058 112.332 51.8634C112.5 51.61 112.675 51.352 112.872 51.1118L113.951 50.0739C114.125 49.9405 114.309 49.8299 114.491 49.716C114.614 49.5616 114.719 49.3955 114.851 49.2508C114.878 49.1788 114.935 49.1086 114.959 49.0361C115.1 48.613 115.248 48.1916 115.427 47.7835C115.459 47.7114 115.514 47.6453 115.535 47.5687L116.075 46.1014C116.132 45.8285 116.203 45.5507 116.255 45.2782C116.319 44.9468 116.364 44.6047 116.435 44.2762C116.445 44.2274 116.468 44.158 116.471 44.0972L116.939 42.1646C116.917 41.7285 116.89 41.2733 116.975 40.8047L117.263 39.5163C117.276 39.2689 117.291 39.0124 117.299 38.7647C117.313 38.3092 117.347 37.8566 117.407 37.4047L117.731 36.1521C117.529 35.2371 117.571 34.3077 117.803 33.3964C117.615 32.7758 117.511 32.0915 117.551 31.3565C117.583 30.7639 117.663 30.1734 117.803 29.6028V28.2786C117.799 28.2425 117.81 28.1879 117.803 28.1355L117.623 26.9187L118.091 25.7734ZM90.449 68.5767C90.554 68.5962 90.656 68.6712 90.7729 68.684C90.9107 68.6991 91.2677 68.6972 91.7446 68.6482C91.3043 68.6931 90.8793 68.6562 90.449 68.5767ZM93.4363 68.1114C93.2258 68.2248 93.0077 68.2841 92.7884 68.3619C92.9552 68.3033 93.1544 68.3046 93.3283 68.2188C93.3715 68.1974 93.3929 68.1346 93.4363 68.1114Z" fill="#017BFF"/>
<path d="M119.654 45.6762C121.007 43.5384 123.835 42.9019 125.988 44.2446L126.888 44.7815L127.464 45.6762C127.817 46.2334 128.201 46.896 128.472 47.5372V47.573C128.869 47.8982 129.169 48.3084 129.479 48.754L130.883 50.114C131.114 50.3253 131.348 50.5345 131.567 50.7582C131.973 50.988 132.335 51.2752 132.683 51.5813C133.41 51.8901 134.016 52.3349 134.518 52.8697C135.023 53.1066 135.482 53.4489 135.922 53.836L137.685 54.5518L139.233 55.6612C139.503 55.9012 139.742 56.1867 139.989 56.4486C140.363 56.6614 140.714 56.8912 141.033 57.1643C141.106 57.1855 141.176 57.2151 141.249 57.2359C141.709 57.3675 142.159 57.5499 142.58 57.7728L143.768 58.5601L144.02 58.7748C144.066 58.8037 144.115 58.8248 144.164 58.8464C144.538 59.0067 144.917 59.1993 145.28 59.3832C145.352 59.4196 145.452 59.4279 145.532 59.4548C145.859 59.5651 146.18 59.6937 146.503 59.8127C146.951 59.9775 147.36 60.2203 147.763 60.4569C148.104 60.534 148.437 60.6442 148.771 60.7432C148.797 60.7509 148.839 60.774 148.879 60.779C149.838 60.887 150.695 61.2642 151.47 61.7453C151.777 61.8307 152.09 61.8696 152.37 61.9958L153.486 62.0674L155.825 62.819L155.969 62.8905C156.503 62.8929 157.061 62.9435 157.625 63.1053L157.697 63.1411C158.871 63.2528 159.934 63.6751 160.828 64.3221L160.9 64.3579C161.117 64.387 161.332 64.4268 161.548 64.4652C161.755 64.5021 161.956 64.5594 162.16 64.6084C162.743 64.5301 163.371 64.537 164.031 64.68C164.369 64.7532 164.673 64.8787 164.967 65.0021C165.51 64.9068 166.089 64.8742 166.695 64.9305C167.785 65.0326 168.685 65.4637 169.43 65.9684H169.466C169.724 65.8794 170.008 65.7324 170.33 65.6821C170.768 65.6143 172.176 65.4509 173.605 66.362C174.873 67.1731 175.303 68.347 175.513 69.2967C175.588 69.5821 175.674 69.8572 175.693 70.1556C175.694 70.1928 175.729 70.2277 175.729 70.263V70.7998L175.693 70.943L175.621 70.9072C175.588 71.2083 175.644 71.5378 175.549 71.8377C174.946 73.7173 173.212 74.8695 171.338 74.9513C170.859 75.0674 170.368 75.1628 169.862 75.166C169.369 75.1692 168.877 75.1136 168.386 75.0587C168.013 75.0168 167.641 74.9737 167.271 74.9155C166.586 74.8081 165.975 74.5889 165.435 74.3071C164.911 74.3808 164.356 74.4126 163.779 74.3429C163.099 74.2605 162.497 74.0332 161.944 73.7703C161.353 73.759 160.725 73.7324 160.108 73.5198C160.047 73.4994 159.987 73.4946 159.928 73.484C159.756 73.4533 159.566 73.4285 159.388 73.4124C158.389 73.3198 157.447 72.997 156.617 72.5177C156.369 72.3746 156.135 72.2104 155.897 72.0524C154.574 72.2535 153.205 72.0235 151.974 71.1935C150.757 71.2911 149.548 71.0436 148.483 70.3346C147.993 70.1849 147.544 69.9779 147.115 69.7262C146.792 69.6649 146.461 69.6413 146.144 69.5472C145.971 69.4959 145.787 69.4428 145.604 69.4041C144.721 69.2174 143.922 68.8288 143.192 68.3304C142.994 68.2584 142.782 68.2194 142.58 68.1515C142.081 67.9837 141.575 67.7808 141.105 67.5431C140.92 67.4494 140.72 67.3388 140.529 67.2568C140.02 67.0387 139.52 66.8014 139.053 66.5052C138.773 66.3269 138.525 66.0976 138.261 65.8968C138.085 65.845 137.898 65.807 137.721 65.7536C136.741 65.4556 135.907 64.909 135.202 64.2147C134.507 63.8314 133.88 63.3647 133.366 62.7832C133.284 62.6898 133.194 62.6052 133.115 62.5326C132.563 62.3647 132.015 62.1675 131.495 61.8884C131.136 61.6947 130.844 61.38 130.523 61.1369C129.532 60.8123 128.728 60.278 128.112 59.5622C127.568 59.2703 127.081 58.8888 126.636 58.4169C126.079 58.0837 125.507 57.7524 125.052 57.2717C124.918 57.1298 124.798 56.9719 124.656 56.8422C124.259 56.4791 123.901 56.0851 123.577 55.6612C123.075 55.2729 122.674 54.8104 122.317 54.3013C121.389 53.6398 120.551 52.7955 120.158 51.5813C120.098 51.3975 120.04 51.2297 119.978 51.0803C120.001 51.1359 120.001 51.1145 119.942 51.0087C119.885 50.9078 119.778 50.775 119.654 50.5792L119.69 50.5434C118.768 49.0991 118.679 47.2219 119.654 45.6762ZM122.533 54.516L123.541 55.1244L122.497 54.4086L122.533 54.516Z" fill="#017BFF"/>
<path d="M102.681 106.621C102.681 109.706 100.182 112.207 97.0999 112.207C94.0173 112.207 91.5184 109.706 91.5184 106.621C91.5184 103.536 94.0173 101.035 97.0999 101.035C100.182 101.035 102.681 103.536 102.681 106.621Z" fill="white"/>
<path d="M106.778 98.074C109.157 100.439 110.518 103.631 110.572 106.976C110.627 110.32 109.371 113.555 107.071 115.996L106.778 116.296L100.67 122.369C99.8948 123.139 98.8542 123.587 97.759 123.623C96.6639 123.659 95.5959 123.28 94.7715 122.562L94.5642 122.369L88.4543 116.295C86.0244 113.879 84.6592 110.601 84.6592 107.184C84.6592 103.767 86.0244 100.49 88.4543 98.074C90.8842 95.6578 94.1799 94.3004 97.6163 94.3004C101.053 94.3004 104.348 95.6578 106.778 98.074ZM97.6163 102.89C97.0491 102.89 96.4875 103.001 95.9635 103.217C95.4395 103.432 94.9634 103.749 94.5623 104.148C94.1613 104.546 93.8431 105.02 93.6261 105.541C93.409 106.062 93.2973 106.62 93.2973 107.184C93.2973 107.748 93.409 108.307 93.6261 108.828C93.8431 109.349 94.1613 109.822 94.5623 110.221C94.9634 110.62 95.4395 110.936 95.9635 111.152C96.4875 111.368 97.0491 111.479 97.6163 111.479C98.7618 111.479 99.8603 111.027 100.67 110.221C101.48 109.416 101.935 108.323 101.935 107.184C101.935 106.045 101.48 104.953 100.67 104.148C99.8603 103.342 98.7618 102.89 97.6163 102.89Z" fill="#017BFF"/>
<path d="M42.8109 102.982C42.8109 101.295 44.186 99.928 45.8822 99.928C47.5784 99.928 48.9535 101.295 48.9535 102.982C48.9535 103.995 49.2733 105.481 49.5368 106.549C49.6643 107.066 49.8509 107.383 50.9482 109.293C51.5727 110.379 53.1451 111.72 54.2621 112.275C55.7792 113.03 56.3941 114.864 55.6356 116.373C54.877 117.881 53.0322 118.493 51.5151 117.738C49.5607 116.767 46.9651 114.672 45.6151 112.323C44.7379 110.797 43.9567 109.567 43.5712 108.004C43.3218 106.993 42.8109 104.832 42.8109 102.982Z" fill="#D9D9D9"/>
<path d="M57.4986 117.723C58.3224 116.248 60.1922 115.717 61.675 116.536C62.0385 116.737 62.719 117.087 63.4305 117.419C64.1973 117.776 64.7762 118.006 65.0226 118.073C65.5248 118.209 66.4992 118.463 67.4196 118.68C67.8815 118.789 68.3055 118.883 68.6388 118.948C68.9663 119.012 69.06 119.018 69.0111 119.017C70.6639 119.066 71.9886 120.414 71.9886 122.069C71.9886 123.756 70.6136 125.123 68.9174 125.123C68.4022 125.123 67.799 125.009 67.4563 124.942C67.0098 124.855 66.4979 124.741 66.0002 124.623C65.001 124.387 63.9598 124.116 63.4063 123.966C62.5969 123.746 61.5922 123.308 60.8234 122.949C59.9992 122.565 59.192 122.152 58.6918 121.876C57.209 121.056 56.6749 119.197 57.4986 117.723Z" fill="#D9D9D9"/>
<path d="M83.4488 120.259C85.145 120.259 86.5201 121.626 86.5201 123.313C86.5201 125 85.145 126.367 83.4488 126.367H80.3387C78.6425 126.367 77.2674 125 77.2674 123.313C77.2674 121.626 78.6425 120.259 80.3387 120.259H83.4488Z" fill="#D9D9D9"/>
<path d="M136.739 173.427C129.363 171.763 122.544 166.647 118.267 161.469C113.68 166.708 107.171 171.331 101.034 172.995C99.8564 173.303 98.4306 173.488 97.1289 173.242C95.7031 172.934 94.3394 172.132 93.7815 170.222C92.8517 167.263 94.4634 165.167 97.5008 163.996C104.443 161.407 113.06 155.736 113.06 149.449V147.785C113.06 143.532 115.787 142.423 118.391 142.423C120.994 142.423 123.722 143.532 123.722 147.785V149.573C123.722 155.736 130.417 161.839 138.227 164.119C141.388 165.044 143.186 167.016 142.504 170.037C142.132 171.639 141.203 172.687 139.653 173.242C138.723 173.55 137.731 173.673 136.739 173.427ZM139.591 194.261H96.509C91.9838 194.261 90.8681 192.227 90.8681 190.069C90.8681 187.542 91.9838 185.755 96.509 185.755H113.06V175.769C113.06 171.639 115.415 170.406 118.081 170.406C120.684 170.406 123.102 171.516 123.102 175.769V185.755H139.591C144.116 185.755 145.232 187.542 145.232 190.069C145.232 192.227 144.116 194.261 139.591 194.261Z" fill="#017BFF"/>
<path d="M41.6982 193.891C40.2724 193.952 38.6607 193.521 37.6689 191.856C35.9952 189.206 37.049 186.802 39.7145 184.891C46.4093 180.207 48.8888 174.289 48.8888 167.324V147.477C48.8888 143.224 51.4303 142.114 54.0338 142.114C56.6373 142.114 59.1788 143.224 59.1788 147.477V167.324C59.1788 174.289 61.6584 179.775 68.3531 184.46C71.0186 186.371 72.0724 188.775 70.3987 191.425C69.4689 192.843 68.1671 193.521 66.6794 193.582C65.7496 193.582 64.7578 193.459 63.828 192.781C59.8607 190.007 56.7613 186.432 54.3438 182.487C52.1122 186.679 49.1367 190.315 45.4174 192.719C44.3017 193.397 43.0619 193.829 41.6982 193.891ZM83.1683 195C80.3788 195 78.1472 193.706 78.1472 189.576V147.477C78.1472 143.347 80.5028 142.114 83.1683 142.114C85.7718 142.114 88.1893 143.224 88.1893 147.477V189.576C88.1893 193.829 85.8338 195 83.1683 195Z" fill="#017BFF"/>
</svg>
