<svg width="78" height="30" viewBox="0 0 78 30" fill="none" xmlns="http://www.w3.org/2000/svg">
<path d="M21.0631 11.421C21.0631 16.9017 16.6646 21.3447 11.2389 21.3447C5.81319 21.3447 1.41477 16.9017 1.41477 11.421C1.41477 5.94026 5.81319 1.49725 11.2389 1.49725C16.6646 1.49725 21.0631 5.94026 21.0631 11.421Z" fill="#FFDAD4"/>
<path d="M41.5189 11.421C41.5189 16.9017 37.1205 21.3447 31.6948 21.3447C26.269 21.3447 21.8706 16.9017 21.8706 11.421C21.8706 5.94026 26.269 1.49725 31.6948 1.49725C37.1205 1.49725 41.5189 5.94026 41.5189 11.421Z" fill="#FFDAD4"/>
<path d="M12.5315 1.68845C15.2438 3.38002 15.3714 8.13971 12.8166 12.3195C10.2617 16.4993 5.99196 18.5164 3.27974 16.8249C0.567518 15.1333 0.439914 10.3736 2.99473 6.19381C5.54954 2.014 9.81932 -0.00311697 12.5315 1.68845Z" fill="#EEF4FF"/>
<path d="M11.3513 1.93232C13.1856 0.688684 16.5972 2.57705 18.9713 6.15011C21.3455 9.72316 21.7831 13.6279 19.9489 14.8715C18.1146 16.1151 14.703 14.2268 12.3288 10.6537C9.95469 7.08066 9.51702 3.17596 11.3513 1.93232Z" fill="#EEF4FF"/>
<path d="M30.3781 1.44982C27.6942 3.1237 27.5335 7.7772 30.019 11.8437C32.5046 15.9102 36.6952 17.8498 39.3791 16.176C42.0629 14.5021 42.2237 9.84859 39.7381 5.78207C37.2526 1.71556 33.0619 -0.224055 30.3781 1.44982Z" fill="#B7E1AD"/>
<path d="M31.3846 1.26988C29.5651 0.0362653 26.1655 1.93276 23.7913 5.50581C21.4171 9.07887 20.9675 12.9754 22.787 14.2091C24.6065 15.4427 28.0061 13.5462 30.3802 9.97312C32.7544 6.40007 33.204 2.50349 31.3846 1.26988Z" fill="#B7E1AD"/>
<path d="M11.8124 0.023365C11.8812 0.0389464 11.9416 0.0756296 12.0052 0.101248C12.1028 0.10331 12.2011 0.0875225 12.2982 0.109037C12.345 0.119416 12.3907 0.13556 12.437 0.147978C12.5305 0.133189 12.6224 0.0971861 12.7222 0.101248C12.8886 0.108065 13.0416 0.142898 13.1771 0.202497C13.2218 0.203719 13.2691 0.195493 13.3159 0.202497C13.438 0.220932 13.549 0.255431 13.6475 0.303745C13.6576 0.304827 13.6682 0.302437 13.6783 0.303745L14.0021 0.389417L14.1486 0.443935L14.4802 0.60749C14.5127 0.616684 14.5464 0.623782 14.5804 0.630855C14.6676 0.648851 14.7569 0.668774 14.8425 0.693161H14.8348C15.0579 0.706751 15.2584 0.792307 15.4439 0.911235C15.5047 0.914163 15.567 0.899192 15.629 0.911235L16.0453 1.07479L16.2921 1.27729C16.4642 1.31308 16.6214 1.38493 16.7701 1.49536C16.8967 1.54416 17.0193 1.60393 17.1325 1.68228C17.1802 1.71549 17.2306 1.75161 17.279 1.78353C17.3899 1.85672 17.4937 1.93956 17.5874 2.03275C17.6479 2.09315 17.7017 2.1621 17.757 2.22746C17.7712 2.23798 17.7812 2.25095 17.7878 2.25862L17.942 2.38323L18.2813 2.57015L18.4817 2.7337H18.474C18.6779 2.84055 18.8356 2.99134 18.9521 3.18543L19.3299 3.50475L19.407 3.59821C19.462 3.65561 19.5061 3.72184 19.5535 3.78513C19.7284 3.90776 19.8538 4.06699 19.939 4.24464C20.0205 4.32229 20.0797 4.41645 20.1394 4.51723L20.1934 4.57175C20.2816 4.64033 20.3622 4.71756 20.4324 4.8054L20.6097 5.09357L20.6406 5.19482C20.7717 5.31648 20.8787 5.46957 20.949 5.66212C21.0369 5.78945 21.0946 5.9236 21.134 6.06711C21.1759 6.11004 21.2203 6.15085 21.2574 6.19951L21.4193 6.46432L21.5273 6.79921C21.5292 6.8093 21.5256 6.82029 21.5273 6.83037C21.5985 6.95219 21.6482 7.08163 21.6737 7.21978C21.7423 7.33625 21.797 7.46099 21.8279 7.60141C21.8649 7.67369 21.9049 7.74432 21.9359 7.81949L22.0593 8.31794L22.0515 8.55938L22.1286 8.8086L22.1595 9.00331C22.1607 9.00982 22.1641 9.01853 22.1672 9.02668L22.2751 9.44725L22.2983 9.65753C22.3095 9.7561 22.3077 9.8547 22.306 9.95349C22.3244 10.0313 22.3462 10.1084 22.36 10.1871C22.3732 10.2631 22.3703 10.344 22.3754 10.4208C22.4588 10.6316 22.4809 10.8444 22.4448 11.0516L22.4833 11.4566C22.4806 11.4851 22.4693 11.5215 22.4602 11.5657L22.4371 11.9707L22.4293 11.9785C22.4536 12.1017 22.4652 12.2312 22.4525 12.3679C22.4482 12.413 22.4463 12.4621 22.4448 12.5081C22.4412 12.6168 22.431 12.7277 22.4139 12.8352C22.4076 12.8758 22.4019 12.9189 22.3985 12.9598C22.3841 13.1299 22.3328 13.2864 22.2674 13.4349C22.2552 13.529 22.2457 13.6234 22.2212 13.7153C22.1952 13.8121 22.1643 13.9098 22.1286 14.0034C22.124 14.0154 22.1167 14.0308 22.1132 14.0424C22.1208 14.2712 22.0759 14.4987 21.959 14.7122C21.9562 14.7213 21.9604 14.7332 21.959 14.7355L21.8511 15.0237C21.8177 15.1983 21.7444 15.3455 21.6506 15.4832C21.6425 15.5919 21.6393 15.7021 21.6121 15.8103C21.5655 15.9948 21.4819 16.1692 21.3731 16.3243C21.3168 16.4042 21.2388 16.4604 21.1726 16.5268C21.1241 16.7261 21.0369 16.8916 20.9027 17.0409C20.8544 17.2722 20.7678 17.5076 20.5712 17.6951C20.549 17.7162 20.5235 17.7363 20.5018 17.7574C20.4216 17.9302 20.3123 18.0737 20.1626 18.1935C20.1137 18.3213 20.0554 18.4508 19.9621 18.5674C19.9004 18.6441 19.8109 18.6926 19.7385 18.7543C19.6996 18.8312 19.6738 18.916 19.6228 18.988C19.5457 19.0966 19.458 19.2005 19.3607 19.2917C19.3305 19.32 19.2961 19.3469 19.2682 19.3774C19.1473 19.509 19.0041 19.5952 18.8595 19.6655C18.8351 19.6929 18.8152 19.7244 18.7901 19.7512C18.7742 19.7683 18.7522 19.7835 18.7362 19.8057C18.639 19.9404 18.5241 20.0628 18.3892 20.164C18.3558 20.1891 18.3204 20.2144 18.289 20.2419C18.1428 20.3691 17.9796 20.4414 17.8187 20.4911C17.8122 20.4972 17.8097 20.5083 17.8032 20.5145C17.6902 20.6216 17.563 20.7142 17.4254 20.7871C17.3283 20.8717 17.2234 20.9512 17.1093 21.0129C17.0683 21.035 17.0204 21.0409 16.9783 21.0596C16.8434 21.2099 16.6768 21.339 16.454 21.4101C16.4464 21.4142 16.4435 21.4241 16.4385 21.4257C16.4464 21.4233 16.454 21.4204 16.4617 21.4179C16.3847 21.4622 16.3025 21.5037 16.2227 21.5425C16.1992 21.5541 16.1761 21.567 16.1533 21.5815C15.9502 21.711 15.725 21.7632 15.5056 21.7762V21.784H15.4902C15.4532 21.8034 15.4193 21.8317 15.3823 21.8541C15.3625 21.866 15.3432 21.8828 15.3206 21.9008C15.132 22.0505 14.912 22.1024 14.696 22.1266C14.6366 22.1606 14.5836 22.2167 14.5187 22.2435C14.3386 22.317 14.1577 22.3284 13.9867 22.3214C13.8348 22.4106 13.6679 22.4902 13.4701 22.5083C13.4029 22.5144 13.3364 22.5259 13.2697 22.5316C13.2549 22.5329 13.2377 22.5282 13.2234 22.5316C13.1173 22.5578 13.0081 22.5632 12.8996 22.5706C12.7521 22.6216 12.6014 22.6466 12.4447 22.6485C12.3091 22.687 12.1714 22.7161 12.0283 22.7186C11.9076 22.7206 11.7847 22.7128 11.666 22.6952C11.6013 22.6856 11.5371 22.6733 11.4732 22.664C11.4397 22.6592 11.4064 22.6538 11.373 22.6485C11.2972 22.6687 11.2211 22.7006 11.1417 22.7108C10.9771 22.7315 10.8205 22.7088 10.6713 22.6718C10.6073 22.6838 10.5459 22.7149 10.4786 22.7186C10.3233 22.7268 10.173 22.705 10.0314 22.664C9.91197 22.6699 9.78715 22.6692 9.66131 22.6329C9.59345 22.6132 9.53412 22.5758 9.47626 22.5472C9.4014 22.5409 9.33351 22.5133 9.26038 22.4927C9.08906 22.5063 8.90758 22.5016 8.72838 22.4382C8.62914 22.4028 8.5406 22.3487 8.45081 22.298C8.38134 22.285 8.31096 22.2776 8.24264 22.2591C8.20794 22.2496 8.1707 22.2422 8.1347 22.2357C8.08842 22.2274 8.03672 22.2182 7.9882 22.2123C7.91985 22.2041 7.84859 22.1977 7.78003 22.189C7.64349 22.1713 7.50996 22.1355 7.3791 22.0877C7.2255 22.0315 7.09585 21.9478 6.98588 21.8541C6.78139 21.8179 6.60739 21.7332 6.45388 21.6126C6.41646 21.602 6.37528 21.5933 6.33823 21.5815C6.16177 21.5245 6.01163 21.4247 5.87562 21.3089C5.7567 21.2573 5.64841 21.1965 5.55179 21.1142C5.3949 21.0537 5.24176 20.9721 5.11231 20.8494C5.10014 20.8379 5.08601 20.8289 5.07376 20.8182C4.92559 20.7615 4.78436 20.6838 4.65741 20.5768C4.50447 20.5008 4.36143 20.4075 4.24106 20.2808C4.16678 20.2024 4.09593 20.1188 4.03289 20.0316C3.94849 19.9895 3.85806 19.9467 3.77845 19.8758C3.65902 19.7695 3.57645 19.6461 3.51631 19.5253C3.50536 19.5155 3.49617 19.5044 3.48547 19.4942C3.28636 19.392 3.1011 19.2523 2.96888 19.0503C2.95628 19.0309 2.94364 19.0111 2.93033 18.9957C2.86687 18.9225 2.82508 18.8356 2.77613 18.7543C2.7224 18.7128 2.66448 18.6759 2.61422 18.6297C2.5026 18.527 2.41692 18.4093 2.35207 18.287C2.21293 18.1743 2.08931 18.0267 2.00511 17.8353L1.82778 17.5471L1.90488 17.6406L1.83549 17.5393C1.72477 17.4095 1.64447 17.2754 1.59648 17.1265C1.50916 17.0195 1.4395 16.8981 1.3883 16.7605C1.31008 16.6517 1.24132 16.5477 1.20326 16.4256C1.13824 16.3468 1.08311 16.257 1.03363 16.1608C0.978897 16.0537 0.931785 15.9402 0.89485 15.8259C0.882257 15.7868 0.863835 15.7461 0.848589 15.7091C0.809994 15.6149 0.776495 15.5187 0.748357 15.4209C0.729764 15.356 0.73627 15.2839 0.725226 15.2184C0.706107 15.1876 0.672672 15.1653 0.655835 15.1327L0.532472 14.7823C0.479585 14.6771 0.423883 14.5717 0.393689 14.4551C0.381551 14.4084 0.369745 14.3612 0.355138 14.315C0.304977 14.1562 0.285178 14.0012 0.293457 13.8554C0.283698 13.8272 0.262744 13.7997 0.254906 13.7698C0.225027 13.6546 0.212786 13.542 0.216355 13.4349C0.124714 13.2408 0.0961816 13.0409 0.108413 12.8352C0.0878811 12.7704 0.0606205 12.7078 0.0467318 12.6405C0.0100006 12.4603 0.0164945 12.2802 0.0467318 12.1109C0.0310231 12 0.0262368 11.8938 0.0390216 11.7837C-0.00933275 11.5651 -0.0218043 11.3392 0.0544419 11.1139L0.0621521 11.0906C0.047306 10.9784 0.0534765 10.8705 0.0698623 10.7557C0.0501926 10.6611 0.0191789 10.5675 0.0158911 10.4675C0.00858701 10.2397 0.0766302 10.0416 0.162384 9.86782C0.152213 9.73612 0.153919 9.61327 0.185515 9.48619C0.175868 9.37812 0.176412 9.26304 0.200935 9.1435C0.234293 8.98106 0.308299 8.84738 0.385979 8.73072C0.398822 8.68114 0.407929 8.63123 0.42453 8.58274C0.390866 8.34138 0.407432 8.07988 0.532472 7.82727L0.540182 7.8117C0.58087 7.66727 0.635812 7.52772 0.709806 7.39891L0.856299 7.16527C0.876569 7.11327 0.89809 7.06172 0.91798 7.0095L1.04134 6.78364C1.04424 6.75799 1.04654 6.73201 1.04905 6.70575L1.13387 6.33191C1.17966 6.21402 1.24561 6.10175 1.32662 5.99701L1.43456 5.88798C1.46579 5.7939 1.51803 5.71006 1.57334 5.62318C1.61438 5.47636 1.68848 5.3274 1.79694 5.19482C1.86542 5.11173 1.93656 5.03937 2.01282 4.98453C2.0205 4.9711 2.03579 4.95891 2.04366 4.94559C2.08711 4.8722 2.13478 4.79813 2.18245 4.72752C2.19879 4.70314 2.21404 4.67729 2.22871 4.64963C2.26237 4.58615 2.30195 4.52584 2.33665 4.46271L2.50627 4.21349C2.56091 4.14936 2.61886 4.08831 2.68361 4.03436C2.75403 3.93676 2.83272 3.85065 2.92262 3.77734C3.02164 3.61056 3.15358 3.46623 3.33126 3.35677C3.38216 3.2597 3.43571 3.15759 3.51631 3.0686C3.66062 2.90939 3.83403 2.79454 4.01747 2.71813C4.14633 2.56267 4.30124 2.44429 4.48779 2.36765C4.54567 2.29115 4.59961 2.20916 4.67283 2.14179C4.74726 2.07354 4.83082 2.0072 4.91185 1.94708C5.00056 1.88144 5.09277 1.82087 5.18941 1.76795C5.21737 1.75267 5.24818 1.73926 5.27422 1.72122L5.58263 1.55767C5.61574 1.54557 5.64941 1.53595 5.68286 1.52651C5.70838 1.5081 5.7332 1.48862 5.75996 1.47199L6.0144 1.35517C6.09196 1.30493 6.17206 1.25864 6.25342 1.21498C6.26165 1.21057 6.27411 1.20701 6.28426 1.1994L6.64663 0.98133L6.82397 0.895658C6.88004 0.869283 6.93764 0.836996 6.99359 0.809986L7.32513 0.70095C7.38911 0.688563 7.45424 0.696533 7.51788 0.693161C7.60276 0.661361 7.68539 0.636813 7.77232 0.623067C7.7801 0.617522 7.78766 0.605287 7.79545 0.599701L8.07301 0.451723C8.21673 0.398707 8.36361 0.385953 8.50478 0.389417C8.58801 0.3585 8.6766 0.355129 8.76693 0.342687C8.93163 0.265676 9.10875 0.20887 9.29893 0.202497L9.59963 0.210285C9.6789 0.199459 9.75881 0.198889 9.83864 0.194708C9.93197 0.162874 10.0265 0.128356 10.1239 0.109037C10.2508 0.0839919 10.3802 0.070081 10.5094 0.070095C10.5621 0.0701263 10.6122 0.0962057 10.6636 0.101248C10.8268 0.044207 11.0015 0.00733139 11.1956 0.0311533C11.2572 0.0216441 11.3189 0.00747947 11.3807 0L11.8124 0.023365ZM9.93887 22.5083C9.8415 22.5383 9.73805 22.5263 9.63818 22.5316C9.74726 22.5405 9.85103 22.5353 9.93887 22.5083ZM6.23799 21.4257C6.28002 21.4774 6.33901 21.5235 6.40762 21.5659C6.35203 21.5172 6.28439 21.4831 6.23799 21.4257ZM11.9512 20.7248C11.9346 20.7272 11.9195 20.7358 11.905 20.7403C11.9224 20.7346 11.94 20.7295 11.9576 20.7248H11.9512ZM11.4578 2.0016C11.3679 2.01637 11.2777 1.99533 11.1879 1.99381C10.974 2.07729 10.742 2.12783 10.4863 2.06391C10.4785 2.06596 10.4722 2.07624 10.4632 2.07948C10.305 2.13803 10.1345 2.17464 9.962 2.18073C9.92983 2.1818 9.89308 2.18422 9.86177 2.18852C9.72859 2.20669 9.59264 2.20555 9.46084 2.19631H9.45313C9.3559 2.23542 9.25659 2.25921 9.15244 2.27419C8.99286 2.35365 8.83126 2.39582 8.6667 2.39881C8.49493 2.50014 8.31147 2.54764 8.11928 2.56236C7.99563 2.61074 7.87495 2.64525 7.74919 2.65582C7.718 2.67068 7.6879 2.68786 7.65667 2.70255C7.59609 2.73103 7.53226 2.75996 7.47162 2.78822C7.37974 2.85815 7.28109 2.92023 7.17864 2.97514C7.14487 2.99327 7.11073 3.01648 7.0784 3.03745C6.98 3.10104 6.86994 3.13625 6.76229 3.17764C6.62196 3.28865 6.47295 3.36018 6.30739 3.4035C6.2479 3.44199 6.19223 3.48633 6.13005 3.52033C6.11141 3.53052 6.09294 3.54676 6.07608 3.55927C6.05138 3.57773 6.02998 3.60023 6.00669 3.62157C5.89785 3.78451 5.75819 3.93235 5.57492 4.04214C5.52883 4.06974 5.47582 4.08179 5.42843 4.10445C5.34673 4.20222 5.25482 4.29415 5.14315 4.36925C5.09004 4.40492 5.02885 4.42576 4.97353 4.45493C4.8687 4.6556 4.72542 4.83864 4.4955 4.96117C4.41852 5.07888 4.32676 5.17742 4.21022 5.26491C4.16068 5.3328 4.10009 5.38563 4.0406 5.44404C4.01445 5.49181 3.99662 5.54409 3.97121 5.59202C3.9234 5.68218 3.87409 5.77227 3.817 5.85683C3.79118 5.89507 3.76349 5.93375 3.7399 5.97365C3.72265 6.00292 3.70842 6.03563 3.69364 6.06711C3.61061 6.24337 3.48833 6.37428 3.3621 6.47989C3.3489 6.50607 3.32325 6.52459 3.30813 6.54999C3.26031 6.77409 3.14862 6.97642 2.98431 7.1419L2.89949 7.48459C2.86493 7.56961 2.80464 7.64058 2.753 7.71824L2.76071 7.72602C2.73624 7.79026 2.70861 7.85678 2.68361 7.92073C2.63138 8.05363 2.56181 8.17907 2.48314 8.29457C2.46318 8.32397 2.43908 8.35042 2.42146 8.38024C2.40723 8.42865 2.38513 8.47342 2.36749 8.52043C2.37332 8.614 2.39494 8.70991 2.38291 8.8086C2.36529 8.95228 2.33344 9.09313 2.28268 9.22917C2.2615 9.35922 2.21832 9.47949 2.16703 9.58744C2.16178 9.69585 2.14037 9.80118 2.10535 9.90676C2.10994 9.96775 2.13882 10.0306 2.13619 10.0937C2.12842 10.271 2.07648 10.4278 2.01282 10.5688C2.02765 10.6838 2.02171 10.7951 2.00511 10.9115C2.04439 11.1132 2.06285 11.3234 1.9974 11.5345C1.99479 11.543 1.98463 11.5494 1.98198 11.5579C2.00437 11.6984 2.01202 11.8426 1.98987 11.9865C2.00377 12.0966 2.00465 12.2034 1.98969 12.3134C2.04204 12.4591 2.06774 12.6023 2.0668 12.7495C2.07091 12.7578 2.07816 12.7645 2.08222 12.7729C2.16509 12.9432 2.20097 13.1221 2.20558 13.2947C2.23176 13.3587 2.26759 13.4237 2.28268 13.4972C2.31215 13.6417 2.30091 13.7779 2.28268 13.9022C2.28697 13.918 2.29398 13.933 2.2981 13.9489L2.41375 14.2293C2.54147 14.4161 2.62922 14.6248 2.64506 14.8601C2.65326 14.8887 2.66484 14.9189 2.6759 14.9458C2.70708 15.0216 2.7271 15.1016 2.753 15.1795C2.91023 15.3391 3.01061 15.5311 3.06141 15.7402C3.09121 15.7845 3.11379 15.8324 3.13851 15.8804C3.29944 16.0424 3.40427 16.2377 3.45462 16.449L3.57799 16.6125L3.60883 16.667C3.62823 16.6944 3.63727 16.7323 3.65509 16.7605C3.73407 16.8135 3.81529 16.874 3.88639 16.9552C3.96811 17.0491 4.02634 17.1561 4.07144 17.2589C4.21594 17.3748 4.3315 17.5158 4.4184 17.6795L4.51092 17.8041C4.60233 17.8594 4.68524 17.9287 4.76535 18.0066L5.1046 18.3182L5.11231 18.3259L5.50553 18.6842L5.62118 18.8556L5.62889 18.8633C5.71455 18.9095 5.79837 18.9572 5.87562 19.0191C6.00216 19.0708 6.13343 19.1175 6.24571 19.206C6.29091 19.2418 6.33354 19.2847 6.37678 19.3228C6.52403 19.3815 6.66373 19.4557 6.78266 19.5597L6.89336 19.6032C6.93779 19.6297 6.97565 19.6654 7.01672 19.6967C7.0298 19.7001 7.04199 19.7092 7.05527 19.7123C7.22507 19.7517 7.37239 19.8294 7.50246 19.9226C7.75595 19.9538 7.95314 20.0777 8.11928 20.2185C8.15444 20.2229 8.19213 20.2299 8.22722 20.2341C8.31015 20.2441 8.39219 20.2584 8.47394 20.273C8.56641 20.2896 8.66085 20.3107 8.75151 20.3353C8.77727 20.3423 8.80937 20.3469 8.83632 20.3509C9.00903 20.3768 9.16914 20.4345 9.31435 20.5145C9.42458 20.5131 9.53034 20.5242 9.63818 20.5534C9.76278 20.5463 9.8923 20.5615 10.0237 20.6001C10.0759 20.6156 10.1239 20.6415 10.1702 20.6624C10.2569 20.6662 10.3391 20.6943 10.4246 20.717C10.6047 20.6707 10.7823 20.6701 10.9643 20.7092C11.0446 20.6847 11.1263 20.6638 11.2111 20.6547L11.5889 20.6702L11.7508 20.6936C11.8176 20.7033 11.89 20.7147 11.9576 20.7248C12.0784 20.6925 12.2033 20.682 12.329 20.678C12.466 20.6337 12.6069 20.6052 12.7531 20.6001C12.8667 20.5721 12.9836 20.5479 13.1 20.5378L13.1078 20.53C13.2127 20.4627 13.3312 20.4055 13.4624 20.3665C13.6206 20.3197 13.7787 20.3103 13.925 20.3198C14.0411 20.2592 14.1549 20.2153 14.2797 20.1951C14.3077 20.1766 14.3358 20.1581 14.3645 20.1406C14.439 20.0955 14.5189 20.0561 14.5958 20.016C14.7095 19.9569 14.828 19.9045 14.9505 19.868C15.0397 19.8415 15.1313 19.8328 15.2203 19.8213C15.2684 19.7941 15.3171 19.7676 15.3668 19.7434C15.4058 19.7245 15.445 19.7026 15.4825 19.6811C15.5316 19.6528 15.5857 19.6344 15.6367 19.611C15.7725 19.4613 15.939 19.3296 16.1603 19.2607C16.163 19.258 16.1658 19.2553 16.1687 19.2528C16.1811 19.249 16.1945 19.2484 16.2072 19.245C16.2027 19.2462 16.1926 19.2409 16.1841 19.245L16.454 19.058C16.4964 19.0177 16.5358 18.9744 16.5773 18.9334C16.7393 18.7736 16.9313 18.6842 17.117 18.6297C17.1355 18.6149 17.1522 18.5974 17.171 18.583C17.2249 18.5115 17.2871 18.4461 17.3483 18.3805C17.3816 18.3449 17.4171 18.3087 17.4486 18.2714L17.7493 18.0066C17.8008 17.9739 17.8575 17.9535 17.9112 17.9287C17.9453 17.8941 17.9836 17.8607 18.0191 17.8275C18.1002 17.635 18.2216 17.4696 18.3815 17.3368C18.4507 17.1531 18.5566 16.9771 18.7208 16.8306L18.7901 16.7683C18.8477 16.6482 18.9255 16.5355 19.0215 16.4334C19.0498 16.3187 19.097 16.2037 19.1602 16.0907L19.353 15.8259C19.3684 15.7754 19.3707 15.72 19.3915 15.6701L19.5766 15.3586C19.6154 15.3086 19.6639 15.2693 19.7077 15.2262C19.7162 15.1189 19.726 15.0066 19.7539 14.8991C19.8024 14.7144 19.8957 14.5598 20.0006 14.424C20.0214 14.3497 20.0224 14.2698 20.0546 14.1981L20.0777 14.128L20.1703 13.91C20.1736 13.8103 20.1616 13.708 20.1857 13.6062L20.2859 13.2869C20.2974 13.2569 20.3087 13.2235 20.3168 13.1934V13.1701L20.4324 12.7884C20.44 12.6978 20.449 12.6057 20.4632 12.5158C20.4669 12.4926 20.4701 12.4696 20.471 12.4458C20.4724 12.3999 20.4757 12.3513 20.4787 12.3056C20.4162 12.0838 20.4092 11.8488 20.4787 11.6202V11.4021C20.4262 11.2182 20.4246 11.0372 20.4555 10.8647C20.4335 10.7683 20.4171 10.6667 20.417 10.561V10.5376C20.4094 10.494 20.3967 10.4488 20.3861 10.4052C20.3484 10.2492 20.3333 10.0899 20.3399 9.93012V9.88339C20.3342 9.83416 20.3305 9.78464 20.3245 9.73541L20.2242 9.37715C20.2137 9.32115 20.2038 9.26176 20.1934 9.20581L20.0932 8.84754C20.0777 8.73793 20.0756 8.62804 20.0855 8.52043C20.0813 8.51214 20.0745 8.50532 20.07 8.49707C20.0099 8.38506 19.9792 8.26112 19.9467 8.13881C19.8625 8.00793 19.7992 7.87646 19.7693 7.72602C19.6939 7.59842 19.6484 7.46602 19.6228 7.32103C19.5519 7.24058 19.4701 7.16235 19.4147 7.06402C19.3554 6.95826 19.3383 6.84024 19.3067 6.72912C19.2778 6.6875 19.2462 6.64855 19.2219 6.60451C19.0472 6.45989 18.9141 6.26294 18.8441 6.02038C18.8108 5.99023 18.7757 5.95895 18.7439 5.92692C18.6592 5.84143 18.5883 5.74714 18.528 5.64654C18.4005 5.5402 18.299 5.41521 18.2273 5.2727C18.1355 5.18976 18.0574 5.08754 17.9883 4.97674V4.98453C17.9326 4.92644 17.878 4.86722 17.8264 4.8054C17.7369 4.7449 17.6505 4.68031 17.5719 4.6029C17.5024 4.53439 17.4628 4.44599 17.41 4.36925C17.3328 4.32231 17.2412 4.29165 17.171 4.22906C17.15 4.2104 17.129 4.19185 17.1077 4.17375C16.9514 4.1104 16.8017 4.02041 16.6698 3.90195C16.645 3.87976 16.6192 3.85923 16.5927 3.83965C16.4712 3.74989 16.3623 3.64209 16.2689 3.52811C16.2469 3.50143 16.2226 3.47324 16.1995 3.45023C16.1379 3.40956 16.0752 3.36786 16.0145 3.32562H16.0068C15.9102 3.28594 15.8211 3.23635 15.7369 3.17764C15.6213 3.15074 15.5026 3.12097 15.39 3.06081C15.2987 3.01201 15.228 2.93681 15.1509 2.87389C15.0224 2.86257 14.8905 2.83534 14.7577 2.78043C14.6733 2.74537 14.602 2.68741 14.5264 2.64024C14.4549 2.62868 14.3814 2.62931 14.3105 2.60909C14.2711 2.59782 14.2279 2.59412 14.1872 2.58573C14.0973 2.56717 14.0053 2.54133 13.9173 2.51563C13.7631 2.47023 13.6169 2.40448 13.4856 2.32092L13.5164 2.32871L13.4856 2.31313C13.4318 2.29429 13.3769 2.27901 13.3236 2.25862C13.2094 2.24884 13.1018 2.24309 12.9998 2.2041C12.9429 2.20473 12.8829 2.21284 12.8225 2.2041C12.7172 2.18873 12.6251 2.14883 12.5372 2.11064C12.3609 2.13465 12.1772 2.14565 11.9898 2.08727C11.9547 2.07623 11.9168 2.06405 11.8818 2.05612C11.7331 2.06052 11.5981 2.03677 11.4655 1.99381L11.4578 2.0016ZM10.0006 20.678C9.90975 20.6754 9.82366 20.6892 9.74827 20.7117C9.83043 20.6884 9.91605 20.6861 10.0006 20.678ZM9.1987 20.5223C9.12045 20.5177 9.04951 20.5289 8.99052 20.5456C9.05855 20.5262 9.12914 20.5299 9.1987 20.5223ZM16.1595 19.2616C16.1509 19.2679 16.145 19.2774 16.1378 19.2839C16.1454 19.2769 16.1523 19.269 16.1595 19.2616ZM5.23567 18.5674C5.2569 18.6134 5.28313 18.6554 5.30156 18.7002C5.2853 18.6581 5.26406 18.6134 5.23567 18.5674ZM4.75278 18.2014C4.79815 18.2138 4.84228 18.2326 4.88872 18.2481C4.84166 18.2257 4.79543 18.2119 4.75278 18.2014ZM21.2343 16.3477C21.2309 16.3857 21.21 16.4199 21.2034 16.4567L21.2111 16.449C21.2284 16.4076 21.2321 16.3701 21.2343 16.3477ZM20.1626 13.9411C20.1489 14.006 20.1483 14.0716 20.1532 14.1326C20.1494 14.0697 20.1617 14.0058 20.1626 13.9411ZM0.373319 13.4731C0.356558 13.5248 0.346014 13.5884 0.339718 13.6607C0.353116 13.5965 0.355108 13.5318 0.373319 13.4731ZM0.139254 12.547C0.120578 12.6105 0.104009 12.6914 0.108413 12.7807C0.108842 12.7887 0.115439 12.7961 0.116123 12.804C0.123458 12.7179 0.11446 12.6309 0.139254 12.547ZM0.0467318 12.1498L0.0929928 12.3757L0.0544419 12.1264L0.0467318 12.1498ZM21.8434 12.2978C21.7305 12.3413 21.618 12.3715 21.5108 12.3753C21.637 12.3715 21.7462 12.3366 21.8434 12.2978ZM22.1286 12.1031C22.0948 12.1331 22.0567 12.149 22.0207 12.1732C21.9837 12.198 21.9574 12.2341 21.9204 12.2548C21.9655 12.2318 22.006 12.2083 22.0438 12.181C22.0768 12.1572 22.1012 12.1282 22.1286 12.1031ZM20.5404 11.5812L20.5481 11.5968C20.5463 11.5922 20.5448 11.584 20.5404 11.5735V11.5812ZM0.0775724 11.1996L0.131544 11.4255L0.0775724 11.1763V11.1996ZM0.162384 10.008L0.177805 10.1248L0.170094 10.008C0.167608 9.99518 0.172174 9.98191 0.170094 9.96906L0.162384 10.008ZM3.49077 6.05326C3.47884 6.12969 3.44691 6.20304 3.42378 6.2774C3.45789 6.2012 3.48068 6.12429 3.49077 6.05326ZM12.7531 2.0717C12.7814 2.08748 12.8129 2.09748 12.8456 2.11064C12.8187 2.09548 12.7941 2.08088 12.7685 2.06391L12.7531 2.0717ZM12.6143 1.97824C12.6504 2.01004 12.6943 2.0427 12.7454 2.0717C12.754 2.07012 12.7608 2.06579 12.7685 2.06391C12.7193 2.03127 12.6581 2.01682 12.6143 1.97824ZM11.3113 1.93929C11.2801 1.95563 11.2516 1.97221 11.2188 1.98602H11.2265L11.3113 1.93929ZM12.3753 0.155767C12.3138 0.155105 12.2581 0.165935 12.2073 0.17984C12.2615 0.166753 12.3187 0.167154 12.3753 0.155767Z" fill="#017BFF"/>
<path d="M31.3881 0.0390377C31.5935 -0.00641307 31.796 0.0141774 31.9895 0.0624027C32.1277 0.0560712 32.2593 0.0753272 32.3904 0.109133C32.5253 0.0776942 32.6637 0.0522816 32.8068 0.0546144L33.2771 0.132498C33.314 0.144144 33.3487 0.165951 33.385 0.179228C33.4288 0.174601 33.4721 0.166249 33.5161 0.163651C33.8028 0.147037 34.0341 0.254091 34.2254 0.381724C34.2635 0.387858 34.3033 0.389218 34.3411 0.397301C34.3492 0.398979 34.3591 0.40457 34.3719 0.405089C34.4671 0.408943 34.5628 0.41637 34.6572 0.428454L35.2046 0.607586L35.3434 0.685469V0.693258C35.5639 0.694122 35.7839 0.761492 35.9911 0.903543C36.1814 0.932399 36.3457 1.00545 36.4922 1.10604C36.6583 1.14809 36.8136 1.22238 36.9471 1.3319C37.1182 1.39276 37.2743 1.48782 37.4097 1.62786C37.4733 1.64926 37.5402 1.6732 37.6025 1.69795C37.7917 1.77376 37.961 1.8869 38.1036 2.03285C38.1363 2.06638 38.1658 2.1066 38.1962 2.14189L38.3735 2.21977L38.7205 2.47679L38.9518 2.74159C39.0107 2.76984 39.074 2.78957 39.1291 2.82726L39.4452 3.13101L39.5069 3.20889C39.5663 3.27574 39.622 3.34812 39.6765 3.41917C39.6949 3.44314 39.7191 3.46663 39.7382 3.48927C39.8326 3.54889 39.9242 3.61438 40.008 3.69177C40.1203 3.79574 40.2059 3.92225 40.2779 4.05003C40.3162 4.08301 40.3564 4.11704 40.3936 4.15128C40.4431 4.19692 40.4904 4.24536 40.5401 4.29147L40.8253 4.63415L40.9333 4.84444C40.9869 4.89951 41.0373 4.95758 41.0875 5.01578C41.2359 5.18815 41.3077 5.38554 41.3496 5.57654L41.4576 5.73231L41.5578 5.91923C41.6151 6.02613 41.6422 6.14085 41.6734 6.25413C41.7865 6.37627 41.8638 6.52462 41.9279 6.68249C42.0744 6.85774 42.1942 7.06243 42.2286 7.31334C42.2383 7.38464 42.2504 7.46037 42.2594 7.53141C42.2611 7.54435 42.2574 7.5579 42.2594 7.57035C42.3495 7.71863 42.408 7.87091 42.429 8.04544C42.4612 8.1139 42.4905 8.183 42.5139 8.25573C42.6469 8.46475 42.6934 8.68431 42.6912 8.89437C42.7071 8.93544 42.7335 8.97363 42.7452 9.01898C42.7903 9.19561 42.7721 9.36091 42.7452 9.50965C42.7667 9.56837 42.7971 9.62853 42.8146 9.68878C42.8325 9.75067 42.8502 9.81322 42.8685 9.8757C42.9141 10.0309 42.9203 10.1907 42.9148 10.3508C42.9568 10.5243 42.9757 10.7016 42.9533 10.8804C42.9636 10.951 42.9683 11.019 42.9688 11.0907C42.9948 11.1964 43.0199 11.3719 42.9765 11.5736C42.9786 11.6203 43.0014 11.6664 42.9996 11.7137C42.9943 11.8559 42.9737 11.9985 42.9379 12.1343C42.9159 12.2176 42.896 12.3018 42.8685 12.3835C42.876 12.4739 42.8828 12.5656 42.8839 12.6561C42.8843 12.6867 42.8876 12.7233 42.8917 12.7574C42.9195 12.996 42.8536 13.2056 42.7683 13.396C42.7814 13.5855 42.7653 13.7778 42.7066 13.9646C42.688 14.0237 42.6703 14.0848 42.6526 14.1437C42.6322 14.3892 42.5304 14.5872 42.4059 14.759C42.3835 14.8465 42.3822 14.9403 42.3442 15.0238C42.3096 15.0999 42.2629 15.1701 42.2209 15.2419C42.2099 15.4166 42.1595 15.5811 42.0821 15.7403C42.0572 15.9098 42.0101 16.0802 41.9202 16.2388C41.8742 16.3198 41.8134 16.3905 41.7583 16.4646C41.7191 16.5813 41.6865 16.7007 41.6195 16.8073C41.6151 16.8143 41.6076 16.8222 41.6041 16.8307C41.5321 17.006 41.4206 17.1495 41.2956 17.2746C41.2596 17.3514 41.235 17.4366 41.1877 17.5083C41.1486 17.5675 41.1121 17.6289 41.0721 17.6874C41.025 17.7562 40.9761 17.8237 40.9256 17.8899L40.9179 17.8821C40.8497 18.026 40.755 18.1422 40.648 18.2482C40.5747 18.409 40.4827 18.5679 40.3397 18.6944C40.2771 18.7848 40.2089 18.871 40.1314 18.9491C40.0548 19.0262 39.9631 19.0863 39.877 19.1516C39.7921 19.261 39.7101 19.3712 39.5994 19.4554C39.5634 19.4827 39.5211 19.5003 39.4838 19.5254C39.4646 19.5581 39.4498 19.5946 39.4298 19.6267C39.3232 19.7971 39.1838 19.9461 39.0134 20.0628C38.9311 20.1478 38.8382 20.2256 38.7436 20.2965C38.6734 20.3489 38.6012 20.4045 38.5277 20.4523C38.4315 20.5147 38.3277 20.5564 38.227 20.5924C38.1537 20.6598 38.0695 20.7127 37.9803 20.7638C37.8668 20.8746 37.7466 20.9796 37.6025 21.052C37.575 21.0657 37.5428 21.0747 37.5177 21.0909C37.4205 21.1537 37.3204 21.203 37.217 21.2389C37.1761 21.2795 37.148 21.3344 37.1013 21.3713C36.9883 21.4602 36.8627 21.5368 36.7312 21.5971C36.6757 21.6225 36.6165 21.6489 36.5616 21.675C36.4274 21.739 36.2927 21.7757 36.1607 21.7918C36.0289 21.8678 35.8819 21.9231 35.7212 21.9476C35.6648 21.9562 35.6065 21.9686 35.5516 21.9788C35.3995 22.0955 35.2225 22.1917 35.0148 22.2287C34.903 22.2795 34.7856 22.3187 34.6649 22.3448L34.6572 22.3526C34.5746 22.3882 34.4875 22.4166 34.4028 22.4461C34.2022 22.5156 33.9958 22.543 33.7937 22.524L33.7859 22.5162C33.6392 22.5724 33.4868 22.6133 33.3233 22.6174H33.3465C33.1316 22.6729 32.9241 22.6542 32.7297 22.6096C32.533 22.7064 32.3097 22.7699 32.0666 22.7576C31.9512 22.7517 31.8438 22.7263 31.7428 22.6953C31.5721 22.7156 31.395 22.7052 31.2188 22.6467L30.9255 22.6096C30.9188 22.6081 30.9113 22.6097 30.9041 22.6102C30.913 22.6122 30.9216 22.6174 30.9255 22.6174H30.9023C30.7425 22.6445 30.5735 22.6467 30.4089 22.6252C30.2988 22.6107 30.1957 22.5746 30.0928 22.5395C30.0414 22.5397 29.99 22.5403 29.9386 22.5395C29.807 22.5375 29.6748 22.5217 29.5454 22.4928C29.4723 22.4764 29.3945 22.4568 29.3218 22.4383C29.198 22.4067 29.0745 22.3674 28.9594 22.3137L28.944 22.3059C28.8951 22.3073 28.8463 22.3132 28.7975 22.3137C28.6149 22.3154 28.428 22.2857 28.25 22.2202C28.1293 22.1756 28.0232 22.1105 27.9262 22.0411C27.8188 22.0163 27.7193 21.9705 27.6178 21.9165C27.4778 21.8867 27.3387 21.8534 27.2092 21.7841C27.1778 21.7673 27.1412 21.7509 27.1089 21.7373C26.9768 21.6814 26.8629 21.6052 26.762 21.5193C26.6366 21.4776 26.5132 21.422 26.3996 21.3401C26.3486 21.3031 26.2965 21.2596 26.2454 21.2233C26.2275 21.2106 26.209 21.1975 26.1914 21.1844C25.9811 21.1438 25.7612 21.064 25.5746 20.8806C25.4975 20.8047 25.4261 20.7238 25.3587 20.6392C25.3518 20.6305 25.342 20.6228 25.3356 20.6158C25.2029 20.5467 25.0892 20.4594 24.9886 20.351C24.7548 20.2796 24.5199 20.1538 24.3487 19.9149C24.3378 19.8997 24.3284 19.8835 24.3179 19.8681C24.2292 19.8141 24.1408 19.7503 24.0634 19.6656C24.0039 19.6003 23.9645 19.5245 23.9246 19.4554C23.8815 19.4236 23.8264 19.4066 23.7859 19.3697C23.6731 19.2671 23.5886 19.1446 23.516 19.0192C23.4126 18.9301 23.3296 18.8334 23.2616 18.7155C23.1855 18.6485 23.1211 18.573 23.0611 18.4896C22.8708 18.3451 22.7224 18.1611 22.6448 17.9444C22.6096 17.9041 22.5686 17.8636 22.5368 17.8198C22.4719 17.7302 22.4116 17.6371 22.3595 17.5394H22.3518C22.3042 17.4851 22.2595 17.4288 22.2207 17.3681L22.0511 17.0254C21.9457 16.917 21.8487 16.789 21.7812 16.636C21.7527 16.5712 21.7238 16.5066 21.6964 16.4413C21.6598 16.3538 21.6354 16.2594 21.6116 16.1687C21.5024 16.0522 21.3985 15.912 21.3417 15.7325C21.322 15.6701 21.3273 15.6054 21.3186 15.5456C21.1386 15.3026 21.0824 15.0298 21.095 14.759C21.0854 14.7403 21.0681 14.7239 21.0565 14.7045C20.9623 14.5467 20.8982 14.3691 20.8637 14.1826C20.8423 14.0663 20.8343 13.9494 20.8329 13.8322C20.7464 13.6755 20.6707 13.5032 20.6555 13.3026C20.6511 13.2431 20.6456 13.1826 20.6401 13.1234C20.6332 13.0493 20.6393 12.9716 20.6401 12.8976C20.5785 12.7165 20.5411 12.5225 20.563 12.3212L20.5707 12.22C20.5716 12.1362 20.5849 12.0537 20.5939 11.9708C20.5755 11.8762 20.5525 11.7795 20.5476 11.6826C20.5434 11.6003 20.5399 11.5159 20.5399 11.4334C20.5399 11.3612 20.5386 11.2874 20.5399 11.2153L20.5476 11.262V11.2153C20.5256 11.1034 20.5107 10.9924 20.5168 10.8804L20.5707 10.5844C20.5746 10.515 20.5813 10.4433 20.5861 10.3742L20.671 9.93022C20.6739 9.87744 20.6781 9.82667 20.6864 9.77445C20.6558 9.60173 20.645 9.41817 20.6864 9.22927L20.7712 8.92552L20.856 8.76976C20.8569 8.65228 20.8624 8.53226 20.8946 8.4115L21.0102 8.15448C21.0134 8.1026 21.0131 8.05045 21.0179 7.99871L21.095 7.65603C21.1156 7.59798 21.1517 7.54744 21.1798 7.49247C21.2076 7.33368 21.2528 7.17844 21.334 7.03296L21.4805 6.79152C21.5053 6.75438 21.5311 6.71823 21.5576 6.68249C21.5645 6.64854 21.5731 6.61498 21.5808 6.58124L21.7735 6.14509C21.8147 6.08516 21.8705 6.04025 21.92 5.98932C21.937 5.90123 21.9398 5.80497 21.974 5.71673L22.2515 5.25722L22.452 5.03915C22.4966 4.96789 22.5515 4.90739 22.6062 4.84444C22.6878 4.67775 22.8068 4.54536 22.9377 4.43166C23.0078 4.30852 23.0905 4.19929 23.1999 4.10455C23.2373 4.01035 23.2792 3.91685 23.3387 3.83196L23.6702 3.49706C23.7693 3.33507 23.8944 3.2068 24.0403 3.11543C24.1309 2.98911 24.2554 2.87985 24.4027 2.78832L24.5877 2.67928C24.6867 2.57717 24.8011 2.49552 24.927 2.43006C24.9606 2.39694 24.9934 2.36194 25.0272 2.32881C25.1513 2.20733 25.2975 2.11803 25.4513 2.04843C25.5183 1.99173 25.5839 1.93508 25.6594 1.89266C25.8094 1.72252 26.0058 1.59632 26.23 1.5344C26.38 1.38787 26.5725 1.28801 26.7851 1.23844C26.946 1.0881 27.1452 0.963717 27.3942 0.919119C27.4969 0.844612 27.6131 0.778961 27.7489 0.739988C27.7791 0.731318 27.8118 0.738175 27.8414 0.732199C27.9828 0.636553 28.1471 0.557504 28.3426 0.529703L28.3657 0.521914L28.7666 0.459608C28.7822 0.459491 28.7975 0.466975 28.8129 0.467396C28.8938 0.436812 28.9801 0.427415 29.0673 0.412878C29.2351 0.330106 29.4089 0.289611 29.5993 0.288264C29.7862 0.183979 29.999 0.135881 30.2239 0.148074C30.3665 0.106655 30.5154 0.0766839 30.671 0.0857677L30.9255 0.140286C30.9692 0.132897 31.0127 0.123711 31.0565 0.116921C31.0879 0.112078 31.1234 0.102225 31.1568 0.0935561C31.2331 0.0736715 31.3109 0.056136 31.3881 0.0390377ZM26.2917 21.1999C26.3546 21.2182 26.414 21.2163 26.4622 21.2157C26.4014 21.2146 26.3407 21.2 26.2762 21.1921L26.2917 21.1999ZM31.6811 2.00949C31.6704 2.01218 31.6608 2.0223 31.6502 2.02506C31.5539 2.05014 31.4556 2.07219 31.3572 2.08737C31.3008 2.09609 31.2438 2.10078 31.1876 2.11073C30.9863 2.14649 30.7872 2.13326 30.6017 2.08737C30.5178 2.109 30.4396 2.13841 30.3549 2.14189C30.2108 2.2091 30.0511 2.26195 29.8692 2.2665C29.8334 2.26737 29.7969 2.25946 29.7612 2.25871C29.6754 2.2954 29.5859 2.31839 29.4914 2.3366C29.2938 2.43747 29.0911 2.45595 28.89 2.44563C28.7999 2.51883 28.6918 2.58606 28.5662 2.63255C28.4966 2.65815 28.4251 2.66038 28.358 2.67149C28.2517 2.73611 28.1329 2.77899 28.0033 2.81168C27.9129 2.89782 27.8102 2.98288 27.6872 3.04533C27.6199 3.07934 27.5476 3.09347 27.479 3.11543C27.3786 3.20898 27.2643 3.29576 27.1244 3.35687C27.0789 3.3766 27.0237 3.37308 26.9779 3.38802C26.8932 3.46843 26.7951 3.52713 26.6849 3.58273C26.5843 3.67514 26.4742 3.74889 26.3533 3.80859C26.3226 3.83879 26.2915 3.87187 26.2608 3.90205C26.1713 3.98992 26.0571 4.03579 25.9524 4.09676C25.8487 4.21523 25.7336 4.31065 25.5977 4.38493C25.5405 4.47494 25.4718 4.56422 25.3819 4.64194C25.3284 4.68811 25.2681 4.71781 25.2122 4.75098C25.1551 4.8271 25.0945 4.90341 25.0195 4.96905C24.9864 4.99791 24.9458 5.01959 24.9115 5.04694C24.8737 5.12217 24.8556 5.20959 24.8036 5.28059C24.7429 5.36316 24.6532 5.41638 24.58 5.48308L24.5877 5.47529C24.5211 5.53694 24.4699 5.61377 24.395 5.66221C24.4616 5.6191 24.5319 5.55926 24.5877 5.48308C24.5104 5.63469 24.4027 5.75559 24.2716 5.86471C24.2045 5.97072 24.1462 6.08143 24.0557 6.16846C23.9844 6.28298 23.9126 6.39555 23.8167 6.48778C23.7919 6.66639 23.7414 6.85164 23.6317 7.02517C23.5878 7.09402 23.5135 7.13863 23.462 7.19652C23.418 7.43358 23.3241 7.65321 23.1691 7.83516C23.15 7.85742 23.1296 7.88345 23.1151 7.90525C23.1015 7.92572 23.0891 7.94675 23.0765 7.96756C23.0546 8.07337 23.0224 8.17296 22.9763 8.27131C22.9749 8.29334 22.9772 8.31928 22.9763 8.3414C22.9672 8.54751 22.9009 8.7389 22.8067 8.91774C22.8082 9.15239 22.7576 9.37489 22.6293 9.57974C22.6531 9.76169 22.6657 9.9544 22.6062 10.1483C22.5997 10.2825 22.5897 10.4151 22.5503 10.5428C22.548 10.5928 22.5473 10.6443 22.5445 10.6935C22.5389 10.7926 22.5045 10.8871 22.4828 10.9816C22.4949 11.0718 22.5154 11.1618 22.5137 11.2542C22.5126 11.3139 22.5137 11.3736 22.5137 11.4334C22.5137 11.4826 22.5189 11.5325 22.5214 11.5813V11.5969C22.5665 11.784 22.5781 11.9759 22.5522 12.1655C22.5487 12.1908 22.5447 12.2205 22.5445 12.2434C22.544 12.2902 22.5395 12.3368 22.5368 12.3835C22.5903 12.5501 22.6218 12.7289 22.6062 12.9132V12.9832C22.6272 13.0203 22.6577 13.0525 22.6756 13.0923L22.7835 13.4739L22.7913 13.7699C22.8233 13.8278 22.8634 13.8812 22.8915 13.9412L23.0303 14.3618V14.5331C23.1579 14.7 23.225 14.8808 23.2539 15.0627L23.3464 15.2029L23.516 15.6546V15.6624C23.5236 15.6806 23.5314 15.6988 23.5391 15.717C23.6831 15.8564 23.8098 16.0241 23.8784 16.2388C23.8882 16.2695 23.8988 16.3017 23.9092 16.3322L24.102 16.5892L24.1251 16.636V16.6438C24.2589 16.7632 24.3565 16.8998 24.4258 17.0488C24.4961 17.1156 24.5475 17.1985 24.6031 17.2824C24.7141 17.3765 24.8025 17.4808 24.873 17.6017C24.9691 17.6812 25.0425 17.7756 25.112 17.8821C25.2922 17.9824 25.4284 18.1158 25.5284 18.2715C25.6188 18.3358 25.687 18.4227 25.7597 18.513L26.0681 18.6687L26.2762 18.879C26.3251 18.902 26.3764 18.9207 26.4227 18.9491L26.6618 19.136L26.7851 19.2762C26.8822 19.2996 26.9826 19.3258 27.0781 19.3775L27.3094 19.541L27.3788 19.5955C27.4149 19.6212 27.4507 19.6475 27.4867 19.6734C27.6556 19.7247 27.7971 19.8088 27.9262 19.9226C27.9778 19.9455 28.0301 19.9671 28.0804 19.9927C28.1879 20.0143 28.2889 20.0561 28.3888 20.1018C28.5828 20.124 28.7496 20.2076 28.9054 20.3121C28.9208 20.3115 28.9363 20.3127 28.9517 20.3121L29.4914 20.3822L29.7921 20.499L29.8075 20.5068L29.9694 20.5457C30.026 20.5466 30.0826 20.5463 30.139 20.5457C30.3149 20.5439 30.4868 20.5805 30.6479 20.6392C30.7458 20.6262 30.8486 20.6225 30.9486 20.6236C31.0879 20.6254 31.2252 20.6417 31.3588 20.6747C31.4076 20.6819 31.4554 20.696 31.5037 20.7015C31.7165 20.6433 31.9343 20.65 32.136 20.7093C32.1566 20.7017 32.1767 20.6928 32.1977 20.6859L32.7219 20.608L33.0226 20.6625C33.0587 20.6566 33.0942 20.6507 33.1306 20.647C33.2906 20.577 33.4652 20.5294 33.6472 20.5224L33.8399 20.5301C33.8539 20.5245 33.8723 20.5205 33.8862 20.5146C33.9859 20.4718 34.0891 20.4395 34.1946 20.4133C34.289 20.3644 34.387 20.3233 34.4876 20.2965C34.6068 20.2062 34.7499 20.1334 34.9116 20.0862L35.1969 20.0161C35.2095 20.0138 35.2228 20.0106 35.2355 20.0083C35.4241 19.8798 35.6382 19.8225 35.8523 19.8136L35.8831 19.798L35.8677 19.8136H35.8754L35.8831 19.798L35.8985 19.7902C36.0613 19.5869 36.2718 19.4274 36.5385 19.3619C36.5981 19.3262 36.6614 19.2918 36.7235 19.2606C36.7937 19.199 36.8664 19.1453 36.9471 19.0971C37.0251 19.0121 37.0922 18.921 37.1861 18.8634L37.456 18.77C37.4938 18.7454 37.5357 18.7267 37.5716 18.6999C37.5825 18.6918 37.5926 18.679 37.6025 18.6687C37.6601 18.6094 37.7232 18.5566 37.7875 18.5052C37.7997 18.4842 37.8145 18.4646 37.8261 18.4429L38.0574 18.1313C38.1454 18.0412 38.2451 17.961 38.3581 17.8977C38.3768 17.8872 38.3974 17.8775 38.412 17.8665C38.498 17.7578 38.5861 17.6531 38.6973 17.5706L38.7359 17.5316C38.787 17.4541 38.8572 17.3944 38.9209 17.3292L38.9286 17.3213C38.9917 17.174 39.0796 17.0472 39.1985 16.9319C39.246 16.8426 39.2986 16.7562 39.3604 16.6749L39.4452 16.5503C39.4788 16.5011 39.5126 16.4521 39.5454 16.4023C39.6126 16.2271 39.7144 16.0779 39.8384 15.9506C39.8651 15.8953 39.8919 15.8399 39.9232 15.787C39.9739 15.6089 40.0472 15.4357 40.1623 15.2886C40.1843 15.181 40.2215 15.0781 40.2702 14.9771C40.2791 14.897 40.2901 14.8154 40.3088 14.7356C40.3502 14.5595 40.4217 14.3947 40.5169 14.245L40.5404 14.2033C40.5732 14.0229 40.6402 13.8668 40.7328 13.7309C40.7437 13.6768 40.7477 13.6208 40.7636 13.5674L40.8022 13.4272C40.7997 13.3886 40.7966 13.3488 40.7945 13.3104C40.7828 13.0936 40.8319 12.8984 40.9101 12.7262C40.9097 12.7114 40.9103 12.6943 40.9101 12.6795C40.9096 12.6381 40.9058 12.5968 40.9024 12.5549C40.8929 12.4404 40.8953 12.3198 40.9024 12.2044L40.995 11.7449L41.0258 11.6359C41.0113 11.56 40.9855 11.4497 40.995 11.3243C40.9971 11.2967 41.0091 11.2549 41.0181 11.2075C41.0183 11.1683 41.0163 11.1308 41.0162 11.0972C41.0062 11.0152 41.0119 10.9328 41.0104 10.8492C40.9642 10.6974 40.9529 10.54 40.9564 10.3819C40.9435 10.3377 40.9306 10.2935 40.9179 10.2495C40.9104 10.2239 40.8985 10.191 40.887 10.1639C40.8224 10.0103 40.7797 9.8436 40.7636 9.67321C40.7565 9.59546 40.7662 9.52042 40.7714 9.44734C40.7537 9.39869 40.7212 9.35364 40.7097 9.29936C40.6852 9.18404 40.6863 9.07436 40.6943 8.97225L40.6634 8.90995C40.5822 8.7675 40.5335 8.61779 40.5092 8.46601C40.4398 8.34899 40.3797 8.22052 40.3473 8.0766C40.3263 7.98266 40.3134 7.88402 40.301 7.78843C40.2438 7.70832 40.2017 7.61939 40.1623 7.52362C40.0977 7.44659 40.0297 7.37096 39.9772 7.28219C39.8988 7.14951 39.8581 7.00522 39.823 6.86162V6.86941L39.7382 6.70585L39.769 6.74479L39.7382 6.69806C39.5958 6.5338 39.5116 6.35316 39.4683 6.16846L39.1754 5.72452H39.1676C39.1319 5.69138 39.0954 5.65614 39.0597 5.62327C39.0248 5.59116 38.9887 5.56015 38.9518 5.52981C38.8108 5.41403 38.7042 5.2709 38.6202 5.11703C38.5022 5.0402 38.3857 4.95443 38.2887 4.84444L38.0342 4.54069C38.0123 4.51592 37.9937 4.4883 37.9726 4.46281C37.8416 4.397 37.7136 4.31321 37.6025 4.19801C37.529 4.12169 37.4582 4.04087 37.3943 3.95657C37.3899 3.95079 37.385 3.94604 37.3803 3.9417L37.3943 3.94878C37.41 3.95779 37.4257 3.96226 37.4329 3.96436C37.4143 3.95916 37.3984 3.9479 37.3803 3.9417C37.3772 3.93887 37.3739 3.93586 37.3712 3.9332C37.1289 3.85133 36.9185 3.7108 36.7621 3.50485H36.7544C36.5872 3.45209 36.4281 3.37112 36.284 3.26341C36.2515 3.23907 36.2221 3.21161 36.1915 3.18552C36.0617 3.14559 35.9452 3.07936 35.8369 2.9986C35.6935 2.9556 35.5547 2.89859 35.4359 2.8039C35.4011 2.79433 35.3625 2.79215 35.328 2.78053C35.2546 2.75573 35.1863 2.72193 35.1198 2.68707C34.9468 2.67702 34.7645 2.63975 34.5878 2.53909C34.5439 2.51396 34.4941 2.48418 34.449 2.46121C34.4101 2.44131 34.3719 2.41984 34.3334 2.3989C34.3206 2.398 34.3077 2.39944 34.2948 2.3989C34.1743 2.39404 34.0517 2.37756 33.9324 2.35217C33.9169 2.34885 33.8964 2.34547 33.8785 2.34438C33.664 2.33098 33.483 2.25814 33.331 2.16525C33.1393 2.16791 32.9481 2.1463 32.7682 2.064C32.7609 2.06065 32.7523 2.05143 32.7451 2.04843C32.6417 2.07045 32.537 2.09838 32.429 2.10295C32.2952 2.10849 32.1695 2.06977 32.0434 2.04064C31.9185 2.04985 31.7993 2.03286 31.6811 2.00949ZM23.5777 19.0737L23.6068 19.0947C23.5921 19.0822 23.5773 19.0698 23.5623 19.0581L23.5777 19.0737ZM26.2994 18.9024C26.3514 18.9575 26.4136 19.0005 26.4586 19.0595C26.4151 18.9999 26.3628 18.9456 26.2994 18.9024ZM23.1845 18.5831C23.1989 18.6094 23.2113 18.6421 23.2307 18.6687L23.2462 18.6843C23.2293 18.6531 23.2141 18.6236 23.1999 18.5908L23.1845 18.5831ZM23.1262 18.4534C23.1389 18.4921 23.1612 18.5316 23.1845 18.5753L23.1999 18.5908C23.1794 18.5435 23.1434 18.5026 23.1262 18.4534ZM25.1749 18.0902C25.2387 18.1153 25.2965 18.1548 25.3587 18.1859C25.2983 18.1458 25.2396 18.1125 25.1814 18.0924L25.1749 18.0902ZM38.9052 17.3665C38.8698 17.4311 38.8524 17.496 38.8404 17.5506C38.8553 17.4867 38.8798 17.4269 38.9052 17.3665ZM40.539 14.2111C40.5335 14.2249 40.5287 14.2388 40.5246 14.2527H40.5323C40.5344 14.2387 40.5366 14.2248 40.539 14.2111ZM42.722 13.4817C42.6798 13.5592 42.6531 13.6427 42.5987 13.7076C42.6381 13.6605 42.6883 13.5906 42.722 13.4973V13.4817ZM42.4368 12.2511C42.4153 12.2618 42.3962 12.2736 42.3751 12.2823C42.3985 12.2723 42.4216 12.2632 42.4445 12.2511H42.4368ZM41.0489 11.4723C41.05 11.4807 41.0479 11.4889 41.0489 11.4957C41.0529 11.5214 41.0562 11.545 41.0593 11.5657C41.0557 11.5338 41.0546 11.5021 41.0489 11.4723ZM42.9456 11.2464C42.9561 11.2897 42.9539 11.3347 42.961 11.3788C42.9598 11.3396 42.9633 11.3098 42.961 11.2932C42.9583 11.2735 42.9479 11.2572 42.9456 11.2464ZM42.9688 11.0985C42.9688 11.1469 42.9868 11.1954 42.9849 11.2441C42.9855 11.2314 42.9858 11.211 42.9842 11.1841C42.9828 11.1634 42.9753 11.133 42.9688 11.0985ZM41.0258 11.1608V11.153C41.0246 11.1476 41.0235 11.1422 41.0225 11.1368C41.0236 11.1449 41.0247 11.1529 41.0258 11.1608ZM41.4884 10.5299C41.4684 10.5427 41.4467 10.554 41.4267 10.5689C41.3949 10.5928 41.369 10.6286 41.3419 10.6545C41.3909 10.6098 41.4338 10.5629 41.4884 10.5299ZM41.9095 10.387C41.8346 10.3951 41.7457 10.4142 41.6503 10.452C41.7358 10.4197 41.8224 10.3967 41.9095 10.387ZM40.7636 9.12802C40.773 9.15859 40.7899 9.18533 40.8022 9.21369V9.2059C40.7879 9.1804 40.7766 9.15454 40.7636 9.12802ZM42.429 8.0766C42.4364 8.15405 42.4673 8.23033 42.4599 8.31025C42.4664 8.23773 42.4516 8.15864 42.429 8.0766ZM38.6742 5.16376L38.6973 5.17934L38.6665 5.14818L38.6742 5.16376ZM23.9555 3.29456C23.9105 3.36175 23.8799 3.42939 23.8598 3.49091C23.8829 3.42319 23.9218 3.36106 23.9555 3.29456ZM27.7026 0.864601C27.6597 0.894931 27.6234 0.926712 27.5924 0.958503C27.6264 0.92581 27.6663 0.898299 27.7026 0.864601ZM34.3102 0.451819C34.3408 0.476385 34.3748 0.493181 34.4035 0.516737C34.381 0.495601 34.358 0.470118 34.3257 0.451819H34.3102Z" fill="#017BFF"/>
<path d="M12.0899 18.1497C12.0899 18.5126 11.7987 18.8067 11.4395 18.8067C11.0802 18.8067 10.789 18.5126 10.789 18.1497C10.789 17.7868 11.0802 17.4926 11.4395 17.4926C11.7987 17.4926 12.0899 17.7868 12.0899 18.1497Z" fill="#017BFF"/>
<path d="M16.2186 17.4701C16.2186 17.833 15.9274 18.1271 15.5681 18.1271C15.2089 18.1271 14.9177 17.833 14.9177 17.4701C14.9177 17.1072 15.2089 16.813 15.5681 16.813C15.9274 16.813 16.2186 17.1072 16.2186 17.4701Z" fill="#017BFF"/>
<path d="M30.438 18.1497C30.438 18.5126 30.7292 18.8067 31.0885 18.8067C31.4477 18.8067 31.7389 18.5126 31.7389 18.1497C31.7389 17.7868 31.4477 17.4926 31.0885 17.4926C30.7292 17.4926 30.438 17.7868 30.438 18.1497Z" fill="#017BFF"/>
<path d="M26.312 17.4701C26.312 17.833 26.6032 18.1271 26.9624 18.1271C27.3217 18.1271 27.6129 17.833 27.6129 17.4701C27.6129 17.1072 27.3217 16.813 26.9624 16.813C26.6032 16.813 26.312 17.1072 26.312 17.4701Z" fill="#017BFF"/>
<path d="M12.6362 6.20424C12.8144 5.63239 13.4157 5.31234 13.9819 5.49054C14.4705 5.64592 14.7452 6.11729 14.7053 6.61206L14.7305 6.62056L14.7894 6.84147C14.8049 6.9817 14.8001 7.12825 14.7726 7.27478C14.7566 7.35969 14.7411 7.44525 14.7221 7.52967C14.7124 7.57277 14.6961 7.61421 14.6885 7.65712C14.701 7.78925 14.6992 7.91814 14.68 8.04795C14.702 8.18967 14.7017 8.32451 14.68 8.46427C14.7138 8.63867 14.7108 8.80866 14.6716 8.99104C14.7273 9.17538 14.7356 9.36339 14.7053 9.5688C14.7301 9.8111 14.6672 10.0269 14.5875 10.223C14.6202 10.4377 14.597 10.6445 14.5202 10.8602C14.5079 11.0168 14.4698 11.1613 14.4109 11.3021C14.4033 11.5001 14.3712 11.7068 14.2679 11.9053C14.2242 11.9891 14.1618 12.059 14.1081 12.1347C14.0447 12.3606 13.9423 12.5641 13.7795 12.7308L13.6959 12.9419C13.6852 12.9697 13.6713 13.0006 13.6623 13.0353C13.577 13.3646 13.375 13.6237 13.1156 13.8085C13.1113 13.8189 13.1114 13.8314 13.1072 13.8425C13.0179 14.0798 12.8546 14.2519 12.6782 14.3947C12.609 14.5149 12.5303 14.6328 12.4259 14.7346C12.365 14.7938 12.2905 14.8369 12.224 14.8875C12.1868 14.9509 12.1581 15.0229 12.1147 15.0829C12.0452 15.1787 11.9689 15.269 11.8876 15.3548C11.7968 15.4503 11.6896 15.5261 11.5848 15.5927C11.5563 15.6374 11.5416 15.6944 11.5091 15.7372C11.4196 15.8547 11.3189 15.9632 11.2063 16.06C11.0742 16.1733 10.9229 16.2409 10.7773 16.2979C10.6788 16.4254 10.577 16.5576 10.4409 16.6548C10.3879 16.6926 10.3334 16.7351 10.281 16.7737C10.2136 16.8234 10.1399 16.8709 10.0708 16.9181C9.94416 17.0043 9.8065 17.0623 9.66704 17.1136C9.62082 17.1484 9.57335 17.1769 9.52405 17.207C9.43972 17.309 9.35404 17.4113 9.24648 17.4959C9.10365 17.608 8.94423 17.7035 8.77546 17.7678C8.6687 17.8083 8.55683 17.823 8.44743 17.8443C8.40001 17.8716 8.35233 17.9026 8.30444 17.9292C8.1948 17.9901 8.0771 18.047 7.95958 18.0906C7.90312 18.1115 7.84064 18.1095 7.78295 18.1246C7.66663 18.2109 7.52922 18.2935 7.3624 18.337C7.26992 18.361 7.17939 18.3514 7.09324 18.354C7.03788 18.3817 6.99391 18.4343 6.93343 18.456C6.69372 18.542 6.46366 18.5359 6.25213 18.4985C6.17783 18.528 6.10158 18.56 6.02503 18.5834C5.83843 18.6401 5.65805 18.6448 5.48672 18.6259C5.36315 18.665 5.2318 18.7081 5.0914 18.7109C5.03772 18.7118 4.98475 18.6969 4.93159 18.6939C4.75202 18.7612 4.5578 18.8139 4.34281 18.7958C4.25638 18.7884 4.17344 18.7548 4.09048 18.7364C3.64341 18.787 3.19734 18.5678 2.99704 18.1331C2.97772 18.0911 2.98545 18.0402 2.97181 17.9972L2.95499 18.0057L2.94657 17.9972L2.89611 17.8358V17.6573C2.89676 17.3389 3.04081 17.1189 3.16526 16.9691C3.17963 16.9523 3.19187 16.9341 3.20732 16.9181C3.24577 16.877 3.26972 16.8324 3.29984 16.8077C3.43448 16.6987 3.56586 16.6405 3.61946 16.6208C3.73631 16.5779 3.84636 16.5675 3.88862 16.5613H4.28394C4.32302 16.5675 4.35914 16.5787 4.39328 16.5868C4.54872 16.5355 4.71313 16.5161 4.88954 16.5273C5.11574 16.4268 5.36043 16.3895 5.59607 16.4254C5.68034 16.3928 5.76885 16.3721 5.85681 16.3489L6.34466 16.3064C6.44507 16.2562 6.55875 16.2183 6.6811 16.196C6.7094 16.1909 6.73752 16.1905 6.76521 16.1875C6.89785 16.1141 7.05063 16.0669 7.21941 16.043C7.2365 16.0367 7.25361 16.0288 7.26987 16.026L7.42969 15.9326L7.73248 15.7881C7.80689 15.7633 7.88399 15.7508 7.95958 15.7372C8.08609 15.5909 8.23819 15.4637 8.42219 15.3718C8.56631 15.2518 8.7225 15.1534 8.89321 15.0914C8.93166 15.0647 8.97329 15.0427 9.01097 15.015C9.04929 14.9867 9.09012 14.9579 9.12873 14.93C9.18254 14.8542 9.24395 14.7795 9.30536 14.7091L9.68386 14.4032C9.73709 14.3744 9.79731 14.3649 9.85208 14.3438C9.96957 14.125 10.1314 13.9503 10.3399 13.8255C10.3503 13.8136 10.3725 13.8046 10.382 13.7915L10.3904 13.7745L10.6175 13.4261C10.7027 13.3307 10.8038 13.2505 10.9119 13.1798C10.9904 13.0455 11.0757 12.9272 11.1894 12.8314C11.2012 12.8065 11.2191 12.7795 11.2315 12.7549L11.5764 12.2876L11.6605 12.2112C11.6677 12.1911 11.678 12.1716 11.6857 12.1517C11.7155 12.0745 11.7464 11.9981 11.7782 11.9223C11.8289 11.8019 11.8942 11.6846 11.9633 11.5739L12.1063 11.3955C12.1482 11.2561 12.2082 11.1265 12.2913 11.0047C12.303 10.8669 12.3446 10.7394 12.4006 10.6054C12.412 10.5006 12.4281 10.3978 12.4595 10.2995C12.4521 10.2348 12.4257 10.1716 12.4259 10.1041C12.4268 9.88347 12.4803 9.68327 12.5605 9.50932C12.5624 9.48406 12.5573 9.4579 12.5605 9.43286C12.5228 9.29215 12.5111 9.13553 12.5184 8.97405C12.5227 8.88277 12.5512 8.79743 12.5689 8.71067C12.5431 8.56924 12.5392 8.43164 12.5605 8.28585C12.5313 8.12119 12.5315 7.95449 12.5605 7.78456C12.5455 7.63132 12.5351 7.47794 12.5605 7.32576L12.6193 7.04538C12.6231 7.02858 12.6241 7.01121 12.6277 6.9944C12.5848 6.77893 12.5748 6.58035 12.5857 6.44214L12.5941 6.32319L12.6362 6.20424ZM6.58016 16.3404C6.56728 16.3484 6.55009 16.3491 6.53811 16.3574H6.55493C6.56274 16.3508 6.57216 16.3469 6.58016 16.3404ZM13.778 12.7323C13.7696 12.7409 13.7609 12.7494 13.7521 12.7579C13.7599 12.7511 13.7701 12.7436 13.778 12.7323ZM14.5371 10.325C14.5052 10.3883 14.489 10.4591 14.4527 10.5166C14.484 10.4689 14.5136 10.4033 14.5371 10.325ZM12.6277 7.94599C12.5953 8.02248 12.5729 8.11902 12.5689 8.22637V8.25186C12.5863 8.15106 12.5859 8.04474 12.6277 7.94599Z" fill="#017BFF"/>
<path d="M12.6861 11.2705C12.9411 10.7282 13.5874 10.495 14.1244 10.7522V10.7607L14.402 10.8882L14.5702 11.1431C14.6495 11.2663 14.7293 11.4355 14.7973 11.6104C14.8415 11.6482 14.9005 11.6688 14.9403 11.7123L15.1926 12.1031L15.2431 12.2221C15.2687 12.2477 15.2946 12.2714 15.3188 12.2986C15.4626 12.3851 15.5866 12.4991 15.6973 12.6299C15.7362 12.6577 15.7745 12.6894 15.815 12.7149C15.8454 12.7339 15.8764 12.7504 15.9075 12.7659C16.0556 12.8393 16.1794 12.9436 16.2944 13.0547C16.3624 13.0877 16.4361 13.1059 16.4963 13.1482L16.7823 13.2332L17.0346 13.3691C17.1382 13.3893 17.242 13.4095 17.3424 13.4463C17.4706 13.466 17.5932 13.5067 17.7075 13.556L18.0355 13.7429L18.0608 13.7599C18.0842 13.7719 18.1055 13.7857 18.1281 13.7939C18.1973 13.819 18.2688 13.8447 18.3383 13.8704C18.3995 13.893 18.463 13.9137 18.5234 13.9384C18.6104 13.9439 18.6974 13.9487 18.7841 13.9638C18.8764 13.9801 18.9708 14.0013 19.0617 14.0233C19.0956 14.0315 19.1296 14.0472 19.1626 14.0573C19.2739 14.0375 19.3933 14.033 19.5159 14.0403C19.6445 14.048 19.7707 14.0702 19.8944 14.0998C20.0145 14.0968 20.1296 14.0908 20.2392 14.1168C20.3826 14.0772 20.5337 14.0568 20.685 14.0488L21.1056 14.0913C21.2601 14.1329 21.4665 14.2372 21.6523 14.4396C21.6797 14.4662 21.7122 14.487 21.7364 14.5161L21.7448 14.5331L21.7617 14.5501L21.7869 14.5926H21.7785C21.9969 14.9024 22.0593 15.3118 21.8878 15.6801C21.6696 16.1442 21.1701 16.3606 20.6934 16.2579L20.6682 16.2664C20.3817 16.369 20.1027 16.331 19.8439 16.2494C19.7162 16.2536 19.5908 16.2506 19.4654 16.2239C19.1773 16.3014 18.865 16.2873 18.5654 16.1389L18.414 16.1049C18.4028 16.1032 18.389 16.1051 18.372 16.1049C18.1635 16.1025 17.9569 16.0532 17.758 15.969C17.7066 15.9472 17.6503 15.9288 17.5982 15.9095C17.5338 15.8857 17.4687 15.8647 17.4047 15.8415C17.2934 15.8013 17.1817 15.7513 17.0767 15.6971C16.9985 15.6566 16.9302 15.6012 16.858 15.5527C16.7661 15.5308 16.6691 15.5196 16.5804 15.4847C16.3792 15.4532 16.1907 15.38 16.0169 15.2723C15.725 15.2449 15.4567 15.1315 15.2431 14.9239C15.1157 14.8601 15.001 14.785 14.8982 14.686C14.8223 14.6463 14.7437 14.6043 14.6711 14.5586C14.5921 14.5088 14.5114 14.4601 14.4356 14.4057C14.321 14.3232 14.2318 14.2146 14.1412 14.1083C14.0016 14.0189 13.878 13.9099 13.7711 13.7769C13.5699 13.6193 13.4174 13.4183 13.3169 13.1907C13.3118 13.179 13.3136 13.1598 13.3085 13.1482C13.1808 13.0389 13.0606 12.9155 12.9721 12.7574L12.8123 12.4175C12.8052 12.4042 12.7887 12.3743 12.7618 12.3325L12.7786 12.324C12.5795 12.0174 12.5192 11.626 12.6861 11.2705ZM19.6168 16.1814C19.6708 16.2059 19.7317 16.2293 19.8019 16.2409C19.7386 16.2187 19.6757 16.2039 19.6168 16.1729V16.1814Z" fill="#017BFF"/>
<path d="M27.5972 6.11871C27.8228 5.56295 28.4601 5.29616 29.0103 5.52396C29.3786 5.67842 29.5931 6.01739 29.6411 6.39059L29.6664 6.38209C29.6703 6.41039 29.6544 6.4432 29.658 6.47555C29.6595 6.50704 29.6592 6.53727 29.658 6.56901C29.6691 6.71803 29.6943 6.89239 29.658 7.0703L29.6243 7.42715C29.7114 7.671 29.7681 7.94555 29.6832 8.24279C29.6749 8.272 29.6585 8.29875 29.6495 8.32776C29.6589 8.38436 29.6782 8.43999 29.6832 8.49769C29.7046 8.74396 29.6436 8.97271 29.557 9.18589C29.5541 9.21328 29.5578 9.24314 29.557 9.27086C29.5546 9.35197 29.553 9.43625 29.5486 9.51725C29.5409 9.65593 29.5157 9.7913 29.4813 9.92507C29.5126 10.0716 29.5292 10.2334 29.4981 10.4094C29.4691 10.5726 29.4098 10.7139 29.3383 10.8342C29.3314 10.8785 29.3309 10.9261 29.3215 10.9701C29.3084 11.0317 29.2913 11.0946 29.2795 11.157C29.265 11.2333 29.2531 11.3102 29.2374 11.3864C29.2053 11.5418 29.1533 11.6935 29.086 11.8368L29.0776 11.8622C29.045 11.9833 29.0012 12.1041 28.9514 12.2191C28.9365 12.2538 28.9216 12.2921 28.9094 12.3295C28.8772 12.4274 28.8401 12.5235 28.8 12.6184C28.7181 12.8121 28.591 12.9742 28.4468 13.1197L28.4552 13.1282C28.3365 13.3162 28.1728 13.4504 28.001 13.5615C27.8794 13.7718 27.7174 13.9624 27.4963 14.0968C27.4706 14.1124 27.4436 14.1301 27.4206 14.1478C27.3613 14.1938 27.2953 14.2382 27.2356 14.2837C27.1002 14.3868 26.9525 14.4494 26.8066 14.4961C26.7753 14.5263 26.7564 14.5697 26.7225 14.5981C26.5918 14.7072 26.4489 14.7999 26.2935 14.87C26.2396 14.8942 26.1863 14.9205 26.1337 14.9464C26.0554 14.985 25.9708 15.0159 25.8898 15.0484C25.8823 15.0548 25.8735 15.0647 25.8646 15.0739C25.7092 15.2317 25.5248 15.364 25.3094 15.4477C25.2105 15.4861 25.1087 15.5208 25.0066 15.5497C24.987 15.5552 24.965 15.5589 24.9477 15.5667C24.8124 15.6275 24.6716 15.672 24.5272 15.7026C24.4931 15.7098 24.458 15.718 24.4263 15.7281C24.2228 15.8499 23.9988 15.9254 23.7618 15.9405C23.731 15.9425 23.7035 15.9527 23.6777 15.9575L23.6693 15.949C23.5081 16.0182 23.3425 16.0767 23.1646 16.0934C23.0931 16.1 23.0173 16.1037 22.9459 16.1104C22.8454 16.1198 22.7487 16.0924 22.6515 16.0849C22.4753 16.1679 22.2889 16.2053 22.0964 16.2124C22.0516 16.2319 22.0073 16.2539 21.9618 16.2719C21.7348 16.3614 21.3475 16.4318 20.9441 16.2294C20.9611 16.2362 20.9918 16.2354 21.0282 16.2464C20.8994 16.2074 20.774 16.1622 20.6665 16.0764L20.2544 15.7791V15.2183C20.2548 15.0688 20.2905 14.8735 20.4058 14.6745C20.4149 14.6587 20.4297 14.6471 20.4394 14.6321C20.4615 14.5983 20.4892 14.57 20.5151 14.5386C20.5901 14.4471 20.6637 14.3657 20.7506 14.3092L20.7758 14.2922H20.7843C20.8075 14.2782 20.8283 14.2614 20.8515 14.2497C20.9907 14.18 21.1242 14.1495 21.23 14.1393H21.4571C21.5957 14.0892 21.7384 14.0685 21.8861 14.0628C21.9558 14.0342 22.0238 14 22.0964 13.9778C22.3174 13.9106 22.5417 13.9038 22.7525 13.9354C22.8138 13.9296 22.8761 13.9325 22.9375 13.9269C23.0496 13.8828 23.1622 13.8389 23.2824 13.8164C23.3521 13.8033 23.4223 13.7902 23.4926 13.7824C23.582 13.7364 23.6728 13.6863 23.7702 13.655L24.073 13.5785C24.1871 13.5272 24.3062 13.485 24.4263 13.4511C24.4356 13.4484 24.4422 13.4369 24.4515 13.4341C24.5077 13.3833 24.5669 13.3354 24.6281 13.2896L25.0823 13.0432L25.3515 12.9073C25.539 12.6669 25.7935 12.5171 26.0664 12.4485C26.0783 12.4393 26.0967 12.4322 26.1085 12.423C26.1561 12.3861 26.2018 12.3464 26.2515 12.3126C26.2908 12.2524 26.3317 12.1912 26.3776 12.1341L26.63 11.8877C26.6705 11.8561 26.7136 11.8298 26.7561 11.8028C26.7847 11.7661 26.8094 11.7267 26.8402 11.6923C26.8465 11.6752 26.8598 11.6586 26.8655 11.6413C26.8984 11.5409 26.9329 11.4409 26.9748 11.344C26.9822 11.3269 26.9951 11.3112 27.0001 11.293L27.1262 10.9446C27.1396 10.8799 27.156 10.8139 27.1683 10.7492C27.1832 10.6705 27.1937 10.5893 27.2103 10.5113C27.2128 10.4997 27.2181 10.4833 27.2187 10.4688L27.3281 10.01C27.323 9.90651 27.3166 9.79843 27.3365 9.68718L27.4038 9.38131C27.4069 9.32259 27.4105 9.2617 27.4122 9.20288C27.4155 9.09475 27.4235 8.98729 27.4374 8.88002L27.5131 8.58265C27.466 8.36541 27.4757 8.14478 27.53 7.92843C27.4861 7.7811 27.4618 7.61863 27.4711 7.44414C27.4786 7.30347 27.4974 7.16327 27.53 7.02782V6.71345C27.529 6.70487 27.5317 6.69191 27.53 6.67946L27.4879 6.39059L27.5972 6.11871ZM21.1375 16.2804C21.1621 16.285 21.1859 16.3028 21.2132 16.3058C21.2454 16.3094 21.3289 16.309 21.4403 16.2973C21.3374 16.308 21.2381 16.2992 21.1375 16.2804ZM21.8356 16.1699C21.7865 16.1968 21.7355 16.2109 21.6842 16.2294C21.7232 16.2155 21.7698 16.2158 21.8104 16.1954C21.8205 16.1903 21.8255 16.1754 21.8356 16.1699Z" fill="#017BFF"/>
<path d="M27.9625 10.8437C28.2789 10.3362 28.9397 10.1851 29.4429 10.5038L29.6532 10.6313L29.7877 10.8437C29.8704 10.976 29.9601 11.1333 30.0233 11.2855V11.294C30.1162 11.3712 30.1861 11.4686 30.2588 11.5744L30.5868 11.8972C30.6408 11.9474 30.6954 11.9971 30.7466 12.0502C30.8415 12.1047 30.9261 12.1729 31.0074 12.2456C31.1772 12.3189 31.3189 12.4245 31.4363 12.5515C31.5543 12.6077 31.6616 12.689 31.7644 12.7809L32.1765 12.9508L32.5382 13.2142C32.6012 13.2712 32.6572 13.3389 32.7148 13.4011C32.8023 13.4516 32.8842 13.5062 32.9587 13.571C32.9757 13.576 32.9922 13.5831 33.0092 13.588C33.1168 13.6193 33.222 13.6626 33.3204 13.7155L33.598 13.9024L33.6568 13.9534C33.6675 13.9602 33.6791 13.9652 33.6905 13.9704C33.778 14.0084 33.8664 14.0541 33.9512 14.0978C33.9681 14.1064 33.9914 14.1084 34.0101 14.1148C34.0867 14.141 34.1617 14.1715 34.2372 14.1998C34.3417 14.2389 34.4374 14.2965 34.5316 14.3527C34.6112 14.371 34.689 14.3972 34.7671 14.4207C34.7731 14.4225 34.7829 14.428 34.7923 14.4292C35.0166 14.4548 35.2167 14.5443 35.3979 14.6586C35.4696 14.6788 35.5428 14.6881 35.6082 14.718L35.869 14.735L36.4157 14.9135L36.4493 14.9304C36.574 14.931 36.7044 14.943 36.8362 14.9814L36.8531 14.9899C37.1275 15.0164 37.3758 15.1167 37.5848 15.2703L37.6016 15.2788C37.6523 15.2857 37.7027 15.2952 37.753 15.3043C37.8014 15.313 37.8484 15.3266 37.896 15.3383C38.0324 15.3197 38.179 15.3213 38.3334 15.3553C38.4124 15.3726 38.4834 15.4025 38.5521 15.4317C38.6789 15.4091 38.8143 15.4014 38.9558 15.4147C39.2106 15.439 39.4208 15.5413 39.5951 15.6611H39.6035C39.6637 15.64 39.7301 15.6051 39.8054 15.5932C39.9078 15.5771 40.2368 15.5383 40.5708 15.7546C40.8671 15.9471 40.9675 16.2258 41.0165 16.4513C41.0342 16.5191 41.0542 16.5843 41.0586 16.6552C41.0589 16.664 41.067 16.6723 41.067 16.6807V16.8081L41.0586 16.8421L41.0418 16.8336C41.0343 16.9051 41.0473 16.9833 41.025 17.0545C40.884 17.5008 40.4789 17.7743 40.0409 17.7937C39.9289 17.8213 39.8143 17.8439 39.696 17.8447C39.5808 17.8454 39.4657 17.8323 39.3512 17.8192C39.264 17.8093 39.177 17.799 39.0904 17.7852C38.9305 17.7597 38.7877 17.7077 38.6614 17.6408C38.539 17.6583 38.4094 17.6658 38.2745 17.6493C38.1156 17.6297 37.9748 17.5758 37.8456 17.5133C37.7074 17.5107 37.5607 17.5044 37.4166 17.4539C37.4023 17.449 37.3882 17.4479 37.3745 17.4454C37.3343 17.4381 37.2898 17.4322 37.2484 17.4284C37.0147 17.4064 36.7948 17.3298 36.6007 17.216C36.5429 17.182 36.4881 17.143 36.4325 17.1055C36.1232 17.1532 35.8032 17.0986 35.5157 16.9016C35.2314 16.9248 34.9487 16.866 34.6998 16.6977C34.5854 16.6622 34.4804 16.613 34.3802 16.5532C34.3047 16.5387 34.2272 16.5331 34.1531 16.5108C34.1128 16.4986 34.0698 16.486 34.0269 16.4768C33.8207 16.4325 33.634 16.3402 33.4634 16.2219C33.417 16.2048 33.3675 16.1955 33.3204 16.1794C33.2037 16.1396 33.0854 16.0914 32.9755 16.035C32.9324 16.0127 32.8857 15.9865 32.841 15.967C32.7222 15.9152 32.6051 15.8589 32.4961 15.7886C32.4305 15.7463 32.3727 15.6918 32.3111 15.6441C32.2699 15.6319 32.2261 15.6228 32.1849 15.6102C31.9558 15.5394 31.7609 15.4096 31.5961 15.2448C31.4337 15.1538 31.2872 15.043 31.1672 14.905C31.148 14.8828 31.1269 14.8627 31.1083 14.8455C30.9794 14.8056 30.8513 14.7588 30.7298 14.6925C30.6459 14.6465 30.5777 14.5718 30.5027 14.5141C30.2712 14.4371 30.0832 14.3102 29.9391 14.1403C29.8121 14.071 29.6984 13.9804 29.5943 13.8684C29.464 13.7893 29.3304 13.7106 29.2242 13.5965C29.1928 13.5628 29.1648 13.5253 29.1317 13.4946C29.0389 13.4084 28.9551 13.3148 28.8793 13.2142C28.7622 13.122 28.6684 13.0122 28.585 12.8913C28.3682 12.7343 28.1721 12.5339 28.0803 12.2456C28.0663 12.202 28.0529 12.1621 28.0382 12.1266C28.0438 12.1398 28.0436 12.1348 28.0298 12.1097C28.0166 12.0857 27.9916 12.0542 27.9625 12.0077L27.9709 11.9992C27.7556 11.6563 27.7347 11.2107 27.9625 10.8437ZM28.6354 12.9423L28.8709 13.0867L28.627 12.9168L28.6354 12.9423Z" fill="#017BFF"/>
<path d="M23.9962 25.3123C23.9962 26.0447 23.4122 26.6384 22.6918 26.6384C21.9714 26.6384 21.3875 26.0447 21.3875 25.3123C21.3875 24.5799 21.9714 23.9862 22.6918 23.9862C23.4122 23.9862 23.9962 24.5799 23.9962 25.3123Z" fill="white"/>
<path d="M24.9536 23.2831C25.5095 23.8446 25.8275 24.6025 25.8402 25.3965C25.853 26.1905 25.5595 26.9584 25.0219 27.5378L24.9536 27.6091L23.5261 29.0508C23.345 29.2337 23.1018 29.3401 22.8459 29.3486C22.5899 29.3572 22.3403 29.2671 22.1477 29.0967L22.0992 29.0508L20.6714 27.6088C20.1035 27.0352 19.7845 26.2572 19.7845 25.446C19.7845 24.6347 20.1035 23.8567 20.6714 23.2831C21.2392 22.7095 22.0094 22.3873 22.8125 22.3873C23.6156 22.3873 24.3858 22.7095 24.9536 23.2831ZM22.8125 24.4264C22.68 24.4264 22.5487 24.4528 22.4263 24.504C22.3038 24.5552 22.1925 24.6303 22.0988 24.725C22.0051 24.8197 21.9307 24.9321 21.88 25.0558C21.8293 25.1795 21.8032 25.3121 21.8032 25.446C21.8032 25.5799 21.8293 25.7124 21.88 25.8361C21.9307 25.9598 22.0051 26.0722 22.0988 26.1669C22.1925 26.2616 22.3038 26.3367 22.4263 26.3879C22.5487 26.4392 22.68 26.4655 22.8125 26.4655C23.0802 26.4655 23.3369 26.3581 23.5262 26.1669C23.7155 25.9757 23.8218 25.7164 23.8218 25.446C23.8218 25.1756 23.7155 24.9162 23.5262 24.725C23.3369 24.5338 23.0802 24.4264 22.8125 24.4264Z" fill="#017BFF"/>
<path d="M10.0047 24.4483C10.0047 24.0479 10.3261 23.7233 10.7225 23.7233C11.1189 23.7233 11.4402 24.0479 11.4402 24.4483C11.4402 24.6888 11.515 25.0415 11.5765 25.2952C11.6063 25.4179 11.6499 25.4931 11.9064 25.9465C12.0523 26.2044 12.4198 26.5228 12.6808 26.6546C13.0354 26.8337 13.1791 27.2692 13.0018 27.6273C12.8245 27.9855 12.3934 28.1306 12.0388 27.9515C11.5821 27.7209 10.9755 27.2236 10.66 26.6659C10.4551 26.3036 10.2725 26.0116 10.1824 25.6406C10.1241 25.4005 10.0047 24.8875 10.0047 24.4483Z" fill="#E6E6E6"/>
<path d="M13.4372 27.9478C13.6297 27.5978 14.0667 27.4717 14.4132 27.6662C14.4981 27.7139 14.6572 27.797 14.8234 27.8757C15.0026 27.9606 15.1379 28.0151 15.1955 28.0309C15.3129 28.0633 15.5406 28.1235 15.7557 28.1751C15.8636 28.201 15.9627 28.2234 16.0406 28.2388C16.1171 28.254 16.139 28.2553 16.1276 28.255C16.5139 28.2667 16.8234 28.5866 16.8234 28.9797C16.8234 29.3801 16.5021 29.7047 16.1057 29.7047C15.9853 29.7047 15.8443 29.6776 15.7642 29.6618C15.6599 29.6411 15.5403 29.6139 15.4239 29.5859C15.1905 29.5299 14.9471 29.4655 14.8178 29.4299C14.6286 29.3778 14.3938 29.2737 14.2142 29.1887C14.0216 29.0975 13.8329 28.9993 13.716 28.9337C13.3695 28.7393 13.2447 28.2979 13.4372 27.9478Z" fill="#E6E6E6"/>
<path d="M19.5016 28.55C19.898 28.55 20.2194 28.8746 20.2194 29.275C20.2194 29.6754 19.898 30 19.5016 30H18.7748C18.3784 30 18.0571 29.6754 18.0571 29.275C18.0571 28.8746 18.3784 28.55 18.7748 28.55H19.5016Z" fill="#E6E6E6"/>
<path d="M75.4744 13.3604C73.2819 12.8629 71.2551 11.3336 69.9838 9.78588C68.6203 11.352 66.6857 12.7339 64.8616 13.2314C64.5115 13.3235 64.0877 13.3788 63.7008 13.3051C63.277 13.213 62.8717 12.9734 62.7058 12.4022C62.4294 11.5178 62.9085 10.8914 63.8113 10.5413C65.8749 9.76745 68.436 8.07234 68.436 6.19298V5.6955C68.436 4.42417 69.2467 4.09251 70.0206 4.09251C70.7945 4.09251 71.6052 4.42417 71.6052 5.6955V6.22983C71.6052 8.07234 73.5951 9.89643 75.9166 10.5782C76.8563 10.8545 77.3907 11.4441 77.188 12.347C77.0774 12.826 76.8011 13.1393 76.3404 13.3051C76.064 13.3972 75.7692 13.4341 75.4744 13.3604ZM76.322 19.5881H63.5165C62.1715 19.5881 61.8398 18.98 61.8398 18.3351C61.8398 17.5797 62.1715 17.0454 63.5165 17.0454H68.436V14.0605C68.436 12.826 69.1362 12.4575 69.9285 12.4575C70.7023 12.4575 71.4209 12.7892 71.4209 14.0605V17.0454H76.322C77.667 17.0454 77.9987 17.5797 77.9987 18.3351C77.9987 18.98 77.667 19.5881 76.322 19.5881Z" fill="#017BFF"/>
<path d="M58.2969 18.1872C58.2969 19.4217 58.9602 19.8087 59.7893 19.8087C60.5816 19.8087 61.2817 19.4586 61.2817 18.1872V5.60288C61.2817 4.33155 60.5632 3.99989 59.7893 3.99989C58.997 3.99989 58.2969 4.3684 58.2969 5.60288V18.1872Z" fill="#017BFF"/>
<path d="M48.9685 19.477C48.5447 19.4954 48.0656 19.3665 47.7708 18.869C47.2733 18.0767 47.5866 17.3581 48.3788 16.7869C50.3688 15.3866 51.1058 13.6178 51.1058 11.5358V5.60288C51.1058 4.33155 51.8612 3.99989 52.6351 3.99989C53.4089 3.99989 54.1643 4.33155 54.1643 5.60288V11.5358C54.1643 13.6178 54.9013 15.2576 56.8913 16.658C57.6835 17.2291 57.9968 17.9477 57.4993 18.74C57.2229 19.1638 56.836 19.3665 56.3938 19.3849C56.1174 19.3849 55.8226 19.348 55.5462 19.1454C54.367 18.3162 53.4458 17.2476 52.7272 16.0684C52.0639 17.3213 51.1795 18.4083 50.074 19.1269C49.7423 19.3296 49.3738 19.4586 48.9685 19.477Z" fill="#017BFF"/>
</svg>
